<?xml version="1.0" encoding="utf-8"?>
<svg viewBox="0 173.199 374.926 28.242" width="374.926" height="28.242" xmlns="http://www.w3.org/2000/svg">
  <defs>
    <clipPath id="id1">
      <path d="M 76 173.199219 L 97 173.199219 L 97 200.949219 L 76 200.949219 Z M 76 173.199219 " clip-rule="nonzero"/>
    </clipPath>
    <clipPath id="id2">
      <path d="M 70.722656 175 L 83 175 L 83 188 L 70.722656 188 Z M 70.722656 175 " clip-rule="nonzero"/>
    </clipPath>
    <clipPath id="id3">
      <path d="M 89 188 L 101.472656 188 L 101.472656 200.949219 L 89 200.949219 Z M 89 188 " clip-rule="nonzero"/>
    </clipPath>
    <clipPath id="id4">
      <path d="M 0 178 L 29.25 178 L 29.25 201.394531 L 0 201.394531 Z M 0 178 " clip-rule="nonzero"/>
    </clipPath>
    <clipPath id="id5">
      <path d="M 0 173.644531 L 29.25 173.644531 L 29.25 193 L 0 193 Z M 0 173.644531 " clip-rule="nonzero"/>
    </clipPath>
    <clipPath id="id6">
      <path d="M 143.277344 173.667969 L 173.277344 173.667969 L 173.277344 201.417969 L 143.277344 201.417969 Z M 143.277344 173.667969 " clip-rule="nonzero"/>
    </clipPath>
    <clipPath id="id7">
      <path d="M 215.199219 173.691406 L 238.449219 173.691406 L 238.449219 201.441406 L 215.199219 201.441406 Z M 215.199219 173.691406 " clip-rule="nonzero"/>
    </clipPath>
    <clipPath id="id8">
      <path d="M 279.976562 173.691406 L 313.726562 173.691406 L 313.726562 201.441406 L 279.976562 201.441406 Z M 279.976562 173.691406 " clip-rule="nonzero"/>
    </clipPath>
    <clipPath id="id9">
      <path d="M 355.425781 173.691406 L 374.925781 173.691406 L 374.925781 201.441406 L 355.425781 201.441406 Z M 355.425781 173.691406 " clip-rule="nonzero"/>
    </clipPath>
  </defs>
  <g clip-path="url(#id1)">
    <path fill="#cb6ce6" d="M 92.675781 174.9375 C 88.824219 181.0625 84.921875 187.113281 81.023438 193.1875 C 79.441406 195.664062 77.839844 198.125 76.171875 200.714844 C 78.074219 201.257812 79.160156 200.914062 79.945312 199.433594 C 80.78125 197.84375 81.84375 196.367188 82.820312 194.851562 C 87.34375 187.800781 91.871094 180.753906 96.539062 173.488281 C 94.472656 172.738281 93.554688 173.523438 92.675781 174.9375 Z M 92.675781 174.9375 " fill-opacity="1" fill-rule="nonzero"/>
  </g>
  <g clip-path="url(#id2)">
    <path fill="#cb6ce6" d="M 82.867188 181.875 C 82.898438 181.492188 82.890625 181.109375 82.84375 180.730469 C 82.796875 180.347656 82.714844 179.976562 82.589844 179.613281 C 82.46875 179.25 82.308594 178.902344 82.113281 178.570312 C 81.921875 178.238281 81.695312 177.929688 81.4375 177.640625 C 81.179688 177.355469 80.898438 177.097656 80.589844 176.867188 C 80.277344 176.636719 79.949219 176.441406 79.597656 176.277344 C 79.25 176.113281 78.886719 175.988281 78.507812 175.898438 C 78.132812 175.804688 77.753906 175.753906 77.367188 175.738281 C 73.777344 175.546875 70.855469 178.066406 70.726562 181.453125 C 70.617188 184.648438 73.332031 187.375 76.78125 187.523438 C 77.167969 187.527344 77.546875 187.492188 77.925781 187.421875 C 78.304688 187.355469 78.671875 187.25 79.03125 187.109375 C 79.386719 186.972656 79.730469 186.800781 80.054688 186.597656 C 80.378906 186.394531 80.683594 186.164062 80.964844 185.902344 C 81.242188 185.640625 81.496094 185.359375 81.722656 185.050781 C 81.949219 184.742188 82.144531 184.414062 82.308594 184.070312 C 82.46875 183.722656 82.597656 183.367188 82.691406 183 C 82.789062 182.628906 82.847656 182.253906 82.867188 181.875 Z M 73.316406 181.757812 C 73.417969 179.507812 75.152344 177.941406 77.167969 178.160156 C 79.292969 178.382812 80.417969 179.699219 80.46875 181.742188 C 80.46875 183.671875 78.652344 185.15625 76.617188 185.015625 C 74.382812 184.8125 73.382812 183.558594 73.316406 181.757812 Z M 73.316406 181.757812 " fill-opacity="1" fill-rule="nonzero"/>
  </g>
  <g clip-path="url(#id3)">
    <path fill="#cb6ce6" d="M 95.089844 188.515625 C 91.855469 188.617188 89.167969 191.289062 89.195312 194.378906 C 89.214844 194.78125 89.269531 195.179688 89.363281 195.570312 C 89.457031 195.964844 89.585938 196.34375 89.757812 196.710938 C 89.925781 197.078125 90.125 197.425781 90.363281 197.753906 C 90.597656 198.082031 90.867188 198.386719 91.160156 198.664062 C 91.457031 198.941406 91.777344 199.1875 92.121094 199.402344 C 92.464844 199.621094 92.824219 199.800781 93.203125 199.949219 C 93.582031 200.09375 93.972656 200.203125 94.375 200.277344 C 94.773438 200.347656 95.179688 200.382812 95.585938 200.375 C 95.980469 200.355469 96.371094 200.300781 96.757812 200.207031 C 97.144531 200.113281 97.515625 199.984375 97.875 199.820312 C 98.234375 199.65625 98.574219 199.460938 98.898438 199.230469 C 99.21875 199 99.515625 198.742188 99.789062 198.457031 C 100.058594 198.171875 100.300781 197.863281 100.511719 197.53125 C 100.726562 197.199219 100.902344 196.847656 101.046875 196.484375 C 101.191406 196.117188 101.296875 195.742188 101.371094 195.355469 C 101.441406 194.96875 101.472656 194.578125 101.46875 194.1875 C 101.402344 191.050781 98.4375 188.410156 95.089844 188.515625 Z M 95.238281 197.898438 C 94.761719 197.890625 94.304688 197.792969 93.867188 197.605469 C 93.425781 197.414062 93.042969 197.152344 92.707031 196.8125 C 92.375 196.476562 92.117188 196.085938 91.9375 195.648438 C 91.757812 195.207031 91.671875 194.753906 91.671875 194.277344 C 91.757812 192.097656 93.324219 191.160156 95.238281 190.910156 C 97.15625 190.660156 98.859375 192.417969 98.878906 194.410156 C 98.894531 196.480469 97.433594 197.878906 95.238281 197.898438 Z M 95.238281 197.898438 " fill-opacity="1" fill-rule="nonzero"/>
  </g>
  <g clip-path="url(#id4)">
    <path fill="#cb6ce6" d="M 15.6875 190.289062 C 15.6875 192.933594 15.734375 195.21875 15.6875 197.511719 C 15.652344 198.8125 16.136719 199.355469 17.519531 199.3125 C 19.882812 199.246094 22.265625 199.191406 24.625 199.3125 C 26.449219 199.417969 27.070312 198.84375 27.023438 197.023438 C 26.90625 192.347656 27.023438 187.621094 26.960938 182.917969 C 26.960938 181.359375 27.394531 180.148438 29.097656 178.960938 L 29.097656 184.054688 C 29.097656 189.1875 29.058594 194.316406 29.097656 199.441406 C 29.097656 200.851562 28.695312 201.40625 27.167969 201.394531 C 18.726562 201.34375 10.300781 201.34375 1.894531 201.394531 C 0.613281 201.394531 -0.105469 201.109375 0.00390625 199.691406 C 0.09375 198.5 0.03125 197.300781 0.03125 196.101562 C 0.03125 195.421875 0.242188 194.953125 1.042969 194.898438 C 1.847656 194.839844 2.238281 195.300781 2.097656 195.972656 C 1.351562 199.609375 3.734375 199.535156 6.242188 199.324219 C 6.414062 199.324219 6.59375 199.324219 6.769531 199.324219 C 8.847656 199.152344 11.429688 200.179688 12.871094 198.871094 C 14.3125 197.5625 13.257812 195.136719 13.320312 193.199219 C 13.371094 191.847656 13.777344 190.882812 15.6875 190.289062 Z M 15.6875 190.289062 " fill-opacity="1" fill-rule="nonzero"/>
  </g>
  <g clip-path="url(#id5)">
    <path fill="#cb6ce6" d="M 29.25 173.859375 C 22.554688 183.328125 14.125 190.023438 2.390625 192.054688 C 1.691406 192.175781 0.386719 193.171875 0.0742188 191.535156 C -0.191406 190.140625 1.003906 190.191406 1.941406 190.015625 C 11.390625 188.28125 18.820312 183.386719 24.84375 176.238281 C 25.875 175.007812 26.558594 173.042969 29.25 173.859375 Z M 29.25 173.859375 " fill-opacity="1" fill-rule="nonzero"/>
  </g>
  <g clip-path="url(#id6)">
    <path fill="#cb6ce6" d="M 170.84375 183.730469 C 167.125 182.769531 167.101562 182.601562 167.890625 178.808594 C 167.984375 178.378906 168.03125 177.941406 168.164062 177.074219 C 168.109375 175.332031 166.023438 175.15625 164.757812 174.257812 C 163.597656 173.433594 162.527344 173.851562 161.414062 174.789062 C 158.339844 177.453125 157.921875 177.542969 155.261719 174.878906 C 153.3125 172.910156 151.90625 174.347656 150.308594 175.0625 C 148.710938 175.773438 148.167969 176.914062 148.585938 178.691406 C 149.480469 182.558594 149.441406 182.765625 145.773438 183.722656 C 143.074219 184.402344 143.390625 186.230469 143.277344 188.191406 C 143.164062 190.152344 143.933594 191.011719 145.839844 191.476562 C 149.3125 192.328125 149.582031 192.742188 148.628906 196.214844 C 147.984375 198.570312 149.210938 199.484375 150.949219 200.5 C 152.6875 201.519531 153.914062 201.566406 155.4375 200.113281 C 157.945312 197.738281 158.773438 197.691406 161.195312 200.222656 C 163.074219 202.1875 164.496094 200.964844 166.125 200.222656 C 167.757812 199.484375 168.40625 198.28125 167.941406 196.394531 C 167.03125 192.699219 167.074219 192.507812 170.902344 191.457031 C 173.652344 190.699219 173.132812 188.765625 173.253906 186.882812 C 173.378906 184.996094 172.636719 184.1875 170.84375 183.730469 Z M 169.425781 189.667969 C 165.773438 190.789062 164.898438 192.25 165.683594 195.832031 C 165.957031 197.078125 165.804688 197.929688 164.613281 198.703125 C 163.246094 199.585938 162.6875 198.609375 161.941406 197.929688 C 159.574219 195.800781 157.003906 195.800781 154.5 198.09375 C 153.738281 198.804688 153.109375 199.371094 151.984375 198.695312 C 151.144531 198.191406 150.507812 197.714844 150.886719 196.269531 C 151 195.535156 151.527344 194.320312 151.261719 193.320312 C 150.726562 191.402344 149.5 189.917969 147.238281 189.707031 C 145.949219 189.597656 145.371094 188.988281 145.367188 187.660156 C 145.363281 186.328125 145.902344 185.828125 147.125 185.46875 C 150.777344 184.40625 151.671875 182.914062 150.871094 179.335938 C 150.617188 178.074219 150.761719 177.234375 151.957031 176.476562 C 153.320312 175.59375 153.882812 176.558594 154.628906 177.246094 C 156.933594 179.34375 159.644531 179.375 161.875 177.246094 C 162.773438 176.382812 163.480469 175.78125 164.832031 176.5625 C 166.078125 177.292969 165.902344 178.234375 165.667969 179.285156 C 164.917969 183.011719 165.699219 184.417969 169.339844 185.40625 C 170.535156 185.738281 171.179688 186.15625 171.195312 187.492188 C 171.210938 188.832031 170.609375 189.304688 169.425781 189.667969 Z M 169.425781 189.667969 " fill-opacity="1" fill-rule="nonzero"/>
  </g>
  <path fill="#cb6ce6" d="M 158.449219 182.867188 C 155.710938 182.828125 153.636719 184.710938 153.492188 187.300781 C 153.464844 187.621094 153.472656 187.9375 153.515625 188.253906 C 153.554688 188.574219 153.628906 188.882812 153.730469 189.183594 C 153.835938 189.484375 153.972656 189.773438 154.136719 190.046875 C 154.300781 190.324219 154.492188 190.578125 154.707031 190.8125 C 154.925781 191.050781 155.164062 191.261719 155.421875 191.445312 C 155.683594 191.632812 155.960938 191.792969 156.253906 191.921875 C 156.546875 192.050781 156.851562 192.148438 157.164062 192.21875 C 157.476562 192.285156 157.796875 192.320312 158.117188 192.324219 C 158.433594 192.34375 158.75 192.332031 159.066406 192.292969 C 159.382812 192.25 159.691406 192.175781 159.992188 192.074219 C 160.292969 191.96875 160.582031 191.835938 160.855469 191.675781 C 161.128906 191.511719 161.382812 191.324219 161.621094 191.113281 C 161.855469 190.902344 162.070312 190.667969 162.257812 190.410156 C 162.449219 190.15625 162.609375 189.886719 162.746094 189.597656 C 162.878906 189.308594 162.984375 189.011719 163.058594 188.703125 C 163.132812 188.394531 163.175781 188.082031 163.1875 187.765625 C 163.195312 187.449219 163.175781 187.132812 163.125 186.820312 C 163.070312 186.507812 162.988281 186.203125 162.875 185.90625 C 162.761719 185.609375 162.617188 185.328125 162.445312 185.0625 C 162.277344 184.792969 162.078125 184.546875 161.859375 184.316406 C 161.636719 184.089844 161.394531 183.882812 161.132812 183.703125 C 160.871094 183.523438 160.59375 183.371094 160.300781 183.246094 C 160.007812 183.121094 159.707031 183.027344 159.394531 182.964844 C 159.082031 182.898438 158.765625 182.867188 158.449219 182.867188 Z M 160.957031 187.882812 C 160.71875 189.480469 159.8125 190.394531 157.917969 190.242188 C 156.484375 189.960938 155.398438 189.175781 155.597656 187.445312 C 155.796875 185.714844 156.761719 184.691406 158.636719 184.980469 C 160.25 185.203125 161.203125 186.15625 160.957031 187.859375 Z M 160.957031 187.882812 " fill-opacity="1" fill-rule="nonzero"/>
  <g clip-path="url(#id7)">
    <path fill="#cb6ce6" d="M 238.398438 183.730469 C 238.398438 182.207031 238.066406 181.324219 236.289062 181.59375 C 234.390625 181.882812 233.472656 181.417969 233.371094 179.199219 C 233.230469 176.117188 230.058594 173.691406 226.917969 173.691406 C 223.605469 173.691406 220.457031 175.992188 220.304688 179.003906 C 220.183594 181.210938 219.433594 181.941406 217.28125 181.605469 C 215.753906 181.363281 215.207031 182.019531 215.246094 183.535156 C 215.316406 188.894531 215.316406 194.253906 215.246094 199.605469 C 215.246094 201.039062 215.796875 201.457031 217.195312 201.421875 C 220.410156 201.347656 223.628906 201.398438 226.863281 201.398438 C 229.996094 201.398438 233.132812 201.308594 236.261719 201.4375 C 237.992188 201.507812 238.433594 200.875 238.410156 199.308594 C 238.332031 194.117188 238.328125 188.925781 238.398438 183.730469 Z M 222.53125 178.523438 C 223.398438 176.628906 224.929688 175.484375 227.113281 175.738281 C 229.296875 175.992188 230.867188 177.085938 231.390625 179.304688 C 231.769531 180.90625 231.390625 181.84375 229.4375 181.617188 C 228.589844 181.566406 227.742188 181.566406 226.894531 181.617188 L 224.632812 181.617188 C 222.042969 181.578125 221.496094 180.804688 222.53125 178.523438 Z M 234.128906 199.433594 C 231.675781 199.371094 229.21875 199.433594 226.761719 199.433594 C 224.304688 199.433594 221.851562 199.367188 219.398438 199.433594 C 217.9375 199.480469 217.484375 198.933594 217.503906 197.554688 C 217.570312 193.515625 217.570312 189.476562 217.503906 185.441406 C 217.503906 184.078125 217.929688 183.535156 219.394531 183.554688 C 224.386719 183.621094 229.382812 183.609375 234.378906 183.554688 C 235.710938 183.554688 236.148438 184.054688 236.132812 185.308594 C 236.089844 189.425781 236.070312 193.546875 236.132812 197.667969 C 236.164062 199.171875 235.449219 199.464844 234.128906 199.433594 Z M 234.128906 199.433594 " fill-opacity="1" fill-rule="nonzero"/>
  </g>
  <path fill="#cb6ce6" d="M 226.792969 189.101562 C 225.164062 189.101562 225.839844 190.597656 225.871094 191.40625 C 225.902344 192.214844 225.03125 193.902344 226.851562 193.902344 C 228.511719 193.902344 227.53125 192.40625 227.902344 191.550781 C 227.457031 190.757812 228.644531 189.109375 226.792969 189.101562 Z M 226.792969 189.101562 " fill-opacity="1" fill-rule="nonzero"/>
  <g clip-path="url(#id8)">
    <path fill="#cb6ce6" d="M 308.496094 174.78125 C 307.324219 173.410156 306.484375 173.550781 305.277344 174.78125 C 301.765625 178.394531 298.105469 181.851562 294.539062 185.398438 C 293.59375 186.332031 292.894531 187.078125 291.5625 185.71875 C 290.082031 184.21875 288.691406 181.4375 286.824219 181.808594 C 284.957031 182.175781 283.476562 184.585938 281.84375 186.109375 C 281.496094 186.484375 281.128906 186.84375 280.742188 187.179688 C 279.589844 188.035156 279.882812 188.742188 280.792969 189.640625 C 284.476562 193.1875 288.121094 196.800781 291.804688 200.378906 C 292.1875 200.714844 292.589844 201.03125 293.007812 201.320312 C 293.628906 200.707031 294.175781 200.257812 294.6875 199.757812 C 299.382812 195.167969 304.09375 190.597656 308.746094 185.964844 C 310.550781 184.164062 313.800781 182.5625 313.726562 180.429688 C 313.652344 178.175781 310.207031 176.789062 308.496094 174.78125 Z M 309.511719 182.238281 C 304.398438 186.976562 299.429688 191.871094 294.464844 196.757812 C 293.335938 197.867188 292.519531 197.953125 291.394531 196.757812 C 289.183594 194.507812 286.824219 192.339844 284.613281 190.082031 C 284.027344 189.46875 282.796875 188.921875 283.625 187.871094 C 284.546875 186.726562 285.53125 185.496094 287.03125 184.84375 C 288.597656 185.605469 289.664062 186.898438 290.703125 188.109375 C 292.277344 189.953125 293.421875 189.921875 295.109375 188.109375 C 298.335938 184.679688 301.910156 181.554688 305.132812 178.125 C 306.910156 176.242188 307.855469 177.324219 309.09375 178.574219 C 310.238281 179.746094 311.304688 180.578125 309.511719 182.238281 Z M 309.511719 182.238281 " fill-opacity="1" fill-rule="nonzero"/>
  </g>
  <g clip-path="url(#id9)">
    <path fill="#cb6ce6" d="M 373.828125 190.59375 C 373.324219 189.824219 373.074219 188.976562 373.082031 188.058594 C 373.164062 182.382812 370.363281 178.078125 366.277344 174.382812 C 365.550781 173.726562 364.980469 173.488281 364.164062 174.273438 C 360.863281 177.367188 358.035156 180.773438 357.351562 185.390625 C 357.023438 187.625 357.480469 190 355.671875 191.878906 C 355.171875 192.410156 355.566406 193.171875 355.773438 193.761719 C 356.394531 195.539062 357.085938 197.296875 357.777344 199.050781 C 358 199.621094 358.140625 200.566406 359.0625 200.042969 C 360.488281 199.234375 361.570312 198.984375 362.457031 200.757812 C 362.59375 201.046875 363.597656 200.816406 364.074219 201.066406 C 366.84375 202.554688 368.914062 197.972656 371.757812 200.222656 C 371.945312 200.089844 372.097656 199.921875 372.214844 199.726562 C 373.121094 197.445312 374.007812 195.152344 374.929688 192.773438 C 374.566406 192.050781 374.253906 191.289062 373.828125 190.59375 Z M 371.292969 197.050781 C 371.191406 197.40625 370.914062 197.546875 370.40625 197.546875 C 368.589844 195.921875 367.953125 197.609375 366.949219 198.816406 C 366.128906 199.808594 363.390625 199.246094 362.652344 198.027344 C 362.148438 197.199219 361.820312 196.398438 360.648438 197.25 C 359.59375 198.011719 358.992188 197.5 358.640625 196.425781 C 358 194.40625 356.527344 192.453125 358.640625 190.371094 C 359.339844 189.699219 359.09375 188.664062 359.046875 187.773438 C 358.847656 183.140625 361.324219 179.734375 364.273438 176.515625 C 364.945312 175.761719 365.542969 175.9375 366.136719 176.597656 C 369.042969 179.835938 371.542969 183.25 371.222656 187.898438 C 371.160156 188.890625 371.03125 189.917969 371.765625 190.714844 C 373.875 193.007812 371.882812 194.972656 371.292969 197.054688 Z M 371.292969 197.050781 " fill-opacity="1" fill-rule="nonzero"/>
  </g>
  <path fill="#cb6ce6" d="M 365.1875 182.714844 C 363.902344 182.714844 363.183594 183.414062 363.183594 184.699219 C 363.167969 184.953125 363.207031 185.199219 363.296875 185.4375 C 363.386719 185.675781 363.523438 185.882812 363.707031 186.0625 C 363.886719 186.242188 364.097656 186.378906 364.335938 186.46875 C 364.578125 186.558594 364.824219 186.597656 365.082031 186.582031 C 366.304688 186.605469 367.160156 185.902344 367.121094 184.597656 C 367.089844 183.46875 366.449219 182.792969 365.1875 182.714844 Z M 365.1875 182.714844 " fill-opacity="1" fill-rule="nonzero"/>
</svg>