<svg xmlns="http://www.w3.org/2000/svg" xmlns:xlink="http://www.w3.org/1999/xlink" width="2048" zoomAndPan="magnify" viewBox="0 0 1536 863.999991" height="1152" preserveAspectRatio="xMidYMid meet" version="1.0"><defs><filter x="0%" y="0%" width="100%" height="100%" id="id1"><feColorMatrix values="0 0 0 0 1 0 0 0 0 1 0 0 0 0 1 0 0 0 1 0" color-interpolation-filters="sRGB"/></filter><g/><clipPath id="id2"><path d="M 587 145 L 949 145 L 949 579 L 587 579 Z M 587 145 " clip-rule="nonzero"/></clipPath><clipPath id="id3"><path d="M 741.242188 100.96875 L 992.917969 497.316406 L 794.742188 623.152344 L 543.066406 226.808594 Z M 741.242188 100.96875 " clip-rule="nonzero"/></clipPath><clipPath id="id4"><path d="M 992.921875 497.324219 L 741.246094 100.980469 L 543.074219 226.816406 L 794.75 623.164062 Z M 992.921875 497.324219 " clip-rule="nonzero"/></clipPath><mask id="id5"><g filter="url(#id1)"><rect x="-153.6" width="1843.2" fill="#000000" y="-86.399999" height="1036.79999" fill-opacity="0.698"/></g></mask><clipPath id="id6"><path d="M 14 12 L 118 12 L 118 123 L 14 123 Z M 14 12 " clip-rule="nonzero"/></clipPath><clipPath id="id7"><path d="M -2.269531 38.007812 L 100.628906 0.5625 L 135.769531 97.117188 L 32.871094 134.5625 Z M -2.269531 38.007812 " clip-rule="nonzero"/></clipPath><clipPath id="id8"><path d="M -2.269531 38.007812 L 100.628906 0.5625 L 135.769531 97.117188 L 32.871094 134.5625 Z M -2.269531 38.007812 " clip-rule="nonzero"/></clipPath><clipPath id="id9"><rect x="0" width="136" y="0" height="133"/></clipPath><mask id="id10"><g filter="url(#id1)"><rect x="-153.6" width="1843.2" fill="#000000" y="-86.399999" height="1036.79999" fill-opacity="0.698"/></g></mask><clipPath id="id11"><path d="M 20 13 L 122 13 L 122 127 L 20 127 Z M 20 13 " clip-rule="nonzero"/></clipPath><clipPath id="id12"><path d="M 36.429688 -0.285156 L 137.71875 41.3125 L 98.683594 136.359375 L -2.605469 94.761719 Z M 36.429688 -0.285156 " clip-rule="nonzero"/></clipPath><clipPath id="id13"><path d="M 36.429688 -0.285156 L 137.71875 41.3125 L 98.683594 136.359375 L -2.605469 94.761719 Z M 36.429688 -0.285156 " clip-rule="nonzero"/></clipPath><clipPath id="id14"><rect x="0" width="138" y="0" height="136"/></clipPath><mask id="id15"><g filter="url(#id1)"><rect x="-153.6" width="1843.2" fill="#000000" y="-86.399999" height="1036.79999" fill-opacity="0.698"/></g></mask><clipPath id="id16"><rect x="0" width="312" y="0" height="161"/></clipPath></defs><g clip-path="url(#id2)"><g clip-path="url(#id3)"><g clip-path="url(#id4)"><path fill="#cb6ce6" d="M 804.167969 200.070312 C 826.230469 234.8125 824.839844 269.738281 814.636719 303.304688 C 800.367188 302.726562 786.519531 302.921875 773.480469 303.230469 C 784.433594 274.054688 787.621094 247 771.136719 221.042969 C 748.007812 184.613281 699.566406 173.796875 663.136719 196.929688 C 626.707031 220.066406 615.890625 268.503906 639.023438 304.933594 C 664.546875 345.128906 712.253906 343.914062 767.515625 342.519531 C 826.15625 341.039062 892.609375 339.347656 930 398.234375 C 964.699219 452.882812 948.480469 525.539062 893.832031 560.238281 C 839.1875 594.9375 766.527344 578.71875 731.828125 524.074219 C 709.765625 489.328125 711.15625 454.40625 721.347656 420.820312 C 735.617188 421.398438 749.46875 421.203125 762.503906 420.894531 C 751.574219 450.105469 748.375 477.140625 764.859375 503.101562 C 787.992188 539.53125 836.429688 550.34375 872.859375 527.210938 C 909.292969 504.078125 920.105469 455.640625 896.972656 419.210938 C 871.449219 379.015625 823.742188 380.226562 768.480469 381.625 C 709.839844 383.105469 643.386719 384.796875 605.996094 325.90625 C 571.296875 271.261719 587.515625 198.601562 642.164062 163.902344 C 696.808594 129.203125 769.46875 145.421875 804.167969 200.070312 Z M 804.167969 200.070312 " fill-opacity="1" fill-rule="nonzero"/></g></g></g><g mask="url(#id5)"><g transform="matrix(1, 0, 0, 1, 637, 193)"><g clip-path="url(#id9)"><g clip-path="url(#id6)"><g clip-path="url(#id7)"><g clip-path="url(#id8)"><path fill="#ffffff" d="M 67.363281 12.777344 C 67.152344 12.855469 66.941406 12.941406 66.734375 13.039062 C 58.75 17.597656 57.324219 28.257812 59.519531 36.402344 C 61.136719 43.929688 67.664062 51.984375 76.164062 50.710938 C 77.390625 50.511719 78.546875 49.976562 79.558594 49.265625 C 87.929688 42.621094 88.109375 29.847656 83.351562 21.054688 C 80.765625 15.195312 73.835938 10.324219 67.363281 12.773438 Z M 31.390625 26.300781 C 26.140625 28.359375 23.960938 35.199219 24.949219 40.527344 C 26.800781 51.117188 35.847656 61.820312 47.414062 61.175781 C 48.46875 61.03125 49.484375 60.683594 50.417969 60.175781 C 57.035156 56.445312 57.160156 47.503906 54.558594 41.273438 C 51.304688 32.988281 43.417969 24.90625 33.828125 25.734375 C 32.953125 25.8125 32.140625 26.007812 31.390625 26.300781 Z M 100.859375 33.011719 C 91.898438 36.894531 88.925781 48.269531 91.117188 57.082031 C 92.132812 63.644531 98.394531 70.640625 105.597656 68.570312 C 115.347656 64.886719 118.242188 52.046875 115.261719 42.992188 C 113.726562 36.84375 107.601562 30.929688 100.859375 33.011719 Z M 21.402344 64.214844 C 17.492188 65.601562 14.503906 69.316406 14.664062 73.71875 C 15.101562 85.496094 26.785156 96.363281 38.816406 94.492188 C 43.792969 93.582031 46.605469 88.507812 46.203125 83.78125 C 45.3125 73.675781 36.367188 64.824219 26.289062 63.761719 C 24.609375 63.492188 22.933594 63.675781 21.40625 64.214844 Z M 69.355469 68.167969 C 61.71875 70.964844 55.359375 77.644531 52.503906 85.183594 C 49.59375 93.820312 48.046875 103.199219 49.40625 112.265625 C 49.539062 119.097656 56.800781 124.375 63.347656 122.042969 C 71.289062 119.398438 76.089844 111.574219 83.761719 108.328125 C 90.027344 104.910156 97.210938 106.179688 103.992188 106.253906 C 109.851562 106.566406 116.566406 103.1875 117.179688 96.8125 C 117.203125 90.53125 112.054688 85.722656 107.78125 81.707031 C 99.804688 75.574219 91.320312 69.160156 81.195312 67.203125 C 77.117188 66.363281 73.082031 66.800781 69.355469 68.167969 Z M 69.355469 68.167969 " fill-opacity="1" fill-rule="nonzero"/></g></g></g></g></g></g><g mask="url(#id10)"><g transform="matrix(1, 0, 0, 1, 766, 391)"><g clip-path="url(#id14)"><g clip-path="url(#id11)"><g clip-path="url(#id12)"><g clip-path="url(#id13)"><path fill="#ffffff" d="M 104.898438 27.945312 C 104.691406 27.859375 104.476562 27.785156 104.257812 27.714844 C 95.285156 25.710938 87.054688 32.632812 83.191406 40.132812 C 79.320312 46.785156 78.722656 57.136719 85.863281 61.917969 C 86.902344 62.59375 88.117188 62.980469 89.34375 63.132812 C 100.007812 63.859375 108.742188 54.535156 111.144531 44.828125 C 113.179688 38.757812 111.335938 30.492188 104.898438 27.941406 Z M 69.199219 13.722656 C 63.933594 11.707031 57.710938 15.296875 54.855469 19.902344 C 49.09375 28.976562 48.574219 42.984375 57.5625 50.296875 C 58.4375 50.898438 59.421875 51.328125 60.457031 51.578125 C 67.859375 53.273438 73.972656 46.75 76.246094 40.390625 C 79.417969 32.074219 79.027344 20.789062 71.378906 14.941406 C 70.679688 14.414062 69.949219 14.011719 69.199219 13.722656 Z M 116.039062 65.460938 C 106.800781 62.292969 96.941406 68.703125 92.628906 76.695312 C 88.960938 82.234375 88.882812 91.621094 95.597656 94.941406 C 105.289062 98.78125 116.074219 91.238281 119.96875 82.535156 C 122.972656 76.957031 122.425781 68.460938 116.039062 65.460938 Z M 36.285156 35.027344 C 32.460938 33.417969 27.75 34.15625 24.902344 37.519531 C 17.296875 46.519531 18.617188 62.417969 28.773438 69.136719 C 33.0625 71.816406 38.5625 69.957031 41.445312 66.191406 C 47.589844 58.121094 46.933594 45.554688 40.199219 37.980469 C 39.144531 36.652344 37.78125 35.660156 36.285156 35.03125 Z M 69.074219 70.238281 C 61.546875 67.164062 52.347656 67.820312 45.15625 71.472656 C 37.191406 75.894531 29.734375 81.789062 24.636719 89.410156 C 20.128906 94.550781 21.945312 103.339844 28.359375 106.023438 C 36.007812 109.414062 44.828125 106.863281 52.683594 109.632812 C 59.617188 111.320312 64.074219 117.097656 69.035156 121.71875 C 73.160156 125.894531 80.398438 127.917969 85.144531 123.617188 C 89.390625 118.992188 88.824219 111.96875 88.367188 106.121094 C 86.601562 96.214844 84.648438 85.761719 78.480469 77.5 C 76.027344 74.128906 72.753906 71.738281 69.074219 70.238281 Z M 69.074219 70.238281 " fill-opacity="1" fill-rule="nonzero"/></g></g></g></g></g></g><g mask="url(#id15)"><g transform="matrix(1, 0, 0, 1, 1086, 621)"><g clip-path="url(#id16)"><g fill="#ffffff" fill-opacity="1"><g transform="translate(0.950811, 127.02502)"><g><path d="M 15.46875 -91 L 52.53125 -91 C 62.144531 -91 70.632812 -89.070312 78 -85.21875 C 85.375 -81.363281 91.097656 -75.988281 95.171875 -69.09375 C 99.242188 -62.207031 101.28125 -54.34375 101.28125 -45.5 C 101.28125 -36.65625 99.242188 -28.785156 95.171875 -21.890625 C 91.097656 -15.003906 85.375 -9.632812 78 -5.78125 C 70.632812 -1.925781 62.144531 0 52.53125 0 L 15.46875 0 Z M 52 -8.3125 C 59.976562 -8.3125 66.957031 -9.894531 72.9375 -13.0625 C 78.914062 -16.226562 83.550781 -20.601562 86.84375 -26.1875 C 90.132812 -31.78125 91.78125 -38.21875 91.78125 -45.5 C 91.78125 -52.78125 90.132812 -59.210938 86.84375 -64.796875 C 83.550781 -70.390625 78.914062 -74.769531 72.9375 -77.9375 C 66.957031 -81.101562 59.976562 -82.6875 52 -82.6875 L 25.09375 -82.6875 L 25.09375 -8.3125 Z M 1.6875 -50.1875 L 52.125 -50.1875 L 52.125 -42.515625 L 1.6875 -42.515625 Z M 1.6875 -50.1875 "/></g></g></g><g fill="#ffffff" fill-opacity="1"><g transform="translate(108.977585, 127.02502)"><g><path d="M 71.890625 -24.3125 L 21.1875 -24.3125 L 10.265625 0 L 0.265625 0 L 41.859375 -91 L 51.34375 -91 L 92.953125 0 L 82.8125 0 Z M 68.375 -32.109375 L 46.546875 -80.984375 L 24.703125 -32.109375 Z M 68.375 -32.109375 "/></g></g></g><g fill="#ffffff" fill-opacity="1"><g transform="translate(202.184809, 127.02502)"><g><path d="M 54.59375 0.78125 C 45.582031 0.78125 37.414062 -1.234375 30.09375 -5.265625 C 22.769531 -9.296875 17.050781 -14.820312 12.9375 -21.84375 C 8.820312 -28.863281 6.765625 -36.75 6.765625 -45.5 C 6.765625 -54.25 8.820312 -62.132812 12.9375 -69.15625 C 17.050781 -76.175781 22.769531 -81.703125 30.09375 -85.734375 C 37.414062 -89.765625 45.582031 -91.78125 54.59375 -91.78125 C 63.613281 -91.78125 71.738281 -89.785156 78.96875 -85.796875 C 86.207031 -81.804688 91.90625 -76.28125 96.0625 -69.21875 C 100.226562 -62.15625 102.3125 -54.25 102.3125 -45.5 C 102.3125 -36.75 100.226562 -28.84375 96.0625 -21.78125 C 91.90625 -14.71875 86.207031 -9.191406 78.96875 -5.203125 C 71.738281 -1.210938 63.613281 0.78125 54.59375 0.78125 Z M 54.59375 -7.796875 C 61.789062 -7.796875 68.289062 -9.421875 74.09375 -12.671875 C 79.90625 -15.921875 84.457031 -20.425781 87.75 -26.1875 C 91.039062 -31.957031 92.6875 -38.394531 92.6875 -45.5 C 92.6875 -52.601562 91.039062 -59.035156 87.75 -64.796875 C 84.457031 -70.566406 79.90625 -75.078125 74.09375 -78.328125 C 68.289062 -81.578125 61.789062 -83.203125 54.59375 -83.203125 C 47.40625 -83.203125 40.882812 -81.578125 35.03125 -78.328125 C 29.1875 -75.078125 24.59375 -70.566406 21.25 -64.796875 C 17.914062 -59.035156 16.25 -52.601562 16.25 -45.5 C 16.25 -38.394531 17.914062 -31.957031 21.25 -26.1875 C 24.59375 -20.425781 29.1875 -15.921875 35.03125 -12.671875 C 40.882812 -9.421875 47.40625 -7.796875 54.59375 -7.796875 Z M 54.59375 -7.796875 "/></g></g></g></g></g></g><g fill="#ffffff" fill-opacity="1"><g transform="translate(256.511392, 752.774981)"><g><path d="M 52.265625 -91 C 65.523438 -91 76.007812 -87.679688 83.71875 -81.046875 C 91.4375 -74.421875 95.296875 -64.957031 95.296875 -52.65625 L 67.859375 -52.65625 C 67.859375 -57.851562 66.492188 -61.96875 63.765625 -65 C 61.035156 -68.03125 57.15625 -69.546875 52.125 -69.546875 C 46.320312 -69.546875 42.054688 -67.722656 39.328125 -64.078125 C 36.597656 -60.441406 35.234375 -55.375 35.234375 -48.875 L 35.234375 -40.5625 C 35.234375 -34.144531 36.597656 -29.09375 39.328125 -25.40625 C 42.054688 -21.726562 46.238281 -19.890625 51.875 -19.890625 C 57.414062 -19.890625 61.613281 -21.316406 64.46875 -24.171875 C 67.332031 -27.035156 68.765625 -31.066406 68.765625 -36.265625 L 95.296875 -36.265625 C 95.296875 -24.046875 91.546875 -14.6875 84.046875 -8.1875 C 76.546875 -1.6875 65.953125 1.5625 52.265625 1.5625 C 37.003906 1.5625 25.453125 -2.335938 17.609375 -10.140625 C 9.765625 -17.941406 5.84375 -29.46875 5.84375 -44.71875 C 5.84375 -59.96875 9.765625 -71.492188 17.609375 -79.296875 C 25.453125 -87.097656 37.003906 -91 52.265625 -91 Z M 52.265625 -91 "/></g></g></g><g fill="#ffffff" fill-opacity="1"><g transform="translate(357.648365, 752.774981)"><g><path d="M 69.9375 0 L 69.9375 -33.9375 L 38.34375 -33.9375 L 38.34375 0 L 9.625 0 L 9.625 -89.4375 L 38.34375 -89.4375 L 38.34375 -56.8125 L 69.9375 -56.8125 L 69.9375 -89.4375 L 98.671875 -89.4375 L 98.671875 0 Z M 69.9375 0 "/></g></g></g><g fill="#ffffff" fill-opacity="1"><g transform="translate(465.935125, 752.774981)"><g><path d="M 73.578125 0 L 36.015625 -43.421875 L 36.015625 0 L 9.625 0 L 9.625 -89.4375 L 34.703125 -89.4375 L 72.28125 -45.375 L 72.28125 -89.4375 L 98.671875 -89.4375 L 98.671875 0 Z M 73.578125 0 "/></g></g></g><g fill="#ffffff" fill-opacity="1"><g transform="translate(574.221886, 752.774981)"><g><path d="M 54.078125 -91 C 69.503906 -91 81.421875 -87.054688 89.828125 -79.171875 C 98.234375 -71.285156 102.4375 -59.800781 102.4375 -44.71875 C 102.4375 -29.632812 98.234375 -18.148438 89.828125 -10.265625 C 81.421875 -2.378906 69.503906 1.5625 54.078125 1.5625 C 38.648438 1.5625 26.753906 -2.359375 18.390625 -10.203125 C 10.023438 -18.046875 5.84375 -29.550781 5.84375 -44.71875 C 5.84375 -59.882812 10.023438 -71.390625 18.390625 -79.234375 C 26.753906 -87.078125 38.648438 -91 54.078125 -91 Z M 54.078125 -69.546875 C 47.921875 -69.546875 43.238281 -67.679688 40.03125 -63.953125 C 36.832031 -60.234375 35.234375 -55.207031 35.234375 -48.875 L 35.234375 -40.5625 C 35.234375 -34.226562 36.832031 -29.195312 40.03125 -25.46875 C 43.238281 -21.75 47.921875 -19.890625 54.078125 -19.890625 C 60.234375 -19.890625 64.9375 -21.75 68.1875 -25.46875 C 71.4375 -29.195312 73.0625 -34.226562 73.0625 -40.5625 L 73.0625 -48.875 C 73.0625 -55.207031 71.4375 -60.234375 68.1875 -63.953125 C 64.9375 -67.679688 60.234375 -69.546875 54.078125 -69.546875 Z M 54.078125 -69.546875 "/></g></g></g><g fill="#ffffff" fill-opacity="1"><g transform="translate(682.508624, 752.774981)"><g><path d="M 54.078125 -91 C 69.503906 -91 81.421875 -87.054688 89.828125 -79.171875 C 98.234375 -71.285156 102.4375 -59.800781 102.4375 -44.71875 C 102.4375 -29.632812 98.234375 -18.148438 89.828125 -10.265625 C 81.421875 -2.378906 69.503906 1.5625 54.078125 1.5625 C 38.648438 1.5625 26.753906 -2.359375 18.390625 -10.203125 C 10.023438 -18.046875 5.84375 -29.550781 5.84375 -44.71875 C 5.84375 -59.882812 10.023438 -71.390625 18.390625 -79.234375 C 26.753906 -87.078125 38.648438 -91 54.078125 -91 Z M 54.078125 -69.546875 C 47.921875 -69.546875 43.238281 -67.679688 40.03125 -63.953125 C 36.832031 -60.234375 35.234375 -55.207031 35.234375 -48.875 L 35.234375 -40.5625 C 35.234375 -34.226562 36.832031 -29.195312 40.03125 -25.46875 C 43.238281 -21.75 47.921875 -19.890625 54.078125 -19.890625 C 60.234375 -19.890625 64.9375 -21.75 68.1875 -25.46875 C 71.4375 -29.195312 73.0625 -34.226562 73.0625 -40.5625 L 73.0625 -48.875 C 73.0625 -55.207031 71.4375 -60.234375 68.1875 -63.953125 C 64.9375 -67.679688 60.234375 -69.546875 54.078125 -69.546875 Z M 54.078125 -69.546875 "/></g></g></g><g fill="#ffffff" fill-opacity="1"><g transform="translate(790.795361, 752.774981)"><g><path d="M 48.359375 -89.4375 C 79.648438 -89.4375 95.296875 -74.53125 95.296875 -44.71875 C 95.296875 -14.90625 79.648438 0 48.359375 0 L 9.625 0 L 9.625 -89.4375 Z M 38.34375 -21.453125 L 47.84375 -21.453125 C 59.882812 -21.453125 65.90625 -27.90625 65.90625 -40.8125 L 65.90625 -48.625 C 65.90625 -61.53125 59.882812 -67.984375 47.84375 -67.984375 L 38.34375 -67.984375 Z M 38.34375 -21.453125 "/></g></g></g><g fill="#ffffff" fill-opacity="1"><g transform="translate(891.932334, 752.774981)"><g><path d="M 9.625 -89.4375 L 38.34375 -89.4375 L 38.34375 -22.875 L 84.234375 -22.875 L 84.234375 0 L 9.625 0 Z M 9.625 -89.4375 "/></g></g></g><g fill="#ffffff" fill-opacity="1"><g transform="translate(978.639726, 752.774981)"><g><path d="M 9.625 -89.4375 L 86.96875 -89.4375 L 86.96875 -67.984375 L 38.34375 -67.984375 L 38.34375 -55.640625 L 79.953125 -55.640625 L 79.953125 -35.09375 L 38.34375 -35.09375 L 38.34375 -21.453125 L 87.875 -21.453125 L 87.875 0 L 9.625 0 Z M 9.625 -89.4375 "/></g></g></g><g fill="#ffffff" fill-opacity="1"><g transform="translate(148.206708, 751.775021)"><g><path d="M 54.453125 -105 C 67.648438 -105 78.5 -102.320312 87 -96.96875 C 95.5 -91.625 99.847656 -83.703125 100.046875 -73.203125 L 100.046875 -71.40625 L 69 -71.40625 L 69 -72 C 69 -75 67.898438 -77.5 65.703125 -79.5 C 63.503906 -81.5 60.15625 -82.5 55.65625 -82.5 C 51.25 -82.5 47.867188 -81.847656 45.515625 -80.546875 C 43.171875 -79.242188 42 -77.644531 42 -75.75 C 42 -73.050781 43.597656 -71.050781 46.796875 -69.75 C 49.992188 -68.445312 55.144531 -67.097656 62.25 -65.703125 C 70.550781 -64.003906 77.375 -62.226562 82.71875 -60.375 C 88.070312 -58.519531 92.75 -55.492188 96.75 -51.296875 C 100.75 -47.097656 102.800781 -41.398438 102.90625 -34.203125 C 102.90625 -22.003906 98.78125 -12.953125 90.53125 -7.046875 C 82.28125 -1.148438 71.253906 1.796875 57.453125 1.796875 C 41.347656 1.796875 28.820312 -0.898438 19.875 -6.296875 C 10.925781 -11.703125 6.453125 -21.253906 6.453125 -34.953125 L 37.796875 -34.953125 C 37.796875 -29.753906 39.144531 -26.28125 41.84375 -24.53125 C 44.550781 -22.78125 48.753906 -21.90625 54.453125 -21.90625 C 58.648438 -21.90625 62.125 -22.351562 64.875 -23.25 C 67.625 -24.144531 69 -25.992188 69 -28.796875 C 69 -31.296875 67.472656 -33.171875 64.421875 -34.421875 C 61.367188 -35.671875 56.394531 -37 49.5 -38.40625 C 41.101562 -40.195312 34.15625 -42.066406 28.65625 -44.015625 C 23.15625 -45.972656 18.351562 -49.203125 14.25 -53.703125 C 10.144531 -58.203125 8.09375 -64.300781 8.09375 -72 C 8.09375 -83.300781 12.46875 -91.625 21.21875 -96.96875 C 29.96875 -102.320312 41.046875 -105 54.453125 -105 Z M 54.453125 -105 "/></g></g></g></svg>