<?xml version="1.0" encoding="utf-8"?>
<svg width="500" zoomAndPan="magnify" viewBox="0 0 375 374.999991" height="500" preserveAspectRatio="xMidYMid meet" version="1.0" xmlns="http://www.w3.org/2000/svg">
  <defs>
    <filter x="0%" y="0%" width="100%" height="100%" id="id1">
      <feColorMatrix values="0 0 0 0 1 0 0 0 0 1 0 0 0 0 1 0 0 0 1 0" color-interpolation-filters="sRGB"/>
    </filter>
    <mask id="id2">
      <g filter="url(#id1)">
        <rect x="-37.5" width="450" fill="#000000" y="-37.499999" height="449.999989" fill-opacity="0.698"/>
      </g>
    </mask>
    <clipPath id="id3">
      <path d="M 1 0.480469 L 22 0.480469 L 22 23.28125 L 1 23.28125 Z M 1 0.480469 " clip-rule="nonzero"/>
    </clipPath>
    <clipPath id="id4">
      <path d="M -2.453125 5.808594 L 18.5 -1.800781 L 25.660156 17.824219 L 4.707031 25.4375 Z M -2.453125 5.808594 " clip-rule="nonzero"/>
    </clipPath>
    <clipPath id="id5">
      <path d="M -2.503906 5.882812 L 18.449219 -1.726562 L 25.609375 17.902344 L 4.65625 25.511719 Z M -2.503906 5.882812 " clip-rule="nonzero"/>
    </clipPath>
    <clipPath id="id6">
      <rect x="0" width="23" y="0" height="24"/>
    </clipPath>
    <mask id="id7">
      <g filter="url(#id1)">
        <rect x="-37.5" width="450" fill="#000000" y="-37.499999" height="449.999989" fill-opacity="0.698"/>
      </g>
    </mask>
    <clipPath id="id8">
      <path d="M 0.199219 1 L 21.320312 1 L 21.320312 24 L 0.199219 24 Z M 0.199219 1 " clip-rule="nonzero"/>
    </clipPath>
    <clipPath id="id9">
      <path d="M -4.253906 17.574219 L 3.691406 -1.726562 L 24.316406 6.726562 L 16.371094 26.027344 Z M -4.253906 17.574219 " clip-rule="nonzero"/>
    </clipPath>
    <clipPath id="id10">
      <path d="M -4.253906 17.574219 L 3.691406 -1.726562 L 24.316406 6.726562 L 16.371094 26.027344 Z M -4.253906 17.574219 " clip-rule="nonzero"/>
    </clipPath>
    <clipPath id="id11">
      <rect x="0" width="22" y="0" height="25"/>
    </clipPath>
  </defs>
  <path fill="#c9c9c9" d="M 281.082031 232.636719 L 272.605469 251.210938 L 274.644531 251.210938 L 276.863281 246.253906 L 287.207031 246.253906 L 289.421875 251.214844 L 291.488281 251.214844 L 283.011719 232.640625 Z M 277.566406 244.65625 L 282.027344 234.667969 L 286.488281 244.65625 Z M 277.566406 244.65625 " fill-opacity="1" fill-rule="nonzero"/>
  <path fill="#c9c9c9" d="M 311.652344 238.15625 C 311.175781 237.015625 310.496094 236.015625 309.613281 235.15625 C 308.71875 234.289062 307.6875 233.632812 306.527344 233.179688 C 305.277344 232.710938 303.984375 232.476562 302.648438 232.476562 C 301.3125 232.476562 300.019531 232.710938 298.769531 233.179688 C 297.613281 233.628906 296.59375 234.289062 295.703125 235.152344 C 294.8125 236.019531 294.128906 237.023438 293.648438 238.167969 C 293.160156 239.371094 292.917969 240.625 292.917969 241.921875 C 292.917969 243.222656 293.160156 244.472656 293.648438 245.675781 C 294.128906 246.824219 294.816406 247.828125 295.707031 248.695312 C 296.597656 249.5625 297.625 250.21875 298.785156 250.664062 C 300.027344 251.144531 301.320312 251.378906 302.652344 251.367188 C 303.988281 251.382812 305.28125 251.148438 306.523438 250.664062 C 307.6875 250.214844 308.714844 249.554688 309.609375 248.6875 C 310.492188 247.828125 311.171875 246.828125 311.648438 245.691406 C 312.132812 244.480469 312.375 243.226562 312.375 241.921875 C 312.375 240.621094 312.132812 239.363281 311.648438 238.15625 Z M 309.835938 244.988281 C 309.457031 245.910156 308.914062 246.726562 308.207031 247.4375 C 307.496094 248.144531 306.675781 248.683594 305.746094 249.054688 C 304.753906 249.445312 303.722656 249.636719 302.65625 249.625 C 301.589844 249.636719 300.554688 249.445312 299.558594 249.054688 C 298.621094 248.6875 297.796875 248.148438 297.085938 247.4375 C 296.378906 246.726562 295.832031 245.910156 295.441406 244.988281 C 295.140625 244.273438 294.945312 243.53125 294.863281 242.757812 C 294.78125 241.984375 294.8125 241.21875 294.960938 240.457031 C 295.105469 239.695312 295.359375 238.96875 295.722656 238.285156 C 296.085938 237.597656 296.539062 236.980469 297.085938 236.429688 C 297.796875 235.71875 298.625 235.179688 299.558594 234.808594 C 300.554688 234.421875 301.589844 234.230469 302.65625 234.242188 C 303.722656 234.230469 304.753906 234.421875 305.746094 234.808594 C 306.675781 235.179688 307.496094 235.71875 308.207031 236.429688 C 308.914062 237.136719 309.457031 237.953125 309.835938 238.878906 C 310.222656 239.863281 310.417969 240.882812 310.417969 241.9375 C 310.417969 242.996094 310.222656 244.015625 309.835938 245 Z M 309.835938 244.988281 " fill-opacity="1" fill-rule="nonzero"/>
  <path d="M 91.035156 238.027344 C 91.589844 237.285156 92.457031 236.914062 93.640625 236.914062 C 94.664062 236.914062 95.457031 237.222656 96.011719 237.839844 C 96.566406 238.460938 96.84375 239.300781 96.84375 240.363281 L 102.433594 240.363281 C 102.433594 237.851562 101.648438 235.917969 100.074219 234.5625 C 98.503906 233.210938 96.367188 232.53125 93.667969 232.535156 C 90.5625 232.535156 88.210938 233.332031 86.609375 234.921875 C 85.011719 236.515625 84.214844 238.867188 84.214844 241.980469 C 84.214844 245.09375 85.011719 247.445312 86.609375 249.039062 C 88.210938 250.628906 90.5625 251.425781 93.667969 251.425781 C 96.457031 251.425781 98.613281 250.761719 100.144531 249.4375 C 101.671875 248.109375 102.433594 246.199219 102.433594 243.703125 L 97.03125 243.703125 C 97.03125 244.765625 96.738281 245.589844 96.15625 246.171875 C 95.574219 246.757812 94.71875 247.046875 93.585938 247.046875 C 92.441406 247.046875 91.589844 246.671875 91.035156 245.917969 C 90.476562 245.167969 90.199219 244.136719 90.199219 242.828125 L 90.199219 241.132812 C 90.199219 239.804688 90.476562 238.769531 91.035156 238.027344 Z M 91.035156 238.027344 " fill-opacity="1" fill-rule="nonzero" style="fill: rgb(12, 23, 69);"/>
  <path d="M 117.871094 239.511719 L 111.4375 239.511719 L 111.4375 232.851562 L 105.582031 232.851562 L 105.582031 251.109375 L 111.4375 251.109375 L 111.4375 244.183594 L 117.871094 244.183594 L 117.871094 251.109375 L 123.722656 251.109375 L 123.722656 232.851562 L 117.871094 232.851562 Z M 117.871094 239.511719 " fill-opacity="1" fill-rule="nonzero" style="fill: rgb(12, 23, 69);"/>
  <path d="M 140.402344 241.847656 L 132.75 232.851562 L 127.640625 232.851562 L 127.640625 251.109375 L 133.015625 251.109375 L 133.015625 242.246094 L 140.667969 251.109375 L 145.777344 251.109375 L 145.777344 232.851562 L 140.402344 232.851562 Z M 140.402344 241.847656 " fill-opacity="1" fill-rule="nonzero" style="fill: rgb(12, 23, 69);"/>
  <path d="M 166.035156 234.949219 C 164.324219 233.339844 161.894531 232.535156 158.753906 232.535156 C 155.613281 232.535156 153.191406 233.335938 151.488281 234.933594 C 149.78125 236.539062 148.929688 238.886719 148.929688 241.980469 C 148.929688 245.074219 149.785156 247.421875 151.488281 249.023438 C 153.1875 250.625 155.613281 251.425781 158.753906 251.425781 C 161.898438 251.425781 164.324219 250.621094 166.035156 249.011719 C 167.75 247.398438 168.605469 245.058594 168.605469 241.980469 C 168.605469 238.902344 167.746094 236.558594 166.035156 234.949219 Z M 162.621094 242.828125 C 162.621094 244.121094 162.289062 245.144531 161.628906 245.90625 C 160.96875 246.667969 160.007812 247.046875 158.753906 247.046875 C 157.503906 247.046875 156.550781 246.667969 155.902344 245.90625 C 155.253906 245.144531 154.925781 244.121094 154.921875 242.828125 L 154.921875 241.132812 C 154.921875 239.839844 155.25 238.8125 155.902344 238.054688 C 156.554688 237.292969 157.507812 236.914062 158.753906 236.914062 C 160.007812 236.914062 160.964844 237.292969 161.628906 238.054688 C 162.292969 238.8125 162.625 239.839844 162.621094 241.132812 Z M 162.621094 242.828125 " fill-opacity="1" fill-rule="nonzero" style="fill: rgb(12, 23, 69);"/>
  <path d="M 188.09375 234.949219 C 186.382812 233.339844 183.953125 232.535156 180.808594 232.535156 C 177.664062 232.535156 175.242188 233.335938 173.539062 234.933594 C 171.835938 236.539062 170.984375 238.886719 170.984375 241.980469 C 170.984375 245.074219 171.835938 247.421875 173.539062 249.023438 C 175.242188 250.625 177.667969 251.425781 180.808594 251.425781 C 183.949219 251.425781 186.378906 250.621094 188.089844 249.011719 C 189.800781 247.398438 190.65625 245.058594 190.660156 241.980469 C 190.660156 238.902344 189.804688 236.558594 188.09375 234.949219 Z M 184.679688 242.828125 C 184.679688 244.121094 184.347656 245.144531 183.683594 245.90625 C 183.023438 246.667969 182.0625 247.046875 180.808594 247.046875 C 179.554688 247.046875 178.601562 246.667969 177.957031 245.90625 C 177.308594 245.144531 176.984375 244.121094 176.976562 242.828125 L 176.976562 241.132812 C 176.976562 239.839844 177.304688 238.8125 177.957031 238.054688 C 178.609375 237.292969 179.5625 236.914062 180.808594 236.914062 C 182.0625 236.914062 183.019531 237.292969 183.679688 238.054688 C 184.34375 238.8125 184.675781 239.839844 184.679688 241.132812 Z M 184.679688 242.828125 " fill-opacity="1" fill-rule="nonzero" style="fill: rgb(12, 23, 69);"/>
  <path d="M 201.707031 232.851562 L 193.816406 232.851562 L 193.816406 251.109375 L 201.707031 251.109375 C 208.078125 251.109375 211.261719 248.066406 211.261719 241.980469 C 211.261719 235.894531 208.078125 232.851562 201.707031 232.851562 Z M 205.28125 242.78125 C 205.28125 245.417969 204.054688 246.734375 201.601562 246.734375 L 199.667969 246.734375 L 199.667969 237.230469 L 201.601562 237.230469 C 204.050781 237.230469 205.28125 238.546875 205.28125 241.183594 Z M 205.28125 242.78125 " fill-opacity="1" fill-rule="nonzero" style="fill: rgb(12, 23, 69);"/>
  <path d="M 220.265625 232.851562 L 214.414062 232.851562 L 214.414062 251.109375 L 229.613281 251.109375 L 229.613281 246.4375 L 220.265625 246.4375 Z M 220.265625 232.851562 " fill-opacity="1" fill-rule="nonzero" style="fill: rgb(12, 23, 69);"/>
  <path d="M 237.929688 243.945312 L 246.402344 243.945312 L 246.402344 239.75 L 237.929688 239.75 L 237.929688 237.230469 L 247.832031 237.230469 L 247.832031 232.851562 L 232.078125 232.851562 L 232.078125 251.109375 L 248.019531 251.109375 L 248.019531 246.730469 L 237.929688 246.730469 Z M 237.929688 243.945312 " fill-opacity="1" fill-rule="nonzero" style="fill: rgb(12, 23, 69);"/>
  <path d="M 77.8125 238.578125 C 76.445312 238.128906 75.054688 237.765625 73.640625 237.492188 C 72.570312 237.308594 71.519531 237.027344 70.496094 236.660156 C 69.84375 236.394531 69.515625 235.984375 69.515625 235.433594 C 69.515625 235.046875 69.753906 234.71875 70.234375 234.457031 C 70.710938 234.191406 71.398438 234.054688 72.296875 234.046875 C 73.214844 234.046875 73.894531 234.25 74.335938 234.660156 C 74.796875 235.066406 75.019531 235.574219 75.007812 236.191406 L 75.007812 236.3125 L 81.332031 236.3125 L 81.332031 235.945312 C 81.289062 233.800781 80.40625 232.183594 78.671875 231.089844 C 76.941406 230 74.730469 229.453125 72.042969 229.457031 C 69.3125 229.457031 67.058594 230.003906 65.273438 231.089844 C 63.492188 232.179688 62.601562 233.882812 62.601562 236.195312 C 62.601562 237.765625 63.019531 239.011719 63.855469 239.929688 C 64.664062 240.835938 65.640625 241.496094 66.789062 241.902344 C 68.179688 242.375 69.59375 242.757812 71.035156 243.050781 C 72.070312 243.238281 73.082031 243.507812 74.074219 243.867188 C 74.695312 244.125 75.007812 244.507812 75.007812 245.015625 C 75.019531 245.28125 74.949219 245.523438 74.789062 245.734375 C 74.632812 245.949219 74.421875 246.085938 74.164062 246.148438 C 73.472656 246.351562 72.765625 246.445312 72.042969 246.425781 C 70.882812 246.425781 70.027344 246.246094 69.476562 245.886719 C 68.925781 245.53125 68.65625 244.820312 68.660156 243.761719 L 62.277344 243.761719 C 62.277344 246.558594 63.1875 248.507812 65.007812 249.609375 C 66.832031 250.710938 69.382812 251.261719 72.664062 251.261719 C 75.476562 251.261719 77.71875 250.660156 79.398438 249.457031 C 81.078125 248.253906 81.921875 246.40625 81.921875 243.914062 C 81.902344 242.445312 81.484375 241.28125 80.667969 240.425781 C 79.867188 239.574219 78.914062 238.960938 77.8125 238.578125 Z M 77.8125 238.578125 " fill-opacity="1" fill-rule="nonzero" style="fill: rgb(12, 23, 69);"/>
  <path fill="#c9c9c9" d="M 271.363281 237.105469 C 270.515625 235.667969 269.347656 234.570312 267.863281 233.8125 C 266.367188 233.027344 264.640625 232.636719 262.675781 232.632812 L 255.125 232.632812 L 255.125 240.964844 L 252.316406 240.964844 L 252.316406 242.53125 L 255.125 242.53125 L 255.125 251.210938 L 262.675781 251.210938 C 264.632812 251.210938 266.363281 250.816406 267.863281 250.03125 C 269.347656 249.273438 270.511719 248.175781 271.363281 246.738281 C 271.769531 246.003906 272.078125 245.226562 272.289062 244.410156 C 272.5 243.59375 272.605469 242.765625 272.605469 241.921875 C 272.605469 241.082031 272.5 240.25 272.289062 239.433594 C 272.078125 238.621094 271.769531 237.84375 271.363281 237.105469 Z M 269.664062 245.863281 C 268.976562 247.03125 268.035156 247.921875 266.832031 248.542969 C 265.492188 249.222656 264.070312 249.546875 262.566406 249.511719 L 257.085938 249.511719 L 257.085938 242.53125 L 262.585938 242.53125 L 262.585938 240.964844 L 257.085938 240.964844 L 257.085938 234.332031 L 262.566406 234.332031 C 264.070312 234.296875 265.492188 234.621094 266.832031 235.300781 C 268.035156 235.921875 268.976562 236.816406 269.664062 237.980469 C 269.996094 238.585938 270.246094 239.222656 270.417969 239.890625 C 270.585938 240.554688 270.671875 241.234375 270.671875 241.921875 C 270.671875 242.613281 270.585938 243.289062 270.417969 243.957031 C 270.246094 244.625 269.996094 245.261719 269.664062 245.863281 Z M 269.664062 245.863281 " fill-opacity="1" fill-rule="nonzero"/>
  <path fill="#ad73b1" d="M 179.058594 125.527344 C 183.558594 132.578125 183.273438 139.6875 181.199219 146.496094 C 178.285156 146.375 175.476562 146.414062 172.808594 146.476562 C 175.046875 140.542969 175.679688 135.054688 172.339844 129.773438 C 171.773438 128.902344 171.128906 128.097656 170.402344 127.351562 C 169.679688 126.609375 168.890625 125.941406 168.035156 125.355469 C 167.179688 124.765625 166.273438 124.261719 165.320312 123.851562 C 164.367188 123.4375 163.382812 123.121094 162.367188 122.898438 C 161.351562 122.679688 160.324219 122.558594 159.285156 122.539062 C 158.246094 122.519531 157.214844 122.601562 156.191406 122.78125 C 155.167969 122.960938 154.171875 123.242188 153.203125 123.617188 C 152.234375 123.992188 151.3125 124.457031 150.433594 125.015625 C 149.558594 125.570312 148.742188 126.207031 147.988281 126.921875 C 147.238281 127.636719 146.5625 128.417969 145.960938 129.265625 C 145.363281 130.113281 144.851562 131.007812 144.425781 131.957031 C 144.003906 132.902344 143.675781 133.882812 143.445312 134.894531 C 143.210938 135.902344 143.082031 136.925781 143.050781 137.964844 C 143.019531 139 143.089844 140.03125 143.261719 141.054688 C 143.433594 142.078125 143.699219 143.074219 144.066406 144.042969 C 144.433594 145.011719 144.890625 145.9375 145.4375 146.820312 C 150.632812 154.988281 160.34375 154.746094 171.605469 154.460938 C 183.539062 154.15625 197.082031 153.808594 204.695312 165.777344 C 205.121094 166.4375 205.515625 167.117188 205.875 167.8125 C 206.234375 168.511719 206.558594 169.226562 206.84375 169.957031 C 207.132812 170.6875 207.386719 171.429688 207.601562 172.183594 C 207.816406 172.9375 207.992188 173.699219 208.132812 174.472656 C 208.273438 175.246094 208.375 176.023438 208.4375 176.804688 C 208.5 177.585938 208.523438 178.371094 208.507812 179.15625 C 208.492188 179.9375 208.4375 180.71875 208.347656 181.5 C 208.253906 182.277344 208.125 183.050781 207.957031 183.816406 C 207.785156 184.585938 207.582031 185.339844 207.335938 186.085938 C 207.09375 186.832031 206.816406 187.566406 206.5 188.285156 C 206.183594 189.003906 205.832031 189.703125 205.445312 190.386719 C 205.0625 191.070312 204.644531 191.734375 204.191406 192.378906 C 203.742188 193.019531 203.261719 193.640625 202.75 194.234375 C 202.238281 194.832031 201.695312 195.398438 201.128906 195.941406 C 200.558594 196.484375 199.964844 196.996094 199.347656 197.480469 C 198.726562 197.964844 198.085938 198.417969 197.421875 198.835938 C 196.757812 199.257812 196.078125 199.644531 195.375 200 C 194.671875 200.351562 193.953125 200.667969 193.222656 200.953125 C 192.488281 201.234375 191.742188 201.480469 190.984375 201.691406 C 190.226562 201.898438 189.460938 202.070312 188.683594 202.203125 C 187.910156 202.339844 187.128906 202.433594 186.347656 202.492188 C 185.5625 202.546875 184.777344 202.566406 183.992188 202.546875 C 183.203125 202.527344 182.421875 202.46875 181.640625 202.371094 C 180.859375 202.273438 180.085938 202.136719 179.320312 201.964844 C 178.554688 201.789062 177.796875 201.578125 177.050781 201.332031 C 176.304688 201.082031 175.574219 200.796875 174.855469 200.476562 C 174.136719 200.15625 173.4375 199.804688 172.753906 199.414062 C 172.070312 199.023438 171.410156 198.601562 170.769531 198.148438 C 170.128906 197.695312 169.511719 197.210938 168.917969 196.695312 C 168.324219 196.179688 167.757812 195.636719 167.21875 195.066406 C 166.679688 194.496094 166.167969 193.898438 165.6875 193.277344 C 165.207031 192.65625 164.757812 192.015625 164.34375 191.347656 C 159.84375 184.296875 160.128906 177.1875 162.203125 170.359375 C 165.117188 170.480469 167.925781 170.441406 170.59375 170.378906 C 168.375 176.3125 167.722656 181.800781 171.082031 187.082031 C 171.359375 187.527344 171.65625 187.957031 171.976562 188.375 C 172.296875 188.789062 172.636719 189.1875 172.996094 189.570312 C 173.355469 189.953125 173.734375 190.316406 174.128906 190.664062 C 174.523438 191.007812 174.933594 191.332031 175.363281 191.636719 C 175.789062 191.941406 176.230469 192.226562 176.6875 192.484375 C 177.144531 192.746094 177.609375 192.984375 178.089844 193.199219 C 178.570312 193.414062 179.058594 193.605469 179.554688 193.773438 C 180.054688 193.9375 180.558594 194.078125 181.070312 194.195312 C 181.582031 194.3125 182.097656 194.40625 182.621094 194.472656 C 183.140625 194.535156 183.664062 194.578125 184.191406 194.589844 C 184.714844 194.605469 185.238281 194.59375 185.761719 194.554688 C 186.289062 194.519531 186.808594 194.453125 187.324219 194.367188 C 187.84375 194.277344 188.355469 194.164062 188.863281 194.023438 C 189.367188 193.882812 189.867188 193.71875 190.355469 193.53125 C 190.847656 193.34375 191.328125 193.128906 191.796875 192.894531 C 192.265625 192.65625 192.722656 192.398438 193.164062 192.117188 C 193.609375 191.835938 194.035156 191.535156 194.449219 191.210938 C 194.863281 190.890625 195.257812 190.546875 195.640625 190.183594 C 196.019531 189.820312 196.378906 189.441406 196.722656 189.042969 C 197.0625 188.644531 197.382812 188.230469 197.683594 187.800781 C 197.984375 187.371094 198.265625 186.929688 198.519531 186.46875 C 198.777344 186.011719 199.011719 185.542969 199.222656 185.0625 C 199.433594 184.585938 199.617188 184.09375 199.78125 183.597656 C 199.941406 183.097656 200.078125 182.59375 200.191406 182.078125 C 200.300781 181.566406 200.390625 181.050781 200.449219 180.53125 C 200.511719 180.007812 200.542969 179.488281 200.554688 178.964844 C 200.5625 178.4375 200.546875 177.914062 200.503906 177.394531 C 200.457031 176.871094 200.390625 176.351562 200.296875 175.835938 C 200.199219 175.320312 200.082031 174.8125 199.9375 174.308594 C 199.792969 173.804688 199.621094 173.308594 199.425781 172.820312 C 199.234375 172.335938 199.015625 171.859375 198.773438 171.390625 C 198.53125 170.925781 198.269531 170.472656 197.984375 170.035156 C 192.789062 161.867188 183.078125 162.109375 171.816406 162.394531 C 159.882812 162.699219 146.339844 163.046875 138.726562 151.078125 C 138.304688 150.417969 137.921875 149.738281 137.570312 149.042969 C 137.214844 148.34375 136.898438 147.632812 136.617188 146.902344 C 136.335938 146.175781 136.089844 145.433594 135.878906 144.679688 C 135.671875 143.929688 135.5 143.167969 135.363281 142.398438 C 135.230469 141.628906 135.132812 140.855469 135.074219 140.078125 C 135.019531 139.296875 135 138.519531 135.015625 137.738281 C 135.035156 136.957031 135.09375 136.179688 135.1875 135.402344 C 135.28125 134.628906 135.414062 133.859375 135.585938 133.097656 C 135.757812 132.335938 135.964844 131.582031 136.207031 130.839844 C 136.453125 130.097656 136.734375 129.371094 137.050781 128.65625 C 137.367188 127.941406 137.71875 127.246094 138.101562 126.566406 C 138.488281 125.886719 138.902344 125.226562 139.355469 124.585938 C 139.804688 123.949219 140.285156 123.332031 140.792969 122.738281 C 141.304688 122.148438 141.84375 121.582031 142.410156 121.042969 C 142.972656 120.503906 143.566406 119.992188 144.183594 119.511719 C 144.796875 119.03125 145.4375 118.578125 146.097656 118.160156 C 157.1875 111.121094 171.992188 114.433594 179.058594 125.527344 Z M 179.058594 125.527344 " fill-opacity="1" fill-rule="nonzero"/>
  <g mask="url(#id2)">
    <g transform="matrix(1, 0, 0, 1, 147, 126)">
      <g clip-path="url(#id6)">
        <g clip-path="url(#id3)">
          <g clip-path="url(#id4)">
            <g clip-path="url(#id5)">
              <path d="M 12.144531 11.941406 C 11.355469 12.253906 10.660156 12.710938 10.0625 13.3125 C 9.464844 13.910156 9.011719 14.605469 8.703125 15.394531 C 8.113281 17.144531 7.785156 19.054688 8.070312 20.902344 C 8.089844 22.285156 9.578125 23.359375 10.902344 22.894531 C 12.511719 22.363281 13.488281 20.757812 15.054688 20.109375 C 16.339844 19.417969 17.804688 19.683594 19.167969 19.683594 C 20.371094 19.742188 21.734375 19.054688 21.855469 17.773438 C 21.855469 16.492188 20.820312 15.515625 19.941406 14.703125 C 18.3125 13.464844 16.582031 12.164062 14.527344 11.757812 C 13.714844 11.578125 12.917969 11.640625 12.144531 11.941406 Z M 2.371094 11.128906 C 1.953125 11.265625 1.621094 11.515625 1.371094 11.871094 C 1.117188 12.226562 0.996094 12.621094 1.003906 13.058594 C 1.085938 15.457031 3.46875 17.652344 5.933594 17.285156 C 6.949219 17.101562 7.519531 16.066406 7.441406 15.109375 C 7.257812 13.058594 5.445312 11.25 3.386719 11.046875 C 3.042969 10.988281 2.703125 11.015625 2.371094 11.128906 Z M 18.5625 4.800781 C 16.730469 5.589844 16.140625 7.90625 16.589844 9.695312 C 16.792969 11.035156 18.074219 12.460938 19.542969 12.03125 C 21.539062 11.28125 22.109375 8.679688 21.515625 6.832031 C 21.164062 5.582031 19.921875 4.394531 18.5625 4.800781 Z M 4.410156 3.4375 C 3.351562 3.863281 2.90625 5.246094 3.109375 6.324219 C 3.496094 8.476562 5.328125 10.652344 7.691406 10.507812 C 7.90625 10.484375 8.113281 10.417969 8.300781 10.304688 C 9.644531 9.554688 9.664062 7.726562 9.136719 6.464844 C 8.464844 4.777344 6.875 3.132812 4.921875 3.316406 C 4.746094 3.332031 4.574219 3.375 4.410156 3.4375 Z M 11.742188 0.695312 L 11.621094 0.753906 C 9.992188 1.691406 9.707031 3.84375 10.152344 5.511719 C 10.480469 7.035156 11.804688 8.679688 13.535156 8.414062 C 13.785156 8.371094 14.015625 8.277344 14.226562 8.132812 C 15.9375 6.789062 15.976562 4.191406 15 2.402344 C 14.472656 1.183594 13.046875 0.207031 11.742188 0.695312 Z M 11.742188 0.695312 " fill-opacity="1" fill-rule="nonzero" style="fill: rgb(12, 23, 69);"/>
            </g>
          </g>
        </g>
      </g>
    </g>
  </g>
  <g mask="url(#id7)">
    <g transform="matrix(1, 0, 0, 1, 175, 166)">
      <g clip-path="url(#id11)">
        <g clip-path="url(#id8)">
          <g clip-path="url(#id9)">
            <g clip-path="url(#id10)">
              <path d="M 10.351562 12.597656 C 8.824219 11.96875 6.949219 12.113281 5.484375 12.84375 C 3.855469 13.738281 2.347656 14.9375 1.308594 16.480469 C 0.394531 17.515625 0.761719 19.304688 2.0625 19.851562 C 3.609375 20.542969 5.421875 20.015625 7.011719 20.585938 C 8.417969 20.929688 9.332031 22.109375 10.351562 23.042969 C 11.1875 23.894531 12.671875 24.300781 13.628906 23.429688 C 14.484375 22.496094 14.382812 21.050781 14.28125 19.875 C 13.914062 17.863281 13.527344 15.726562 12.265625 14.0625 C 11.765625 13.398438 11.125 12.910156 10.351562 12.597656 Z M 3.671875 5.445312 C 3.269531 5.269531 2.855469 5.230469 2.429688 5.324219 C 2 5.417969 1.640625 5.628906 1.351562 5.953125 C -0.195312 7.785156 0.0664062 11.015625 2.144531 12.375 C 3.019531 12.925781 4.140625 12.539062 4.730469 11.785156 C 5.972656 10.140625 5.851562 7.601562 4.488281 6.054688 C 4.265625 5.785156 3.996094 5.582031 3.671875 5.445312 Z M 19.902344 11.625 C 18.027344 10.972656 16.011719 12.273438 15.136719 13.898438 C 14.382812 15.015625 14.382812 16.925781 15.746094 17.597656 C 17.722656 18.371094 19.921875 16.84375 20.714844 15.078125 C 21.328125 13.96875 21.207031 12.234375 19.902344 11.625 Z M 10.371094 1.117188 C 9.292969 0.710938 8.03125 1.445312 7.460938 2.378906 C 6.277344 4.226562 6.175781 7.074219 8.007812 8.554688 C 8.191406 8.671875 8.390625 8.761719 8.601562 8.820312 C 10.105469 9.164062 11.347656 7.84375 11.816406 6.542969 C 12.46875 4.859375 12.386719 2.5625 10.820312 1.382812 C 10.695312 1.25 10.546875 1.164062 10.371094 1.117188 Z M 17.648438 4.015625 C 17.609375 3.992188 17.570312 3.976562 17.527344 3.972656 C 15.691406 3.566406 14.023438 4.96875 13.230469 6.492188 C 12.433594 7.855469 12.3125 9.949219 13.777344 10.921875 C 13.996094 11.066406 14.234375 11.148438 14.492188 11.167969 C 16.671875 11.308594 18.441406 9.417969 18.929688 7.449219 C 19.335938 6.207031 18.949219 4.523438 17.648438 4.015625 Z M 17.648438 4.015625 " fill-opacity="1" fill-rule="nonzero" style="fill: rgb(12, 23, 69);"/>
            </g>
          </g>
        </g>
      </g>
    </g>
  </g>
</svg>