<?xml version="1.0" encoding="utf-8"?>
<svg viewBox="109.91 88.752 164.649 197.56" width="164.649" height="197.56" xmlns="http://www.w3.org/2000/svg">
  <defs>
    <mask id="id2">
      <g filter="url(#id1)">
        <rect x="-37.5" width="450" fill="#000000" y="-37.499999" height="449.999989" fill-opacity="0.698"/>
      </g>
    </mask>
    <filter x="0%" y="0%" width="100%" height="100%" id="id1">
      <feColorMatrix values="0 0 0 0 1 0 0 0 0 1 0 0 0 0 1 0 0 0 1 0" color-interpolation-filters="sRGB"/>
    </filter>
    <clipPath id="id6">
      <rect x="0" width="49" y="0" height="52"/>
    </clipPath>
    <clipPath id="id3">
      <path d="M 1 0.679688 L 48 0.679688 L 48 51.558594 L 1 51.558594 Z M 1 0.679688 " clip-rule="nonzero"/>
    </clipPath>
    <clipPath id="id4">
      <path d="M -6.726562 12.652344 L 40.210938 -4.414062 L 56.25 39.605469 L 9.3125 56.671875 Z M -6.726562 12.652344 " clip-rule="nonzero"/>
    </clipPath>
    <clipPath id="id5">
      <path d="M -6.84375 12.824219 L 40.09375 -4.242188 L 56.132812 39.773438 L 9.195312 56.839844 Z M -6.84375 12.824219 " clip-rule="nonzero"/>
    </clipPath>
    <mask id="id7">
      <g filter="url(#id1)">
        <rect x="-37.5" width="450" fill="#000000" y="-37.499999" height="449.999989" fill-opacity="0.698"/>
      </g>
    </mask>
    <clipPath id="id11">
      <rect x="0" width="47" y="0" height="52"/>
    </clipPath>
    <clipPath id="id8">
      <path d="M 0.160156 0.398438 L 46.960938 0.398438 L 46.960938 52 L 0.160156 52 Z M 0.160156 0.398438 " clip-rule="nonzero"/>
    </clipPath>
    <clipPath id="id9">
      <path d="M -10.039062 37.75 L 7.761719 -5.539062 L 53.964844 13.417969 L 36.167969 56.707031 Z M -10.039062 37.75 " clip-rule="nonzero"/>
    </clipPath>
    <clipPath id="id10">
      <path d="M -10.039062 37.75 L 7.761719 -5.539062 L 53.964844 13.417969 L 36.167969 56.707031 Z M -10.039062 37.75 " clip-rule="nonzero"/>
    </clipPath>
  </defs>
  <path fill="#ad73b1" d="M 208.585938 113.566406 C 218.664062 129.378906 218.027344 145.328125 213.375 160.589844 C 206.851562 160.316406 200.554688 160.410156 194.582031 160.546875 C 199.597656 147.242188 201.011719 134.9375 193.53125 123.089844 C 192.898438 122.117188 192.21875 121.175781 191.496094 120.269531 C 190.769531 119.363281 190.003906 118.496094 189.195312 117.664062 C 188.382812 116.832031 187.535156 116.039062 186.648438 115.292969 C 185.761719 114.542969 184.84375 113.839844 183.886719 113.179688 C 182.929688 112.519531 181.945312 111.90625 180.929688 111.34375 C 179.914062 110.78125 178.875 110.269531 177.808594 109.808594 C 176.742188 109.34375 175.660156 108.9375 174.554688 108.582031 C 173.449219 108.222656 172.328125 107.921875 171.195312 107.675781 C 170.058594 107.429688 168.914062 107.238281 167.761719 107.101562 C 166.609375 106.96875 165.449219 106.890625 164.289062 106.867188 C 163.128906 106.84375 161.96875 106.878906 160.8125 106.96875 C 159.652344 107.058594 158.503906 107.207031 157.359375 107.410156 C 156.214844 107.613281 155.085938 107.871094 153.96875 108.183594 C 152.847656 108.496094 151.75 108.863281 150.664062 109.285156 C 149.582031 109.703125 148.523438 110.175781 147.488281 110.699219 C 146.453125 111.222656 145.445312 111.796875 144.464844 112.417969 C 143.484375 113.039062 142.535156 113.707031 141.621094 114.421875 C 140.707031 115.136719 139.828125 115.894531 138.984375 116.695312 C 138.144531 117.492188 137.34375 118.332031 136.585938 119.210938 C 135.828125 120.089844 135.113281 121 134.441406 121.949219 C 133.773438 122.898438 133.152344 123.875 132.574219 124.882812 C 132 125.890625 131.476562 126.925781 131.003906 127.984375 C 130.53125 129.042969 130.109375 130.125 129.742188 131.222656 C 129.375 132.324219 129.0625 133.441406 128.804688 134.570312 C 128.542969 135.703125 128.339844 136.84375 128.195312 137.992188 C 128.046875 139.144531 127.957031 140.300781 127.921875 141.457031 C 127.886719 142.617188 127.910156 143.777344 127.988281 144.933594 C 128.066406 146.09375 128.203125 147.242188 128.394531 148.386719 C 128.582031 149.53125 128.832031 150.664062 129.132812 151.785156 C 129.433594 152.902344 129.789062 154.007812 130.199219 155.09375 C 130.609375 156.179688 131.070312 157.242188 131.582031 158.28125 C 132.097656 159.320312 132.660156 160.335938 133.273438 161.320312 C 144.90625 179.640625 166.664062 179.09375 191.890625 178.453125 C 218.621094 177.769531 248.953125 176.996094 266.015625 203.835938 C 266.96875 205.3125 267.847656 206.835938 268.652344 208.402344 C 269.457031 209.96875 270.183594 211.570312 270.828125 213.207031 C 271.472656 214.84375 272.039062 216.507812 272.519531 218.199219 C 273 219.890625 273.398438 221.605469 273.710938 223.335938 C 274.023438 225.066406 274.25 226.808594 274.390625 228.5625 C 274.53125 230.316406 274.582031 232.074219 274.550781 233.835938 C 274.515625 235.59375 274.398438 237.347656 274.191406 239.09375 C 273.984375 240.839844 273.691406 242.574219 273.316406 244.292969 C 272.9375 246.011719 272.476562 247.707031 271.929688 249.382812 C 271.386719 251.054688 270.757812 252.695312 270.050781 254.308594 C 269.34375 255.917969 268.558594 257.492188 267.695312 259.027344 C 266.832031 260.558594 265.894531 262.046875 264.886719 263.488281 C 263.875 264.929688 262.796875 266.320312 261.652344 267.65625 C 260.503906 268.988281 259.292969 270.265625 258.019531 271.480469 C 256.746094 272.699219 255.417969 273.847656 254.03125 274.933594 C 252.644531 276.019531 251.207031 277.03125 249.71875 277.976562 C 248.234375 278.917969 246.703125 279.785156 245.132812 280.578125 C 243.558594 281.371094 241.949219 282.085938 240.308594 282.71875 C 238.664062 283.351562 236.992188 283.90625 235.296875 284.375 C 233.597656 284.84375 231.882812 285.226562 230.148438 285.527344 C 228.410156 285.828125 226.664062 286.042969 224.90625 286.167969 C 223.152344 286.296875 221.390625 286.339844 219.632812 286.292969 C 217.871094 286.246094 216.117188 286.117188 214.367188 285.898438 C 212.621094 285.679688 210.886719 285.375 209.171875 284.984375 C 207.453125 284.597656 205.757812 284.125 204.085938 283.566406 C 202.417969 283.011719 200.777344 282.375 199.167969 281.65625 C 197.558594 280.9375 195.992188 280.144531 194.460938 279.269531 C 192.933594 278.398438 191.449219 277.453125 190.011719 276.433594 C 188.578125 275.414062 187.195312 274.328125 185.867188 273.171875 C 184.539062 272.015625 183.269531 270.800781 182.058594 269.519531 C 180.851562 268.238281 179.710938 266.902344 178.632812 265.507812 C 177.558594 264.117188 176.550781 262.675781 175.617188 261.183594 C 165.535156 245.371094 166.175781 229.421875 170.828125 214.109375 C 177.351562 214.382812 183.644531 214.292969 189.621094 214.15625 C 184.648438 227.460938 183.191406 239.765625 190.714844 251.613281 C 191.335938 252.613281 192.003906 253.578125 192.722656 254.511719 C 193.4375 255.441406 194.199219 256.339844 195.003906 257.195312 C 195.808594 258.054688 196.652344 258.871094 197.539062 259.644531 C 198.425781 260.417969 199.347656 261.144531 200.304688 261.828125 C 201.261719 262.511719 202.25 263.144531 203.269531 263.730469 C 204.292969 264.316406 205.339844 264.851562 206.410156 265.332031 C 207.484375 265.8125 208.578125 266.242188 209.695312 266.617188 C 210.8125 266.988281 211.941406 267.308594 213.089844 267.570312 C 214.238281 267.832031 215.394531 268.035156 216.5625 268.183594 C 217.730469 268.332031 218.902344 268.421875 220.078125 268.453125 C 221.253906 268.484375 222.429688 268.457031 223.601562 268.375 C 224.777344 268.289062 225.941406 268.148438 227.101562 267.949219 C 228.261719 267.75 229.410156 267.492188 230.542969 267.179688 C 231.675781 266.867188 232.792969 266.5 233.890625 266.074219 C 234.988281 265.652344 236.0625 265.175781 237.113281 264.648438 C 238.164062 264.117188 239.1875 263.539062 240.179688 262.90625 C 241.175781 262.277344 242.132812 261.601562 243.058594 260.875 C 243.984375 260.148438 244.875 259.382812 245.722656 258.570312 C 246.574219 257.753906 247.382812 256.902344 248.148438 256.011719 C 248.914062 255.117188 249.632812 254.191406 250.308594 253.226562 C 250.980469 252.261719 251.605469 251.265625 252.179688 250.242188 C 252.757812 249.214844 253.28125 248.164062 253.75 247.089844 C 254.222656 246.011719 254.640625 244.914062 255 243.796875 C 255.363281 242.675781 255.671875 241.542969 255.921875 240.394531 C 256.171875 239.246094 256.363281 238.089844 256.5 236.921875 C 256.636719 235.753906 256.714844 234.582031 256.734375 233.40625 C 256.753906 232.230469 256.714844 231.058594 256.617188 229.886719 C 256.519531 228.714844 256.367188 227.550781 256.15625 226.394531 C 255.945312 225.238281 255.675781 224.09375 255.351562 222.964844 C 255.027344 221.835938 254.644531 220.722656 254.210938 219.632812 C 253.777344 218.539062 253.289062 217.472656 252.746094 216.425781 C 252.207031 215.382812 251.617188 214.367188 250.976562 213.382812 C 239.34375 195.0625 217.585938 195.609375 192.359375 196.25 C 165.628906 196.933594 135.292969 197.707031 118.234375 170.867188 C 117.292969 169.386719 116.429688 167.867188 115.640625 166.300781 C 114.851562 164.738281 114.144531 163.140625 113.511719 161.503906 C 112.878906 159.871094 112.328125 158.210938 111.859375 156.523438 C 111.390625 154.835938 111.007812 153.128906 110.707031 151.402344 C 110.40625 149.679688 110.1875 147.941406 110.058594 146.195312 C 109.929688 144.449219 109.882812 142.699219 109.925781 140.949219 C 109.96875 139.199219 110.09375 137.453125 110.308594 135.714844 C 110.519531 133.976562 110.816406 132.253906 111.199219 130.542969 C 111.582031 128.835938 112.046875 127.148438 112.597656 125.484375 C 113.144531 123.820312 113.773438 122.1875 114.480469 120.585938 C 115.1875 118.984375 115.972656 117.421875 116.835938 115.894531 C 117.699219 114.371094 118.632812 112.890625 119.640625 111.457031 C 120.648438 110.027344 121.722656 108.644531 122.867188 107.316406 C 124.011719 105.988281 125.214844 104.71875 126.484375 103.511719 C 127.75 102.300781 129.074219 101.15625 130.457031 100.078125 C 131.835938 98.996094 133.265625 97.988281 134.746094 97.046875 C 159.59375 81.257812 192.753906 88.6875 208.585938 113.566406 Z M 208.585938 113.566406 " fill-opacity="1" fill-rule="nonzero"/>
  <g mask="url(#id2)">
    <g transform="matrix(1, 0, 0, 1, 138, 115)">
      <g clip-path="url(#id6)">
        <g clip-path="url(#id3)">
          <g clip-path="url(#id4)">
            <g clip-path="url(#id5)">
              <path d="M 25.972656 26.40625 C 24.207031 27.109375 22.652344 28.132812 21.3125 29.480469 C 19.96875 30.828125 18.953125 32.386719 18.261719 34.152344 C 16.941406 38.074219 16.210938 42.355469 16.847656 46.503906 C 16.894531 49.601562 20.222656 52.015625 23.1875 50.96875 C 26.792969 49.785156 28.984375 46.183594 32.496094 44.726562 C 35.367188 43.175781 38.652344 43.769531 41.710938 43.769531 C 44.402344 43.90625 47.457031 42.355469 47.730469 39.484375 C 47.730469 36.613281 45.402344 34.425781 43.441406 32.605469 C 39.792969 29.824219 35.917969 26.910156 31.308594 25.996094 C 29.488281 25.597656 27.710938 25.734375 25.972656 26.40625 Z M 4.078125 24.585938 C 3.625 24.734375 3.207031 24.953125 2.824219 25.238281 C 2.441406 25.523438 2.113281 25.859375 1.839844 26.25 C 1.5625 26.636719 1.355469 27.0625 1.214844 27.515625 C 1.078125 27.972656 1.011719 28.4375 1.019531 28.914062 C 1.203125 34.289062 6.539062 39.210938 12.058594 38.390625 C 14.339844 37.980469 15.617188 35.65625 15.433594 33.515625 C 15.023438 28.914062 10.964844 24.859375 6.355469 24.402344 C 5.582031 24.273438 4.820312 24.335938 4.078125 24.585938 Z M 40.355469 10.390625 C 36.25 12.167969 34.925781 17.363281 35.929688 21.371094 C 36.386719 24.378906 39.261719 27.570312 42.542969 26.613281 C 47.015625 24.925781 48.292969 19.09375 46.96875 14.949219 C 46.179688 12.144531 43.398438 9.480469 40.355469 10.390625 Z M 8.652344 7.335938 C 6.28125 8.292969 5.277344 11.394531 5.730469 13.808594 C 6.597656 18.636719 10.703125 23.515625 15.996094 23.195312 C 16.484375 23.140625 16.941406 22.988281 17.363281 22.738281 C 20.375 21.054688 20.421875 16.953125 19.234375 14.128906 C 17.730469 10.34375 14.171875 6.652344 9.792969 7.0625 C 9.398438 7.101562 9.019531 7.191406 8.652344 7.335938 Z M 25.074219 1.1875 L 24.800781 1.324219 C 21.148438 3.417969 20.511719 8.25 21.515625 11.984375 C 22.246094 15.402344 25.210938 19.09375 29.085938 18.5 C 29.652344 18.402344 30.167969 18.191406 30.636719 17.863281 C 34.46875 14.855469 34.5625 9.023438 32.371094 5.015625 C 31.1875 2.28125 27.992188 0.09375 25.074219 1.1875 Z M 25.074219 1.1875 " fill-opacity="1" fill-rule="nonzero" style="fill: rgb(12, 23, 69);"/>
            </g>
          </g>
        </g>
      </g>
    </g>
  </g>
  <g mask="url(#id7)">
    <g transform="matrix(1, 0, 0, 1, 200, 206)">
      <g clip-path="url(#id11)">
        <g clip-path="url(#id8)">
          <g clip-path="url(#id9)">
            <g clip-path="url(#id10)">
              <path d="M 22.679688 26.589844 C 19.257812 25.175781 15.0625 25.496094 11.777344 27.136719 C 8.128906 29.140625 4.753906 31.828125 2.425781 35.292969 C 0.375 37.617188 1.195312 41.625 4.113281 42.855469 C 7.582031 44.40625 11.640625 43.222656 15.199219 44.496094 C 18.347656 45.273438 20.398438 47.914062 22.679688 50.011719 C 24.550781 51.925781 27.878906 52.835938 30.023438 50.875 C 31.941406 48.78125 31.710938 45.546875 31.484375 42.902344 C 30.664062 38.390625 29.796875 33.605469 26.96875 29.871094 C 25.84375 28.378906 24.414062 27.285156 22.679688 26.589844 Z M 7.71875 10.550781 C 7.28125 10.355469 6.824219 10.234375 6.347656 10.1875 C 5.871094 10.140625 5.398438 10.167969 4.929688 10.269531 C 4.464844 10.371094 4.023438 10.546875 3.613281 10.789062 C 3.199219 11.03125 2.835938 11.328125 2.515625 11.6875 C -0.949219 15.789062 -0.355469 23.035156 4.296875 26.085938 C 6.257812 27.316406 8.765625 26.453125 10.089844 24.765625 C 12.871094 21.074219 12.597656 15.378906 9.542969 11.914062 C 9.046875 11.308594 8.441406 10.851562 7.71875 10.550781 Z M 44.074219 24.402344 C 39.875 22.941406 35.359375 25.859375 33.398438 29.503906 C 31.710938 32.011719 31.710938 36.292969 34.769531 37.796875 C 39.191406 39.53125 44.117188 36.113281 45.898438 32.148438 C 47.265625 29.664062 46.992188 25.769531 44.074219 24.402344 Z M 22.726562 0.84375 C 20.308594 -0.0703125 17.480469 1.570312 16.203125 3.667969 C 13.554688 7.816406 13.328125 14.195312 17.433594 17.519531 C 17.84375 17.785156 18.285156 17.980469 18.757812 18.113281 C 22.132812 18.886719 24.914062 15.925781 25.964844 13.007812 C 27.421875 9.226562 27.242188 4.078125 23.730469 1.433594 C 23.453125 1.140625 23.117188 0.945312 22.726562 0.84375 Z M 39.023438 7.335938 C 38.9375 7.285156 38.847656 7.253906 38.75 7.246094 C 34.644531 6.332031 30.902344 9.476562 29.125 12.894531 C 27.347656 15.949219 27.074219 20.640625 30.355469 22.828125 C 30.839844 23.148438 31.375 23.332031 31.953125 23.375 C 36.835938 23.695312 40.800781 19.457031 41.898438 15.039062 C 42.808594 12.257812 41.941406 8.476562 39.023438 7.335938 Z M 39.023438 7.335938 " fill-opacity="1" fill-rule="nonzero" style="fill: rgb(12, 23, 69);"/>
            </g>
          </g>
        </g>
      </g>
    </g>
  </g>
</svg>