<svg width="3001" height="1515" xmlns="http://www.w3.org/2000/svg" xmlns:xlink="http://www.w3.org/1999/xlink" overflow="hidden"><defs><filter id="fx0" x="-10%" y="-10%" width="120%" height="120%" filterUnits="userSpaceOnUse" primitiveUnits="userSpaceOnUse"><feComponentTransfer color-interpolation-filters="sRGB"><feFuncR type="discrete" tableValues="0 0"/><feFuncG type="discrete" tableValues="0 0"/><feFuncB type="discrete" tableValues="0 0"/><feFuncA type="linear" slope="0.631373" intercept="0"/></feComponentTransfer><feGaussianBlur stdDeviation="6.875 6.875"/></filter><filter id="fx1" x="-10%" y="-10%" width="120%" height="120%" filterUnits="userSpaceOnUse" primitiveUnits="userSpaceOnUse"><feComponentTransfer color-interpolation-filters="sRGB"><feFuncR type="discrete" tableValues="0 0"/><feFuncG type="discrete" tableValues="0 0"/><feFuncB type="discrete" tableValues="0 0"/><feFuncA type="linear" slope="0.631373" intercept="0"/></feComponentTransfer><feGaussianBlur stdDeviation="6.875 6.875"/></filter><filter id="fx2" x="-10%" y="-10%" width="120%" height="120%" filterUnits="userSpaceOnUse" primitiveUnits="userSpaceOnUse"><feComponentTransfer color-interpolation-filters="sRGB"><feFuncR type="discrete" tableValues="0 0"/><feFuncG type="discrete" tableValues="0 0"/><feFuncB type="discrete" tableValues="0 0"/><feFuncA type="linear" slope="0.631373" intercept="0"/></feComponentTransfer><feGaussianBlur stdDeviation="6.875 6.875"/></filter><filter id="fx3" x="-10%" y="-10%" width="120%" height="120%" filterUnits="userSpaceOnUse" primitiveUnits="userSpaceOnUse"><feComponentTransfer color-interpolation-filters="sRGB"><feFuncR type="discrete" tableValues="0 0"/><feFuncG type="discrete" tableValues="0 0"/><feFuncB type="discrete" tableValues="0 0"/><feFuncA type="linear" slope="0.631373" intercept="0"/></feComponentTransfer><feGaussianBlur stdDeviation="6.875 6.875"/></filter><filter id="fx4" x="-10%" y="-10%" width="120%" height="120%" filterUnits="userSpaceOnUse" primitiveUnits="userSpaceOnUse"><feComponentTransfer color-interpolation-filters="sRGB"><feFuncR type="discrete" tableValues="0 0"/><feFuncG type="discrete" tableValues="0 0"/><feFuncB type="discrete" tableValues="0 0"/><feFuncA type="linear" slope="0.631373" intercept="0"/></feComponentTransfer><feGaussianBlur stdDeviation="6.875 6.875"/></filter><filter id="fx5" x="-10%" y="-10%" width="120%" height="120%" filterUnits="userSpaceOnUse" primitiveUnits="userSpaceOnUse"><feComponentTransfer color-interpolation-filters="sRGB"><feFuncR type="discrete" tableValues="0 0"/><feFuncG type="discrete" tableValues="0 0"/><feFuncB type="discrete" tableValues="0 0"/><feFuncA type="linear" slope="0.4" intercept="0"/></feComponentTransfer><feGaussianBlur stdDeviation="2.14254 2.14254"/></filter><clipPath id="clip6"><rect x="85" y="62" width="3001" height="1515"/></clipPath><radialGradient cx="4.15775e+06" cy="2.09896e+06" r="4.65752e+06" fx="4.15775e+06" fy="2.09896e+06" gradientUnits="userSpaceOnUse" spreadMethod="pad" id="fill7" gradientTransform="matrix(0.000360892 0 0 0.000360892 84.9999 61.9999)"><stop offset="0" stop-color="#595959"/><stop offset="0.02" stop-color="#585858"/><stop offset="0.04" stop-color="#585858"/><stop offset="0.06" stop-color="#585858"/><stop offset="0.08" stop-color="#585858"/><stop offset="0.1" stop-color="#585858"/><stop offset="0.12" stop-color="#585858"/><stop offset="0.14" stop-color="#575757"/><stop offset="0.16" stop-color="#575757"/><stop offset="0.18" stop-color="#565656"/><stop offset="0.2" stop-color="#565656"/><stop offset="0.22" stop-color="#565656"/><stop offset="0.24" stop-color="#555555"/><stop offset="0.26" stop-color="#545454"/><stop offset="0.28" stop-color="#545454"/><stop offset="0.3" stop-color="#535353"/><stop offset="0.32" stop-color="#525252"/><stop offset="0.34" stop-color="#525252"/><stop offset="0.36" stop-color="#515151"/><stop offset="0.38" stop-color="#505050"/><stop offset="0.4" stop-color="#4F4F4F"/><stop offset="0.42" stop-color="#4E4E4E"/><stop offset="0.44" stop-color="#4E4E4E"/><stop offset="0.46" stop-color="#4D4D4D"/><stop offset="0.48" stop-color="#4C4C4C"/><stop offset="0.5" stop-color="#4B4B4B"/><stop offset="0.52" stop-color="#4A4A4A"/><stop offset="0.54" stop-color="#484848"/><stop offset="0.56" stop-color="#474747"/><stop offset="0.58" stop-color="#464646"/><stop offset="0.6" stop-color="#454545"/><stop offset="0.62" stop-color="#444444"/><stop offset="0.64" stop-color="#424242"/><stop offset="0.66" stop-color="#414141"/><stop offset="0.68" stop-color="#404040"/><stop offset="0.7" stop-color="#3E3E3E"/><stop offset="0.72" stop-color="#3D3D3D"/><stop offset="0.74" stop-color="#3C3C3C"/><stop offset="0.76" stop-color="#3A3A3A"/><stop offset="0.78" stop-color="#383838"/><stop offset="0.8" stop-color="#373737"/><stop offset="0.82" stop-color="#353535"/><stop offset="0.84" stop-color="#343434"/><stop offset="0.86" stop-color="#323232"/><stop offset="0.88" stop-color="#303030"/><stop offset="0.9" stop-color="#2F2F2F"/><stop offset="0.92" stop-color="#2D2D2D"/><stop offset="0.94" stop-color="#2B2B2B"/><stop offset="0.96" stop-color="#292929"/><stop offset="0.98" stop-color="#272727"/><stop offset="1" stop-color="#262626"/></radialGradient><clipPath id="clip8"><rect x="84" y="62" width="3001" height="1515"/></clipPath><clipPath id="clip9"><rect x="84" y="62" width="3001" height="1515"/></clipPath><clipPath id="clip10"><rect x="296" y="243" width="2742" height="828"/></clipPath><clipPath id="clip11"><rect x="-3" y="-3" width="2671" height="877"/></clipPath><clipPath id="clip12"><rect x="0" y="0" width="2665" height="866"/></clipPath><clipPath id="clip13"><rect x="296" y="243" width="2742" height="828"/></clipPath><clipPath id="clip14"><rect x="-3" y="-3" width="2671" height="888"/></clipPath><clipPath id="clip15"><rect x="0" y="0" width="2665" height="870"/></clipPath><clipPath id="clip16"><rect x="296" y="243" width="2742" height="828"/></clipPath><clipPath id="clip17"><rect x="-3" y="-3" width="2671" height="766"/></clipPath><clipPath id="clip18"><rect x="0" y="0" width="2665" height="762"/></clipPath><clipPath id="clip19"><rect x="296" y="243" width="2742" height="828"/></clipPath><clipPath id="clip20"><rect x="-3" y="-3" width="2671" height="881"/></clipPath><clipPath id="clip21"><rect x="0" y="0" width="2665" height="864"/></clipPath><clipPath id="clip22"><rect x="296" y="243" width="2742" height="828"/></clipPath><clipPath id="clip23"><rect x="-3" y="-3" width="2671" height="814"/></clipPath><clipPath id="clip24"><rect x="0" y="0" width="2665" height="808"/></clipPath><clipPath id="clip25"><rect x="296" y="243" width="2742" height="828"/></clipPath><clipPath id="clip26"><rect x="296" y="243" width="2742" height="828"/></clipPath><clipPath id="clip27"><rect x="296" y="243" width="2742" height="828"/></clipPath><clipPath id="clip28"><rect x="296" y="243" width="2742" height="828"/></clipPath><clipPath id="clip29"><rect x="296" y="243" width="2742" height="828"/></clipPath><clipPath id="clip30"><rect x="84" y="62" width="3001" height="1515"/></clipPath><clipPath id="clip31"><rect x="84" y="62" width="3001" height="1515"/></clipPath><clipPath id="clip32"><rect x="84" y="62" width="3001" height="1515"/></clipPath><clipPath id="clip33"><rect x="84" y="62" width="3001" height="1515"/></clipPath><clipPath id="clip34"><rect x="84" y="62" width="3001" height="1515"/></clipPath><clipPath id="clip35"><rect x="84" y="62" width="3001" height="1515"/></clipPath><clipPath id="clip36"><rect x="84" y="62" width="3001" height="1515"/></clipPath><clipPath id="clip37"><rect x="84" y="62" width="3001" height="1515"/></clipPath><clipPath id="clip38"><rect x="84" y="62" width="3001" height="1515"/></clipPath><clipPath id="clip39"><rect x="84" y="62" width="3001" height="1515"/></clipPath><clipPath id="clip40"><rect x="84" y="62" width="3001" height="1515"/></clipPath><clipPath id="clip41"><rect x="84" y="62" width="3001" height="1515"/></clipPath><clipPath id="clip42"><rect x="84" y="62" width="3001" height="1515"/></clipPath><clipPath id="clip43"><rect x="84" y="62" width="3001" height="1515"/></clipPath><clipPath id="clip44"><rect x="84" y="62" width="3001" height="1515"/></clipPath><clipPath id="clip45"><rect x="84" y="62" width="3001" height="1515"/></clipPath><clipPath id="clip46"><rect x="84" y="62" width="3001" height="1515"/></clipPath><clipPath id="clip47"><rect x="84" y="62" width="3001" height="1515"/></clipPath><clipPath id="clip48"><rect x="84" y="62" width="3001" height="1515"/></clipPath><clipPath id="clip49"><rect x="84" y="62" width="3001" height="1515"/></clipPath><clipPath id="clip50"><rect x="84" y="62" width="3001" height="1515"/></clipPath><clipPath id="clip51"><rect x="84" y="62" width="3001" height="1515"/></clipPath><clipPath id="clip52"><rect x="84" y="62" width="3001" height="1515"/></clipPath><clipPath id="clip53"><rect x="84" y="62" width="3001" height="1515"/></clipPath><clipPath id="clip54"><rect x="84" y="62" width="3001" height="1515"/></clipPath><clipPath id="clip55"><rect x="84" y="62" width="3001" height="1515"/></clipPath><clipPath id="clip56"><rect x="84" y="62" width="3001" height="1515"/></clipPath><clipPath id="clip57"><rect x="84" y="62" width="3001" height="1515"/></clipPath><clipPath id="clip58"><rect x="84" y="62" width="3001" height="1515"/></clipPath><clipPath id="clip59"><rect x="84" y="62" width="3001" height="1515"/></clipPath><clipPath id="clip60"><rect x="84" y="62" width="3001" height="1515"/></clipPath><clipPath id="clip61"><rect x="84" y="62" width="3001" height="1515"/></clipPath><clipPath id="clip62"><rect x="84" y="62" width="3001" height="1515"/></clipPath><clipPath id="clip63"><rect x="84" y="62" width="3001" height="1515"/></clipPath><clipPath id="clip64"><rect x="84" y="62" width="3001" height="1515"/></clipPath><clipPath id="clip65"><rect x="44" y="40" width="347" height="85"/></clipPath><clipPath id="clip66"><rect x="0" y="0" width="439" height="174"/></clipPath><clipPath id="clip67"><rect x="84" y="62" width="3001" height="1515"/></clipPath><clipPath id="clip68"><rect x="84" y="62" width="3001" height="1515"/></clipPath><clipPath id="clip69"><rect x="84" y="62" width="3001" height="1515"/></clipPath><clipPath id="clip70"><rect x="84" y="62" width="3001" height="1515"/></clipPath><clipPath id="clip71"><rect x="84" y="62" width="3001" height="1515"/></clipPath><clipPath id="clip72"><rect x="84" y="62" width="3001" height="1515"/></clipPath><clipPath id="clip73"><rect x="84" y="62" width="3001" height="1515"/></clipPath><clipPath id="clip74"><rect x="84" y="62" width="3001" height="1515"/></clipPath><clipPath id="clip75"><rect x="84" y="62" width="3001" height="1515"/></clipPath><clipPath id="clip76"><rect x="84" y="62" width="3001" height="1515"/></clipPath></defs><g clip-path="url(#clip6)" transform="translate(-85 -62)"><rect x="84.9999" y="61.9999" width="3001" height="1515" fill="url(#fill7)"/><g clip-path="url(#clip8)"><path d="M296.5 985.533 3035.5 985.533M296.5 903.53 3035.5 903.53M296.5 820.527 3035.5 820.527M296.5 738.524 3035.5 738.524M296.5 655.522 3035.5 655.522M296.5 573.519 3035.5 573.519M296.5 490.516 3035.5 490.516M296.5 408.514 3035.5 408.514M296.5 325.511 3035.5 325.511M296.5 243.5 3035.5 243.5" stroke="#F2F2F2" stroke-width="3.4375" stroke-linejoin="round" stroke-miterlimit="10" stroke-opacity="0.101961" fill="none"/></g><g clip-path="url(#clip9)"><path d="M296.5 1068.5 3035.5 1068.5" stroke="#F2F2F2" stroke-width="3.4375" stroke-linejoin="round" stroke-miterlimit="10" stroke-opacity="0.101961" fill="none" fill-rule="evenodd"/></g><g clip-path="url(#clip10)"><g clip-path="url(#clip11)" filter="url(#fx0)" transform="translate(334 226)"><g clip-path="url(#clip12)"><path d="M28.5002 842.375 158.516 838.41 288.521 831.41 419.525 820.409 549.529 802.409 680.533 774.408 810.538 732.406 940.542 671.404 1071.55 590.402 1201.55 492.399 1332.55 387.395 1462.56 288.392 1592.56 206.389 1723.57 143.387 1853.57 100.386 1984.58 71.3847 2114.58 53.3841 2244.58 42.3838 2375.59 35.3835 2505.59 30.3834 2636.5 28.375" stroke="#4472C4" stroke-width="13" stroke-linecap="round" stroke-linejoin="round" stroke-miterlimit="10" fill="none"/></g></g></g><g clip-path="url(#clip13)"><g clip-path="url(#clip14)" filter="url(#fx1)" transform="translate(334 222)"><g clip-path="url(#clip15)"><path d="M28.5002 852.375 158.516 851.41 288.521 850.41 419.525 847.41 549.529 841.41 680.533 828.409 810.538 801.409 940.542 749.407 1071.55 658.404 1201.55 523.399 1332.55 366.394 1462.56 229.39 1592.56 136.387 1723.57 82.3849 1853.57 54.384 1984.58 40.3836 2114.58 34.3834 2244.58 31.3833 2375.59 29.3832 2505.59 29.3832 2636.5 28.3749" stroke="#ED7D31" stroke-width="13" stroke-linecap="round" stroke-linejoin="round" stroke-miterlimit="10" fill="none"/></g></g></g><g clip-path="url(#clip16)"><g clip-path="url(#clip17)" filter="url(#fx2)" transform="translate(334 275)"><g clip-path="url(#clip18)"><path d="M28.5002 733.375 158.516 716.407 288.521 695.407 419.525 669.406 549.529 638.405 680.533 602.404 810.538 562.402 940.542 516.401 1071.55 467.399 1201.55 415.398 1332.55 362.396 1462.56 311.394 1592.56 261.393 1723.57 215.391 1853.57 174.39 1984.58 138.389 2114.58 107.387 2244.58 81.3866 2375.59 60.3859 2505.59 42.3854 2636.5 28.3752" stroke="#A5A5A5" stroke-width="13" stroke-linecap="round" stroke-linejoin="round" stroke-miterlimit="10" fill="none"/></g></g></g><g clip-path="url(#clip19)"><g clip-path="url(#clip20)" filter="url(#fx3)" transform="translate(334 228)"><g clip-path="url(#clip21)"><path d="M28.5002 846.375 158.516 845.41 288.521 844.41 419.525 841.41 549.529 836.41 680.533 824.409 810.538 803.409 940.542 764.408 1071.55 701.405 1201.55 612.403 1332.55 501.399 1462.56 384.395 1592.56 279.392 1723.57 194.389 1853.57 133.387 1984.58 92.3855 2114.58 65.3846 2244.58 48.384 2375.59 38.3837 2505.59 32.3835 2636.5 28.3751" stroke="#FFC000" stroke-width="13" stroke-linecap="round" stroke-linejoin="round" stroke-miterlimit="10" fill="none"/></g></g></g><g clip-path="url(#clip22)"><g clip-path="url(#clip23)" filter="url(#fx4)" transform="translate(334 224)"><g clip-path="url(#clip24)"><path d="M28.5002 779.375 158.516 758.407 288.521 732.406 419.525 698.405 549.529 656.404 680.533 603.402 810.538 541.4 940.542 468.398 1071.55 388.395 1201.55 308.392 1332.55 233.39 1462.56 171.388 1592.56 122.386 1723.57 88.3852 1853.57 65.3845 1984.58 50.384 2114.58 41.3837 2244.58 35.3835 2375.59 31.3833 2505.59 29.3833 2636.5 28.3749" stroke="#5B9BD5" stroke-width="13" stroke-linecap="round" stroke-linejoin="round" stroke-miterlimit="10" fill="none"/></g></g></g><g clip-path="url(#clip25)"><path d="M362.5 1061.5 492.516 1057.53 622.521 1050.53 753.525 1039.53 883.529 1021.53 1014.53 993.533 1144.54 951.531 1274.54 890.529 1405.55 809.527 1535.55 711.524 1666.55 606.52 1796.56 507.517 1926.56 425.514 2057.57 362.512 2187.57 319.511 2318.58 290.51 2448.58 272.509 2578.58 261.509 2709.59 254.509 2839.59 249.508 2970.5 247.5" stroke="#4472C4" stroke-width="12.6042" stroke-linecap="round" stroke-linejoin="round" stroke-miterlimit="10" fill="none"/></g><g clip-path="url(#clip26)"><path d="M362.5 1067.5 492.516 1066.54 622.521 1065.54 753.525 1062.54 883.529 1056.53 1014.53 1043.53 1144.54 1016.53 1274.54 964.532 1405.55 873.529 1535.55 738.524 1666.55 581.519 1796.56 444.515 1926.56 351.512 2057.57 297.51 2187.57 269.509 2318.58 255.509 2448.58 249.508 2578.58 246.508 2709.59 244.508 2839.59 244.508 2970.5 243.5" stroke="#ED7D31" stroke-width="12.6042" stroke-linecap="round" stroke-linejoin="round" stroke-miterlimit="10" fill="none"/></g><g clip-path="url(#clip27)"><path d="M362.5 1001.5 492.516 984.532 622.521 963.532 753.525 937.531 883.529 906.53 1014.53 870.529 1144.54 830.527 1274.54 784.526 1405.55 735.524 1535.55 683.523 1666.55 630.521 1796.56 579.519 1926.56 529.518 2057.57 483.516 2187.57 442.515 2318.58 406.513 2448.58 375.512 2578.58 349.512 2709.59 328.511 2839.59 310.51 2970.5 296.5" stroke="#A5A5A5" stroke-width="12.6042" stroke-linecap="round" stroke-linejoin="round" stroke-miterlimit="10" fill="none"/></g><g clip-path="url(#clip28)"><path d="M362.5 1067.5 492.516 1066.54 622.521 1065.54 753.525 1062.54 883.529 1057.53 1014.53 1045.53 1144.54 1024.53 1274.54 985.533 1405.55 922.53 1535.55 833.528 1666.55 722.524 1796.56 605.52 1926.56 500.517 2057.57 415.514 2187.57 354.512 2318.58 313.51 2448.58 286.51 2578.58 269.509 2709.59 259.509 2839.59 253.508 2970.5 249.5" stroke="#FFC000" stroke-width="12.6042" stroke-linecap="round" stroke-linejoin="round" stroke-miterlimit="10" fill="none"/></g><g clip-path="url(#clip29)"><path d="M362.5 996.5 492.516 975.532 622.521 949.531 753.525 915.53 883.529 873.529 1014.53 820.527 1144.54 758.525 1274.54 685.523 1405.55 605.52 1535.55 525.517 1666.55 450.515 1796.56 388.513 1926.56 339.511 2057.57 305.51 2187.57 282.509 2318.58 267.509 2448.58 258.509 2578.58 252.508 2709.59 248.508 2839.59 246.508 2970.5 245.5" stroke="#5B9BD5" stroke-width="12.6042" stroke-linecap="round" stroke-linejoin="round" stroke-miterlimit="10" fill="none"/></g><g clip-path="url(#clip30)"><text fill="#D9D9D9" font-family="Calibri,Calibri_MSFontService,sans-serif" font-weight="400" font-size="41" transform="matrix(1 0 0 1 237.65 1080)">0</text></g><g clip-path="url(#clip31)"><text fill="#D9D9D9" font-family="Calibri,Calibri_MSFontService,sans-serif" font-weight="400" font-size="41" transform="matrix(1 0 0 1 206.346 997)">0.1</text></g><g clip-path="url(#clip32)"><text fill="#D9D9D9" font-family="Calibri,Calibri_MSFontService,sans-serif" font-weight="400" font-size="41" transform="matrix(1 0 0 1 206.346 915)">0.2</text></g><g clip-path="url(#clip33)"><text fill="#D9D9D9" font-family="Calibri,Calibri_MSFontService,sans-serif" font-weight="400" font-size="41" transform="matrix(1 0 0 1 206.346 832)">0.3</text></g><g clip-path="url(#clip34)"><text fill="#D9D9D9" font-family="Calibri,Calibri_MSFontService,sans-serif" font-weight="400" font-size="41" transform="matrix(1 0 0 1 206.346 750)">0.4</text></g><g clip-path="url(#clip35)"><text fill="#D9D9D9" font-family="Calibri,Calibri_MSFontService,sans-serif" font-weight="400" font-size="41" transform="matrix(1 0 0 1 206.346 667)">0.5</text></g><g clip-path="url(#clip36)"><text fill="#D9D9D9" font-family="Calibri,Calibri_MSFontService,sans-serif" font-weight="400" font-size="41" transform="matrix(1 0 0 1 206.346 585)">0.6</text></g><g clip-path="url(#clip37)"><text fill="#D9D9D9" font-family="Calibri,Calibri_MSFontService,sans-serif" font-weight="400" font-size="41" transform="matrix(1 0 0 1 206.346 502)">0.7</text></g><g clip-path="url(#clip38)"><text fill="#D9D9D9" font-family="Calibri,Calibri_MSFontService,sans-serif" font-weight="400" font-size="41" transform="matrix(1 0 0 1 206.346 420)">0.8</text></g><g clip-path="url(#clip39)"><text fill="#D9D9D9" font-family="Calibri,Calibri_MSFontService,sans-serif" font-weight="400" font-size="41" transform="matrix(1 0 0 1 206.346 338)">0.9</text></g><g clip-path="url(#clip40)"><text fill="#D9D9D9" font-family="Calibri,Calibri_MSFontService,sans-serif" font-weight="400" font-size="41" transform="matrix(1 0 0 1 237.65 255)">1</text></g><g clip-path="url(#clip41)"><text fill="#D9D9D9" font-family="Calibri,Calibri_MSFontService,sans-serif" font-weight="400" font-size="41" transform="matrix(0.707107 -0.707107 0.707107 0.707107 187.408 1306)">36,573,693,156</text></g><g clip-path="url(#clip42)"><text fill="#D9D9D9" font-family="Calibri,Calibri_MSFontService,sans-serif" font-weight="400" font-size="41" transform="matrix(0.707107 -0.707107 0.707107 0.707107 303.042 1321)">184,130,114,503</text></g><g clip-path="url(#clip43)"><text fill="#D9D9D9" font-family="Calibri,Calibri_MSFontService,sans-serif" font-weight="400" font-size="41" transform="matrix(0.707107 -0.707107 0.707107 0.707107 433.455 1321)">331,686,535,850</text></g><g clip-path="url(#clip44)"><text fill="#D9D9D9" font-family="Calibri,Calibri_MSFontService,sans-serif" font-weight="400" font-size="41" transform="matrix(0.707107 -0.707107 0.707107 0.707107 563.867 1321)">479,242,957,198</text></g><g clip-path="url(#clip45)"><text fill="#D9D9D9" font-family="Calibri,Calibri_MSFontService,sans-serif" font-weight="400" font-size="41" transform="matrix(0.707107 -0.707107 0.707107 0.707107 694.279 1321)">626,799,378,545</text></g><g clip-path="url(#clip46)"><text fill="#D9D9D9" font-family="Calibri,Calibri_MSFontService,sans-serif" font-weight="400" font-size="41" transform="matrix(0.707107 -0.707107 0.707107 0.707107 824.692 1321)">774,355,799,892</text></g><g clip-path="url(#clip47)"><text fill="#D9D9D9" font-family="Calibri,Calibri_MSFontService,sans-serif" font-weight="400" font-size="41" transform="matrix(0.707107 -0.707107 0.707107 0.707107 955.104 1321)">921,912,221,239</text></g><g clip-path="url(#clip48)"><text fill="#D9D9D9" font-family="Calibri,Calibri_MSFontService,sans-serif" font-weight="400" font-size="41" transform="matrix(0.707107 -0.707107 0.707107 0.707107 1063.46 1343)">1,069,468,642,586</text></g><g clip-path="url(#clip49)"><text fill="#D9D9D9" font-family="Calibri,Calibri_MSFontService,sans-serif" font-weight="400" font-size="41" transform="matrix(0.707107 -0.707107 0.707107 0.707107 1193.87 1343)">1,217,025,063,934</text></g><g clip-path="url(#clip50)"><text fill="#D9D9D9" font-family="Calibri,Calibri_MSFontService,sans-serif" font-weight="400" font-size="41" transform="matrix(0.707107 -0.707107 0.707107 0.707107 1324.29 1343)">1,364,581,485,281</text></g><g clip-path="url(#clip51)"><text fill="#D9D9D9" font-family="Calibri,Calibri_MSFontService,sans-serif" font-weight="400" font-size="41" transform="matrix(0.707107 -0.707107 0.707107 0.707107 1454.7 1343)">1,512,137,906,628</text></g><g clip-path="url(#clip52)"><text fill="#D9D9D9" font-family="Calibri,Calibri_MSFontService,sans-serif" font-weight="400" font-size="41" transform="matrix(0.707107 -0.707107 0.707107 0.707107 1585.11 1343)">1,659,694,327,975</text></g><g clip-path="url(#clip53)"><text fill="#D9D9D9" font-family="Calibri,Calibri_MSFontService,sans-serif" font-weight="400" font-size="41" transform="matrix(0.707107 -0.707107 0.707107 0.707107 1715.52 1343)">1,807,250,749,322</text></g><g clip-path="url(#clip54)"><text fill="#D9D9D9" font-family="Calibri,Calibri_MSFontService,sans-serif" font-weight="400" font-size="41" transform="matrix(0.707107 -0.707107 0.707107 0.707107 1845.94 1343)">1,954,807,170,670</text></g><g clip-path="url(#clip55)"><text fill="#D9D9D9" font-family="Calibri,Calibri_MSFontService,sans-serif" font-weight="400" font-size="41" transform="matrix(0.707107 -0.707107 0.707107 0.707107 1976.35 1343)">2,102,363,592,017</text></g><g clip-path="url(#clip56)"><text fill="#D9D9D9" font-family="Calibri,Calibri_MSFontService,sans-serif" font-weight="400" font-size="41" transform="matrix(0.707107 -0.707107 0.707107 0.707107 2106.76 1343)">2,249,920,013,364</text></g><g clip-path="url(#clip57)"><text fill="#D9D9D9" font-family="Calibri,Calibri_MSFontService,sans-serif" font-weight="400" font-size="41" transform="matrix(0.707107 -0.707107 0.707107 0.707107 2237.17 1343)">2,397,476,434,711</text></g><g clip-path="url(#clip58)"><text fill="#D9D9D9" font-family="Calibri,Calibri_MSFontService,sans-serif" font-weight="400" font-size="41" transform="matrix(0.707107 -0.707107 0.707107 0.707107 2367.59 1343)">2,545,032,856,058</text></g><g clip-path="url(#clip59)"><text fill="#D9D9D9" font-family="Calibri,Calibri_MSFontService,sans-serif" font-weight="400" font-size="41" transform="matrix(0.707107 -0.707107 0.707107 0.707107 2498 1343)">2,692,589,277,406</text></g><g clip-path="url(#clip60)"><text fill="#D9D9D9" font-family="Calibri,Calibri_MSFontService,sans-serif" font-weight="400" font-size="41" transform="matrix(0.707107 -0.707107 0.707107 0.707107 2628.41 1343)">2,840,145,698,753</text></g><g clip-path="url(#clip61)"><text fill="#D9D9D9" font-family="Calibri,Calibri_MSFontService,sans-serif" font-weight="400" font-size="41" transform="matrix(0.707107 -0.707107 0.707107 0.707107 2758.82 1343)">2,987,702,120,100</text></g><g clip-path="url(#clip62)"><text fill="#D9D9D9" font-family="Calibri,Calibri_MSFontService,sans-serif" font-weight="700" font-size="41" transform="matrix(6.12323e-17 -1 1 6.12323e-17 181.252 759)">MULTIPLIER</text></g><g clip-path="url(#clip63)"><text fill="#D9D9D9" font-family="Calibri,Calibri_MSFontService,sans-serif" font-weight="700" font-size="41" transform="matrix(1 0 0 1 1532.5 1404)">LOCK PRODUCT</text></g><g clip-path="url(#clip64)"><g clip-path="url(#clip65)" filter="url(#fx5)" transform="translate(1366 71)"><g clip-path="url(#clip66)"><path d="M27.981-1.63965C27.8621-1.23568 27.7077-0.908935 27.5176-0.659424 27.3275-0.409912 27.0186-0.219808 26.5908-0.0891113 26.1631 0.0415853 25.5809 0.124756 24.8442 0.1604 24.1076 0.196045 23.1452 0.213867 21.957 0.213867 21.0065 0.213867 20.1926 0.207926 19.5154 0.196045 18.8381 0.184163 18.2619 0.15446 17.7866 0.106934 17.3114 0.0594075 16.9252-0.0118815 16.6282-0.106934 16.3311-0.201986 16.0816-0.320801 15.8796-0.463379 15.6777-0.605957 15.5232-0.778239 15.4163-0.980224 15.3093-1.18221 15.2083-1.43766 15.1133-1.74658L1.39014-42.6309C1.10498-43.4863 0.932698-44.1636 0.873291-44.6626 0.813883-45.1616 0.932698-45.5359 1.22974-45.7854 1.52677-46.0349 2.03174-46.1894 2.74463-46.2488 3.45752-46.3082 4.45557-46.3379 5.73877-46.3379 6.83187-46.3379 7.68734-46.3141 8.30517-46.2666 8.92301-46.2191 9.39827-46.1359 9.73096-46.0171 10.0636-45.8983 10.2953-45.72 10.426-45.4824 10.5567-45.2448 10.6815-44.9478 10.8003-44.5913L22.0283-9.01807 22.064-9.01807 33.0781-44.4131C33.1732-44.8171 33.292-45.1438 33.4346-45.3933 33.5771-45.6428 33.8207-45.8389 34.1653-45.9814 34.5098-46.124 35.0029-46.2191 35.6445-46.2666 36.2861-46.3141 37.1654-46.3379 38.2822-46.3379 39.3753-46.3379 40.2248-46.3022 40.8308-46.231 41.4368-46.1597 41.8526-45.9874 42.0784-45.7141 42.3041-45.4408 42.3754-45.0547 42.2922-44.5557 42.2091-44.0566 42.0249-43.3913 41.7397-42.5596ZM78.0456-18.0361C78.0456-16.943 77.8021-16.1351 77.3149-15.6123 76.8278-15.0895 76.1565-14.8281 75.301-14.8281L55.946-14.8281C55.946-13.4736 56.1064-12.2439 56.4272-11.1389 56.748-10.0339 57.2589-9.09529 57.9599-8.323 58.6609-7.5507 59.5639-6.96256 60.6689-6.55859 61.7739-6.15462 63.0987-5.95264 64.6433-5.95264 66.2116-5.95264 67.5899-6.06551 68.7781-6.29126 69.9662-6.51701 70.994-6.76652 71.8613-7.03979 72.7287-7.31307 73.4475-7.56258 74.0178-7.78833 74.5881-8.01408 75.0515-8.12695 75.4079-8.12695 75.6218-8.12695 75.8-8.08537 75.9426-8.0022 76.0852-7.91903 76.204-7.77051 76.299-7.55664 76.3941-7.34277 76.4594-7.03979 76.4951-6.6477 76.5307-6.25561 76.5486-5.76253 76.5486-5.16846 76.5486-4.64567 76.5367-4.20011 76.5129-3.83179 76.4892-3.46346 76.4535-3.1486 76.406-2.88721 76.3585-2.62581 76.2872-2.40601 76.1921-2.22778 76.0971-2.04956 75.9723-1.87728 75.8178-1.71094 75.6634-1.5446 75.2416-1.31885 74.5525-1.03369 73.8633-0.748535 72.9841-0.46932 71.9148-0.196045 70.8454 0.0772298 69.6216 0.31486 68.2434 0.516846 66.8651 0.718831 65.3918 0.819824 63.8235 0.819824 60.9957 0.819824 58.5184 0.463379 56.3916-0.249512 54.2648-0.962402 52.4885-2.04362 51.0627-3.49316 49.6369-4.94271 48.5735-6.77246 47.8725-8.98242 47.1715-11.1924 46.821-13.7826 46.821-16.7529 46.821-19.5807 47.1894-22.1293 47.926-24.3987 48.6627-26.668 49.732-28.5928 51.134-30.1731 52.536-31.7533 54.241-32.9593 56.249-33.791 58.257-34.6227 60.5204-35.0386 63.0393-35.0386 65.7007-35.0386 67.9761-34.6465 69.8652-33.8623 71.7544-33.0781 73.3049-31.991 74.5168-30.6008 75.7287-29.2107 76.6199-27.5651 77.1902-25.6641 77.7605-23.763 78.0456-21.6956 78.0456-19.4619ZM69.3484-20.6025C69.4197-23.1214 68.9147-25.0997 67.8335-26.5374 66.7523-27.975 65.0829-28.6938 62.8254-28.6938 61.6848-28.6938 60.6927-28.48 59.8491-28.0522 59.0055-27.6245 58.3045-27.0483 57.7461-26.3235 57.1876-25.5987 56.7599-24.7432 56.4629-23.7571 56.1658-22.7709 55.9936-21.7194 55.946-20.6025ZM112.561-10.1943C112.561-8.38835 112.223-6.79622 111.546-5.41797 110.868-4.03971 109.912-2.88721 108.676-1.96045 107.44-1.03369 105.979-0.338623 104.292 0.124756 102.605 0.588135 100.775 0.819824 98.8026 0.819824 97.6144 0.819824 96.4798 0.730713 95.3985 0.55249 94.3173 0.374268 93.349 0.148519 92.4935-0.124756 91.638-0.398031 90.9252-0.677246 90.3548-0.962402 89.7845-1.24756 89.3687-1.51489 89.1073-1.7644 88.8459-2.01392 88.6439-2.40601 88.5013-2.94067 88.3587-3.47534 88.2875-4.26546 88.2875-5.31103 88.2875-6.00016 88.3112-6.55265 88.3587-6.9685 88.4063-7.38436 88.4776-7.71704 88.5726-7.96655 88.6677-8.21606 88.7865-8.3824 88.9291-8.46558 89.0716-8.54875 89.2499-8.59033 89.4637-8.59033 89.7251-8.59033 90.1113-8.44181 90.6222-8.14477 91.1331-7.84774 91.7687-7.521 92.5292-7.16455 93.2896-6.8081 94.1747-6.47542 95.1847-6.1665 96.1946-5.85758 97.3412-5.70312 98.6244-5.70312 99.4323-5.70312 100.151-5.78629 100.781-5.95264 101.411-6.11898 101.957-6.35661 102.421-6.66553 102.884-6.97445 103.234-7.36654 103.472-7.8418 103.71-8.31706 103.828-8.86361 103.828-9.48144 103.828-10.1943 103.609-10.8062 103.169-11.3171 102.729-11.828 102.147-12.2736 101.422-12.6538 100.698-13.034 99.8779-13.3905 98.963-13.7231 98.0481-14.0558 97.1095-14.4242 96.1471-14.8281 95.1847-15.2321 94.246-15.6955 93.3312-16.2183 92.4163-16.741 91.5965-17.3826 90.8717-18.1431 90.1469-18.9035 89.5647-19.8184 89.1251-20.8877 88.6855-21.957 88.4657-23.2402 88.4657-24.7373 88.4657-26.2581 88.7627-27.6542 89.3568-28.9255 89.9509-30.1969 90.8063-31.284 91.9232-32.187 93.0401-33.09 94.4005-33.791 96.0045-34.29 97.6085-34.7891 99.4086-35.0386 101.405-35.0386 102.403-35.0386 103.371-34.9673 104.31-34.8247 105.248-34.6821 106.098-34.5039 106.858-34.29 107.619-34.0762 108.26-33.8445 108.783-33.595 109.306-33.3455 109.68-33.1316 109.906-32.9534 110.132-32.7751 110.292-32.5969 110.387-32.4187 110.482-32.2405 110.553-32.0266 110.601-31.7771 110.648-31.5276 110.69-31.2187 110.726-30.8503 110.761-30.482 110.779-30.0246 110.779-29.478 110.779-28.8364 110.761-28.3136 110.726-27.9097 110.69-27.5057 110.631-27.1849 110.547-26.9473 110.464-26.7096 110.351-26.5492 110.209-26.4661 110.066-26.3829 109.9-26.3413 109.71-26.3413 109.496-26.3413 109.163-26.4661 108.712-26.7156 108.26-26.9651 107.696-27.2324 107.019-27.5176 106.341-27.8027 105.557-28.0701 104.666-28.3196 103.775-28.5691 102.759-28.6938 101.619-28.6938 100.811-28.6938 100.11-28.6107 99.5155-28.4443 98.9214-28.278 98.4343-28.0404 98.0541-27.7314 97.6738-27.4225 97.3887-27.0601 97.1986-26.6443 97.0085-26.2284 96.9134-25.7829 96.9134-25.3076 96.9134-24.571 97.1392-23.9531 97.5907-23.4541 98.0422-22.9551 98.6363-22.5155 99.3729-22.1353 100.11-21.755 100.947-21.3986 101.886-21.0659 102.824-20.7332 103.775-20.3708 104.737-19.9788 105.7-19.5867 106.65-19.1292 107.589-18.6064 108.528-18.0837 109.365-17.4421 110.102-16.6816 110.839-15.9212 111.433-15.0123 111.884-13.9548 112.336-12.8974 112.561-11.6439 112.561-10.1943ZM142.02-4.34863C142.02-3.30306 141.954-2.50106 141.824-1.94263 141.693-1.3842 141.521-0.992106 141.307-0.766357 141.093-0.540609 140.778-0.338623 140.362-0.1604 139.947 0.0178223 139.459 0.172282 138.901 0.302978 138.343 0.433675 137.737 0.534668 137.083 0.605957 136.43 0.677246 135.77 0.712891 135.105 0.712891 133.323 0.712891 131.778 0.487142 130.471 0.0356445 129.164-0.415853 128.083-1.11092 127.227-2.04956 126.372-2.9882 125.742-4.17041 125.338-5.59619 124.934-7.02197 124.732-8.70915 124.732-10.6577L124.732-26.9473 120.918-26.9473C120.467-26.9473 120.122-27.2265 119.885-27.7849 119.647-28.3433 119.528-29.276 119.528-30.583 119.528-31.2721 119.558-31.8543 119.617-32.3296 119.677-32.8048 119.766-33.1791 119.885-33.4524 120.003-33.7257 120.152-33.9217 120.33-34.0405 120.508-34.1593 120.716-34.2187 120.954-34.2187L124.732-34.2187 124.732-41.312C124.732-41.5496 124.798-41.7635 124.928-41.9536 125.059-42.1437 125.297-42.3041 125.641-42.4348 125.986-42.5655 126.449-42.6606 127.031-42.72 127.614-42.7794 128.332-42.8091 129.188-42.8091 130.067-42.8091 130.798-42.7794 131.38-42.72 131.962-42.6606 132.42-42.5655 132.752-42.4348 133.085-42.3041 133.323-42.1437 133.465-41.9536 133.608-41.7635 133.679-41.5496 133.679-41.312L133.679-34.2187 140.594-34.2187C140.832-34.2187 141.04-34.1593 141.218-34.0405 141.396-33.9217 141.545-33.7257 141.663-33.4524 141.782-33.1791 141.871-32.8048 141.931-32.3296 141.99-31.8543 142.02-31.2721 142.02-30.583 142.02-29.276 141.901-28.3433 141.663-27.7849 141.426-27.2265 141.081-26.9473 140.63-26.9473L133.679-26.9473 133.679-12.0122C133.679-10.2775 133.952-8.97648 134.499-8.10913 135.045-7.24178 136.02-6.8081 137.422-6.8081 137.897-6.8081 138.325-6.84969 138.705-6.93286 139.085-7.01603 139.424-7.11108 139.721-7.21802 140.018-7.32495 140.267-7.42 140.469-7.50317 140.671-7.58634 140.855-7.62793 141.022-7.62793 141.164-7.62793 141.301-7.58634 141.432-7.50317 141.562-7.42 141.663-7.25366 141.735-7.00415 141.806-6.75464 141.871-6.41602 141.931-5.98828 141.99-5.56055 142.02-5.014 142.02-4.34863ZM162.18-1.21191C162.18-0.974284 162.109-0.766357 161.966-0.588135 161.823-0.409912 161.58-0.261393 161.235-0.142578 160.891-0.023763 160.433 0.0653483 159.863 0.124756 159.293 0.184163 158.568 0.213867 157.689 0.213867 156.809 0.213867 156.085 0.184163 155.514 0.124756 154.944 0.0653483 154.487-0.023763 154.142-0.142578 153.797-0.261393 153.554-0.409912 153.411-0.588135 153.269-0.766357 153.197-0.974284 153.197-1.21191L153.197-32.9355C153.197-33.1732 153.269-33.3811 153.411-33.5593 153.554-33.7375 153.797-33.892 154.142-34.0227 154.487-34.1534 154.944-34.2544 155.514-34.3257 156.085-34.397 156.809-34.4326 157.689-34.4326 158.568-34.4326 159.293-34.397 159.863-34.3257 160.433-34.2544 160.891-34.1534 161.235-34.0227 161.58-33.892 161.823-33.7375 161.966-33.5593 162.109-33.3811 162.18-33.1732 162.18-32.9355ZM162.857-43.7715C162.857-41.9655 162.489-40.7179 161.752-40.0288 161.015-39.3397 159.649-38.9951 157.653-38.9951 155.633-38.9951 154.273-39.3278 153.572-39.9932 152.871-40.6585 152.52-41.8586 152.52-43.5933 152.52-45.3992 152.883-46.6527 153.607-47.3538 154.332-48.0548 155.704-48.4053 157.724-48.4053 159.72-48.4053 161.075-48.0666 161.788-47.3894 162.501-46.7122 162.857-45.5062 162.857-43.7715ZM207.802-17.5728C207.802-14.745 207.499-12.1964 206.893-9.927 206.287-7.65763 205.402-5.72689 204.238-4.13477 203.073-2.54264 201.624-1.31885 199.889-0.463379 198.154 0.39209 196.17 0.819824 193.936 0.819824 193.01 0.819824 192.16 0.730713 191.388 0.55249 190.615 0.374268 189.867 0.100993 189.142-0.267334 188.417-0.635661 187.699-1.0931 186.986-1.63965 186.273-2.1862 185.536-2.8278 184.776-3.56445L184.776 11.4062C184.776 11.6439 184.704 11.8577 184.562 12.0479 184.419 12.238 184.176 12.3984 183.831 12.5291 183.487 12.6597 183.029 12.7607 182.459 12.832 181.888 12.9033 181.164 12.939 180.284 12.939 179.405 12.939 178.68 12.9033 178.11 12.832 177.54 12.7607 177.082 12.6597 176.738 12.5291 176.393 12.3984 176.15 12.238 176.007 12.0479 175.865 11.8577 175.793 11.6439 175.793 11.4062L175.793-33.0068C175.793-33.2445 175.853-33.4524 175.971-33.6306 176.09-33.8088 176.298-33.9574 176.595-34.0762 176.892-34.195 177.284-34.2841 177.772-34.3435 178.259-34.4029 178.871-34.4326 179.607-34.4326 180.32-34.4326 180.92-34.4029 181.407-34.3435 181.894-34.2841 182.287-34.195 182.584-34.0762 182.881-33.9574 183.089-33.8088 183.207-33.6306 183.326-33.4524 183.386-33.2445 183.386-33.0068L183.386-29.2642C184.312-30.2147 185.221-31.0523 186.112-31.7771 187.003-32.5019 187.912-33.1078 188.839-33.595 189.766-34.0821 190.722-34.4445 191.709-34.6821 192.695-34.9198 193.746-35.0386 194.863-35.0386 197.192-35.0386 199.176-34.5811 200.816-33.6663 202.455-32.7514 203.792-31.4979 204.826-29.9058 205.859-28.3136 206.614-26.4601 207.089-24.3452 207.564-22.2303 207.802-19.9728 207.802-17.5728ZM198.463-16.9312C198.463-18.2856 198.362-19.5867 198.16-20.8342 197.958-22.0818 197.614-23.1927 197.127-24.167 196.639-25.1413 195.998-25.9195 195.202-26.5017 194.406-27.0839 193.414-27.375 192.225-27.375 191.631-27.375 191.043-27.2859 190.461-27.1077 189.879-26.9294 189.285-26.6383 188.679-26.2344 188.073-25.8304 187.449-25.3076 186.807-24.666 186.166-24.0244 185.489-23.2283 184.776-22.2778L184.776-11.7983C186.035-10.2062 187.235-8.97648 188.376-8.10913 189.516-7.24178 190.705-6.8081 191.94-6.8081 193.105-6.8081 194.097-7.10514 194.917-7.69922 195.736-8.29329 196.408-9.07153 196.93-10.0339 197.453-10.9963 197.839-12.0835 198.089-13.2954 198.338-14.5073 198.463-15.7192 198.463-16.9312ZM228.707-1.21191C228.707-0.974284 228.636-0.766357 228.493-0.588135 228.35-0.409912 228.107-0.261393 227.762-0.142578 227.418-0.023763 226.96 0.0653483 226.39 0.124756 225.82 0.184163 225.095 0.213867 224.216 0.213867 223.336 0.213867 222.612 0.184163 222.041 0.124756 221.471 0.0653483 221.014-0.023763 220.669-0.142578 220.325-0.261393 220.081-0.409912 219.938-0.588135 219.796-0.766357 219.725-0.974284 219.725-1.21191L219.725-48.0845C219.725-48.3221 219.796-48.536 219.938-48.7261 220.081-48.9162 220.325-49.0766 220.669-49.2073 221.014-49.338 221.471-49.439 222.041-49.5103 222.612-49.5815 223.336-49.6172 224.216-49.6172 225.095-49.6172 225.82-49.5815 226.39-49.5103 226.96-49.439 227.418-49.338 227.762-49.2073 228.107-49.0766 228.35-48.9162 228.493-48.7261 228.636-48.536 228.707-48.3221 228.707-48.0845ZM251.303-1.21191C251.303-0.974284 251.231-0.766357 251.089-0.588135 250.946-0.409912 250.703-0.261393 250.358-0.142578 250.014-0.023763 249.556 0.0653483 248.986 0.124756 248.416 0.184163 247.691 0.213867 246.812 0.213867 245.932 0.213867 245.208 0.184163 244.637 0.124756 244.067 0.0653483 243.609-0.023763 243.265-0.142578 242.92-0.261393 242.677-0.409912 242.534-0.588135 242.392-0.766357 242.32-0.974284 242.32-1.21191L242.32-32.9355C242.32-33.1732 242.392-33.3811 242.534-33.5593 242.677-33.7375 242.92-33.892 243.265-34.0227 243.609-34.1534 244.067-34.2544 244.637-34.3257 245.208-34.397 245.932-34.4326 246.812-34.4326 247.691-34.4326 248.416-34.397 248.986-34.3257 249.556-34.2544 250.014-34.1534 250.358-34.0227 250.703-33.892 250.946-33.7375 251.089-33.5593 251.231-33.3811 251.303-33.1732 251.303-32.9355ZM251.98-43.7715C251.98-41.9655 251.612-40.7179 250.875-40.0288 250.138-39.3397 248.772-38.9951 246.776-38.9951 244.756-38.9951 243.396-39.3278 242.695-39.9932 241.994-40.6585 241.643-41.8586 241.643-43.5933 241.643-45.3992 242.005-46.6527 242.73-47.3538 243.455-48.0548 244.827-48.4053 246.847-48.4053 248.843-48.4053 250.198-48.0666 250.911-47.3894 251.624-46.7122 251.98-45.5062 251.98-43.7715ZM294.287-18.0361C294.287-16.943 294.044-16.1351 293.557-15.6123 293.069-15.0895 292.398-14.8281 291.543-14.8281L272.188-14.8281C272.188-13.4736 272.348-12.2439 272.669-11.1389 272.99-10.0339 273.501-9.09529 274.202-8.323 274.903-7.5507 275.806-6.96256 276.911-6.55859 278.016-6.15462 279.34-5.95264 280.885-5.95264 282.453-5.95264 283.832-6.06551 285.02-6.29126 286.208-6.51701 287.236-6.76652 288.103-7.03979 288.97-7.31307 289.689-7.56258 290.259-7.78833 290.83-8.01408 291.293-8.12695 291.65-8.12695 291.863-8.12695 292.042-8.08537 292.184-8.0022 292.327-7.91903 292.446-7.77051 292.541-7.55664 292.636-7.34277 292.701-7.03979 292.737-6.6477 292.772-6.25561 292.79-5.76253 292.79-5.16846 292.79-4.64567 292.778-4.20011 292.755-3.83179 292.731-3.46346 292.695-3.1486 292.648-2.88721 292.6-2.62581 292.529-2.40601 292.434-2.22778 292.339-2.04956 292.214-1.87728 292.059-1.71094 291.905-1.5446 291.483-1.31885 290.794-1.03369 290.105-0.748535 289.226-0.46932 288.156-0.196045 287.087 0.0772298 285.863 0.31486 284.485 0.516846 283.107 0.718831 281.633 0.819824 280.065 0.819824 277.237 0.819824 274.76 0.463379 272.633-0.249512 270.506-0.962402 268.73-2.04362 267.304-3.49316 265.879-4.94271 264.815-6.77246 264.114-8.98242 263.413-11.1924 263.063-13.7826 263.063-16.7529 263.063-19.5807 263.431-22.1293 264.168-24.3987 264.904-26.668 265.974-28.5928 267.376-30.1731 268.778-31.7533 270.483-32.9593 272.491-33.791 274.499-34.6227 276.762-35.0386 279.281-35.0386 281.942-35.0386 284.218-34.6465 286.107-33.8623 287.996-33.0781 289.547-31.991 290.758-30.6008 291.97-29.2107 292.861-27.5651 293.432-25.6641 294.002-23.763 294.287-21.6956 294.287-19.4619ZM285.59-20.6025C285.661-23.1214 285.156-25.0997 284.075-26.5374 282.994-27.975 281.325-28.6938 279.067-28.6938 277.926-28.6938 276.934-28.48 276.091-28.0522 275.247-27.6245 274.546-27.0483 273.988-26.3235 273.429-25.5987 273.002-24.7432 272.704-23.7571 272.407-22.7709 272.235-21.7194 272.188-20.6025ZM326.843-30.0483C326.843-29.1929 326.819-28.4919 326.771-27.9453 326.724-27.3988 326.652-26.971 326.557-26.6621 326.462-26.3532 326.338-26.1393 326.183-26.0205 326.029-25.9017 325.833-25.8423 325.595-25.8423 325.405-25.8423 325.191-25.8839 324.953-25.967 324.716-26.0502 324.448-26.1393 324.151-26.2344 323.854-26.3294 323.528-26.4185 323.171-26.5017 322.815-26.5849 322.423-26.6265 321.995-26.6265 321.496-26.6265 320.997-26.5255 320.498-26.3235 319.999-26.1215 319.482-25.8066 318.947-25.3789 318.413-24.9512 317.854-24.3809 317.272-23.668 316.69-22.9551 316.066-22.0758 315.401-21.0303L315.401-1.21191C315.401-0.974284 315.329-0.766357 315.187-0.588135 315.044-0.409912 314.801-0.261393 314.456-0.142578 314.112-0.023763 313.654 0.0653483 313.084 0.124756 312.513 0.184163 311.789 0.213867 310.909 0.213867 310.03 0.213867 309.305 0.184163 308.735 0.124756 308.165 0.0653483 307.707-0.023763 307.363-0.142578 307.018-0.261393 306.775-0.409912 306.632-0.588135 306.49-0.766357 306.418-0.974284 306.418-1.21191L306.418-33.0068C306.418-33.2445 306.478-33.4524 306.596-33.6306 306.715-33.8088 306.929-33.9574 307.238-34.0762 307.547-34.195 307.945-34.2841 308.432-34.3435 308.919-34.4029 309.531-34.4326 310.268-34.4326 311.028-34.4326 311.658-34.4029 312.157-34.3435 312.656-34.2841 313.042-34.195 313.315-34.0762 313.589-33.9574 313.785-33.8088 313.904-33.6306 314.022-33.4524 314.082-33.2445 314.082-33.0068L314.082-29.0503C314.914-30.2384 315.698-31.2187 316.434-31.991 317.171-32.7633 317.872-33.3752 318.537-33.8267 319.203-34.2782 319.868-34.593 320.533-34.7712 321.199-34.9495 321.864-35.0386 322.53-35.0386 322.838-35.0386 323.171-35.0207 323.528-34.9851 323.884-34.9495 324.252-34.89 324.633-34.8069 325.013-34.7237 325.345-34.6287 325.631-34.5217 325.916-34.4148 326.124-34.3019 326.254-34.1831 326.385-34.0643 326.48-33.9336 326.54-33.791 326.599-33.6484 326.652-33.4524 326.7-33.2029 326.747-32.9534 326.783-32.5791 326.807-32.0801 326.831-31.5811 326.843-30.9038 326.843-30.0483Z" fill="#F2F2F2" transform="matrix(1 0 0 1 53.1296 101)"/></g></g><text fill="#F2F2F2" font-family="Calibri,Calibri_MSFontService,sans-serif" font-weight="700" font-size="73" transform="matrix(1 0 0 1 1419.13 167)">Vestiplier</text></g><g clip-path="url(#clip67)"><path d="M1018.5 1511.5 1106.5 1511.5" stroke="#4472C4" stroke-width="12.6042" stroke-linecap="round" stroke-linejoin="round" stroke-miterlimit="10" fill="none" fill-rule="evenodd"/></g><g clip-path="url(#clip68)"><text fill="#D9D9D9" font-family="Calibri,Calibri_MSFontService,sans-serif" font-weight="400" font-size="41" transform="matrix(1 0 0 1 1115.53 1523)">k=5 | a=1</text></g><g clip-path="url(#clip69)"><path d="M1321.5 1511.5 1409.5 1511.5" stroke="#ED7D31" stroke-width="12.6042" stroke-linecap="round" stroke-linejoin="round" stroke-miterlimit="10" fill="none" fill-rule="evenodd"/></g><g clip-path="url(#clip70)"><text fill="#D9D9D9" font-family="Calibri,Calibri_MSFontService,sans-serif" font-weight="400" font-size="41" transform="matrix(1 0 0 1 1418.76 1523)">k &gt; 5</text></g><g clip-path="url(#clip71)"><path d="M1544.5 1511.5 1632.5 1511.5" stroke="#A5A5A5" stroke-width="12.6042" stroke-linecap="round" stroke-linejoin="round" stroke-miterlimit="10" fill="none" fill-rule="evenodd"/></g><g clip-path="url(#clip72)"><text fill="#D9D9D9" font-family="Calibri,Calibri_MSFontService,sans-serif" font-weight="400" font-size="41" transform="matrix(1 0 0 1 1641.81 1523)">k &lt; 5</text></g><g clip-path="url(#clip73)"><path d="M1767.5 1511.5 1855.5 1511.5" stroke="#FFC000" stroke-width="12.6042" stroke-linecap="round" stroke-linejoin="round" stroke-miterlimit="10" fill="none" fill-rule="evenodd"/></g><g clip-path="url(#clip74)"><text fill="#D9D9D9" font-family="Calibri,Calibri_MSFontService,sans-serif" font-weight="400" font-size="41" transform="matrix(1 0 0 1 1864.86 1523)">a &gt; 1</text></g><g clip-path="url(#clip75)"><path d="M1991.5 1511.5 2079.5 1511.5" stroke="#5B9BD5" stroke-width="12.6042" stroke-linecap="round" stroke-linejoin="round" stroke-miterlimit="10" fill="none" fill-rule="evenodd"/></g><g clip-path="url(#clip76)"><text fill="#D9D9D9" font-family="Calibri,Calibri_MSFontService,sans-serif" font-weight="400" font-size="41" transform="matrix(1 0 0 1 2088.91 1523)">a &lt; 1</text></g></g></svg>