<svg width="19" height="22" fill="none" xmlns="http://www.w3.org/2000/svg"><path d="M6.786 4.114c-.36 0-.706.146-.96.404a1.387 1.387 0 000 1.947c.254.259.6.404.96.404h7.58l-1.754 1.78a1.388 1.388 0 00.017 1.93 1.347 1.347 0 001.902.018l4.072-4.132a1.387 1.387 0 000-1.947L14.53.387a1.347 1.347 0 00-1.902.016 1.388 1.388 0 00-.017 1.93l1.755 1.781h-7.58zm5.428 13.772c.36 0 .705-.145.96-.404a1.387 1.387 0 000-1.947 1.347 1.347 0 00-.96-.404h-7.58l1.754-1.78a1.388 1.388 0 00-.017-1.93 1.347 1.347 0 00-1.902-.018L.397 15.535a1.388 1.388 0 000 1.947l4.072 4.131a1.346 1.346 0 001.902-.016 1.387 1.387 0 00.017-1.93l-1.755-1.781h7.581z" fill="#fff"/></svg>