<?xml version="1.0" encoding="UTF-8"?>
<svg width="1200pt" height="1200pt" version="1.1" viewBox="0 0 1200 1200" xmlns="http://www.w3.org/2000/svg">
 <path d="m600 75c-289.92 0-525 235.08-525 525s235.08 525 525 525 525-235.08 525-525-235.08-525-525-525zm47.344 765.7c-1.1719 41.719-32.109 67.5-72.188 66.328-38.438-1.1719-68.672-28.594-67.5-70.547 1.1719-41.719 33.047-68.203 71.484-67.031 40.312 1.1719 69.609 29.531 68.203 71.25zm114.14-298.36c-9.8438 13.828-31.875 31.641-59.531 53.203l-30.703 21.094c-15 11.484-24.375 25.078-29.297 40.547-2.5781 8.2031-4.4531 29.531-4.9219 43.828-0.23438 2.8125-1.875 9.1406-10.547 9.1406h-91.641c-9.6094 0-10.781-5.625-10.547-8.4375 1.4062-38.906 7.0312-71.016 23.203-96.797 21.797-34.688 83.203-71.25 83.203-71.25 9.375-7.0312 16.641-14.531 22.266-22.734 10.312-14.062 18.75-29.766 18.75-46.641 0-19.453-4.6875-37.969-17.109-53.438-14.531-18.047-30.234-26.719-60.469-26.719-29.766 0-47.109 15-59.531 34.688s-10.312 42.891-10.312 63.984h-114.14c0-79.688 20.859-130.55 64.922-160.55 29.766-20.391 67.734-29.297 112.03-29.297 58.125 0 104.3 10.781 145.08 41.719 37.734 28.594 57.656 68.906 57.656 123.28 0 33.516-11.719 61.641-28.359 84.375z" fill="#ef00b8"/>
</svg>
