<?xml version="1.0" encoding="utf-8"?>
<svg viewBox="61.481 162.681 252.149 49.878" width="252.149" height="49.878" xmlns="http://www.w3.org/2000/svg">
    <defs>
        <mask id="id2">
            <g filter="url(#id1)">
                <rect x="-37.5" width="450" fill="#000000" y="-37.499999" height="449.999989" fill-opacity="0.698"/>
            </g>
        </mask>
        <filter x="0%" y="0%" width="100%" height="100%" id="id1">
            <feColorMatrix values="0 0 0 0 1 0 0 0 0 1 0 0 0 0 1 0 0 0 1 0" color-interpolation-filters="sRGB"/>
        </filter>
        <clipPath id="id6">
            <rect x="0" width="13" y="0" height="14"/>
        </clipPath>
        <clipPath id="id3">
            <path d="M 0.640625 0.441406 L 12.878906 0.441406 L 12.878906 13.398438 L 0.640625 13.398438 Z M 0.640625 0.441406 " clip-rule="nonzero"/>
        </clipPath>
        <clipPath id="id4">
            <path d="M -1.144531 3.503906 L 10.664062 -0.804688 L 14.699219 10.308594 L 2.890625 14.617188 Z M -1.144531 3.503906 " clip-rule="nonzero"/>
        </clipPath>
        <clipPath id="id5">
            <path d="M -1.171875 3.546875 L 10.636719 -0.761719 L 14.671875 10.351562 L 2.863281 14.660156 Z M -1.171875 3.546875 " clip-rule="nonzero"/>
        </clipPath>
        <mask id="id7">
            <g filter="url(#id1)">
                <rect x="-37.5" width="450" fill="#000000" y="-37.499999" height="449.999989" fill-opacity="0.698"/>
            </g>
        </mask>
        <clipPath id="id11">
            <rect x="0" width="12" y="0" height="14"/>
        </clipPath>
        <clipPath id="id8">
            <path d="M 0 0.238281 L 12 0.238281 L 12 13.441406 L 0 13.441406 Z M 0 0.238281 " clip-rule="nonzero"/>
        </clipPath>
        <clipPath id="id9">
            <path d="M -2.378906 9.8125 L 2.097656 -1.117188 L 13.722656 3.667969 L 9.246094 14.597656 Z M -2.378906 9.8125 " clip-rule="nonzero"/>
        </clipPath>
        <clipPath id="id10">
            <path d="M -2.378906 9.8125 L 2.097656 -1.117188 L 13.722656 3.667969 L 9.246094 14.597656 Z M -2.378906 9.8125 " clip-rule="nonzero"/>
        </clipPath>
    </defs>
    <path fill="#ad73b1" d="M 86.304688 168.945312 C 88.84375 172.9375 88.679688 176.964844 87.511719 180.820312 C 85.871094 180.75 84.285156 180.773438 82.78125 180.808594 C 84.046875 177.449219 84.402344 174.34375 82.519531 171.351562 C 82.199219 170.859375 81.835938 170.402344 81.425781 169.980469 C 81.019531 169.558594 80.574219 169.183594 80.09375 168.847656 C 79.609375 168.515625 79.101562 168.230469 78.5625 167.996094 C 78.027344 167.765625 77.472656 167.585938 76.898438 167.460938 C 76.328125 167.335938 75.746094 167.265625 75.160156 167.253906 C 74.578125 167.242188 73.996094 167.289062 73.417969 167.390625 C 72.839844 167.496094 72.28125 167.652344 71.734375 167.867188 C 71.1875 168.078125 70.667969 168.34375 70.171875 168.65625 C 69.679688 168.972656 69.21875 169.332031 68.796875 169.734375 C 68.371094 170.140625 67.992188 170.582031 67.652344 171.0625 C 67.316406 171.542969 67.027344 172.050781 66.789062 172.585938 C 66.550781 173.121094 66.363281 173.675781 66.234375 174.25 C 66.101562 174.820312 66.03125 175.402344 66.011719 175.988281 C 65.996094 176.574219 66.035156 177.160156 66.128906 177.738281 C 66.226562 178.316406 66.378906 178.882812 66.585938 179.429688 C 66.792969 179.980469 67.050781 180.503906 67.359375 181.003906 C 70.285156 185.628906 75.757812 185.488281 82.105469 185.328125 C 88.832031 185.15625 96.460938 184.960938 100.753906 191.734375 C 101.234375 192.484375 101.640625 193.273438 101.964844 194.101562 C 102.292969 194.929688 102.535156 195.78125 102.691406 196.660156 C 102.847656 197.535156 102.917969 198.417969 102.902344 199.308594 C 102.886719 200.199219 102.78125 201.078125 102.589844 201.949219 C 102.402344 202.820312 102.128906 203.664062 101.769531 204.476562 C 101.414062 205.292969 100.980469 206.066406 100.472656 206.796875 C 99.960938 207.527344 99.386719 208.199219 98.742188 208.8125 C 98.101562 209.429688 97.40625 209.976562 96.65625 210.453125 C 95.90625 210.929688 95.117188 211.328125 94.289062 211.652344 C 93.457031 211.972656 92.605469 212.207031 91.730469 212.359375 C 90.855469 212.511719 89.972656 212.578125 89.085938 212.554688 C 88.195312 212.53125 87.320312 212.421875 86.453125 212.222656 C 85.585938 212.027344 84.75 211.746094 83.9375 211.382812 C 83.125 211.019531 82.359375 210.578125 81.632812 210.0625 C 80.910156 209.546875 80.242188 208.964844 79.632812 208.320312 C 79.023438 207.671875 78.484375 206.96875 78.011719 206.214844 C 75.476562 202.222656 75.636719 198.195312 76.808594 194.332031 C 78.449219 194.398438 80.03125 194.375 81.535156 194.339844 C 80.285156 197.699219 79.917969 200.808594 81.8125 203.796875 C 82.125 204.304688 82.484375 204.773438 82.890625 205.207031 C 83.296875 205.640625 83.738281 206.03125 84.222656 206.378906 C 84.707031 206.722656 85.21875 207.015625 85.757812 207.261719 C 86.300781 207.503906 86.859375 207.695312 87.4375 207.828125 C 88.019531 207.957031 88.605469 208.03125 89.199219 208.050781 C 89.789062 208.066406 90.378906 208.023438 90.964844 207.921875 C 91.550781 207.820312 92.121094 207.664062 92.671875 207.449219 C 93.226562 207.234375 93.753906 206.96875 94.253906 206.648438 C 94.757812 206.332031 95.222656 205.964844 95.648438 205.554688 C 96.078125 205.140625 96.464844 204.691406 96.804688 204.203125 C 97.144531 203.71875 97.433594 203.199219 97.667969 202.65625 C 97.90625 202.109375 98.089844 201.546875 98.214844 200.964844 C 98.339844 200.382812 98.410156 199.796875 98.417969 199.203125 C 98.429688 198.605469 98.382812 198.015625 98.273438 197.429688 C 98.167969 196.847656 98.003906 196.277344 97.785156 195.722656 C 97.566406 195.171875 97.292969 194.644531 96.972656 194.144531 C 94.042969 189.523438 88.570312 189.660156 82.222656 189.820312 C 75.5 189.992188 67.867188 190.1875 63.574219 183.414062 C 63.101562 182.664062 62.707031 181.875 62.386719 181.050781 C 62.066406 180.222656 61.832031 179.371094 61.679688 178.5 C 61.527344 177.625 61.464844 176.746094 61.484375 175.859375 C 61.503906 174.972656 61.613281 174.097656 61.804688 173.234375 C 61.996094 172.367188 62.273438 171.53125 62.628906 170.71875 C 62.988281 169.910156 63.421875 169.140625 63.929688 168.414062 C 64.4375 167.6875 65.011719 167.019531 65.648438 166.40625 C 66.289062 165.796875 66.984375 165.253906 67.730469 164.777344 C 73.980469 160.789062 82.324219 162.664062 86.304688 168.945312 Z M 86.304688 168.945312 " fill-opacity="1" fill-rule="nonzero"/>
    <g mask="url(#id2)">
        <g transform="matrix(1, 0, 0, 1, 68, 169)">
            <g clip-path="url(#id6)">
                <g clip-path="url(#id3)">
                    <g clip-path="url(#id4)">
                        <g clip-path="url(#id5)">
                            <path fill="#ffffff" d="M 7.082031 6.976562 C 6.152344 7.347656 5.507812 7.996094 5.140625 8.929688 C 4.808594 9.921875 4.625 11.003906 4.785156 12.050781 C 4.796875 12.832031 5.636719 13.441406 6.382812 13.175781 C 7.289062 12.878906 7.839844 11.96875 8.722656 11.601562 C 9.445312 11.210938 10.273438 11.359375 11.042969 11.359375 C 11.71875 11.394531 12.488281 11.003906 12.554688 10.277344 C 12.554688 9.550781 11.972656 9 11.476562 8.539062 C 10.558594 7.839844 9.582031 7.101562 8.425781 6.871094 C 7.964844 6.769531 7.519531 6.804688 7.082031 6.976562 Z M 1.574219 6.515625 C 1.339844 6.59375 1.152344 6.734375 1.011719 6.9375 C 0.867188 7.136719 0.800781 7.363281 0.804688 7.609375 C 0.851562 8.964844 2.191406 10.207031 3.582031 10 C 4.15625 9.898438 4.476562 9.3125 4.429688 8.769531 C 4.328125 7.609375 3.304688 6.585938 2.148438 6.46875 C 1.953125 6.4375 1.761719 6.453125 1.574219 6.515625 Z M 10.699219 2.933594 C 9.667969 3.378906 9.335938 4.691406 9.585938 5.703125 C 9.703125 6.464844 10.425781 7.269531 11.25 7.027344 C 12.375 6.601562 12.699219 5.128906 12.363281 4.082031 C 12.164062 3.375 11.464844 2.703125 10.699219 2.933594 Z M 2.722656 2.160156 C 2.128906 2.402344 1.875 3.183594 1.988281 3.792969 C 2.207031 5.015625 3.242188 6.246094 4.570312 6.164062 C 4.695312 6.152344 4.808594 6.113281 4.917969 6.050781 C 5.671875 5.625 5.683594 4.589844 5.386719 3.875 C 5.007812 2.921875 4.113281 1.988281 3.011719 2.09375 C 2.914062 2.101562 2.816406 2.125 2.722656 2.160156 Z M 6.855469 0.609375 L 6.785156 0.644531 C 5.867188 1.171875 5.707031 2.390625 5.960938 3.335938 C 6.144531 4.199219 6.890625 5.128906 7.867188 4.980469 C 8.007812 4.953125 8.136719 4.902344 8.257812 4.820312 C 9.21875 4.058594 9.242188 2.585938 8.691406 1.574219 C 8.394531 0.882812 7.589844 0.332031 6.855469 0.609375 Z M 6.855469 0.609375 " fill-opacity="1" fill-rule="nonzero"/>
                        </g>
                    </g>
                </g>
            </g>
        </g>
    </g>
    <g mask="url(#id7)">
        <g transform="matrix(1, 0, 0, 1, 84, 192)">
            <g clip-path="url(#id11)">
                <g clip-path="url(#id8)">
                    <g clip-path="url(#id9)">
                        <g clip-path="url(#id10)">
                            <path fill="#ffffff" d="M 5.851562 6.996094 C 4.992188 6.636719 3.9375 6.71875 3.109375 7.132812 C 2.191406 7.640625 1.34375 8.316406 0.757812 9.191406 C 0.238281 9.777344 0.445312 10.792969 1.179688 11.101562 C 2.054688 11.492188 3.074219 11.195312 3.96875 11.515625 C 4.761719 11.710938 5.277344 12.378906 5.851562 12.90625 C 6.324219 13.390625 7.160156 13.621094 7.699219 13.125 C 8.183594 12.597656 8.125 11.78125 8.066406 11.113281 C 7.859375 9.972656 7.640625 8.765625 6.929688 7.824219 C 6.648438 7.445312 6.289062 7.171875 5.851562 6.996094 Z M 2.085938 2.945312 C 1.863281 2.847656 1.628906 2.824219 1.386719 2.875 C 1.144531 2.929688 0.941406 3.046875 0.78125 3.234375 C -0.09375 4.269531 0.0546875 6.097656 1.226562 6.867188 C 1.71875 7.179688 2.351562 6.960938 2.683594 6.535156 C 3.382812 5.601562 3.316406 4.164062 2.546875 3.289062 C 2.421875 3.136719 2.269531 3.023438 2.085938 2.945312 Z M 11.234375 6.441406 C 10.179688 6.074219 9.042969 6.8125 8.550781 7.730469 C 8.125 8.363281 8.125 9.445312 8.894531 9.824219 C 10.007812 10.261719 11.246094 9.398438 11.695312 8.398438 C 12.039062 7.773438 11.96875 6.789062 11.234375 6.441406 Z M 5.863281 0.496094 C 5.253906 0.265625 4.542969 0.679688 4.222656 1.207031 C 3.558594 2.253906 3.5 3.867188 4.53125 4.707031 C 4.636719 4.773438 4.746094 4.820312 4.863281 4.855469 C 5.714844 5.050781 6.414062 4.304688 6.679688 3.566406 C 7.046875 2.613281 7 1.3125 6.117188 0.644531 C 6.046875 0.570312 5.960938 0.519531 5.863281 0.496094 Z M 9.964844 2.132812 C 9.941406 2.121094 9.921875 2.113281 9.894531 2.113281 C 8.863281 1.882812 7.921875 2.675781 7.472656 3.539062 C 7.027344 4.308594 6.957031 5.492188 7.785156 6.046875 C 7.90625 6.128906 8.039062 6.171875 8.183594 6.183594 C 9.414062 6.265625 10.410156 5.195312 10.6875 4.078125 C 10.917969 3.378906 10.699219 2.421875 9.964844 2.132812 Z M 9.964844 2.132812 " fill-opacity="1" fill-rule="nonzero"/>
                        </g>
                    </g>
                </g>
            </g>
        </g>
    </g>
    <path fill="#c9c9c9" d="M 294.757812 195.363281 L 296.449219 195.363281 L 289.480469 180.085938 L 287.890625 180.085938 L 280.921875 195.363281 L 282.613281 195.363281 L 284.433594 191.285156 L 292.9375 191.285156 Z M 285.019531 189.976562 L 288.691406 181.757812 L 292.359375 189.976562 Z M 285.019531 189.976562 " fill-opacity="1" fill-rule="nonzero"/>
    <path fill="#c9c9c9" d="M 305.644531 195.5 C 304.546875 195.511719 303.484375 195.320312 302.460938 194.921875 C 301.5 194.554688 300.652344 194.003906 299.917969 193.277344 C 299.191406 192.570312 298.632812 191.746094 298.242188 190.808594 C 297.839844 189.820312 297.636719 188.789062 297.636719 187.722656 C 297.636719 186.652344 297.839844 185.621094 298.242188 184.632812 C 298.636719 183.691406 299.199219 182.863281 299.929688 182.152344 C 300.660156 181.4375 301.496094 180.894531 302.445312 180.519531 C 303.476562 180.136719 304.539062 179.949219 305.636719 179.949219 C 306.734375 179.949219 307.796875 180.136719 308.828125 180.519531 C 309.78125 180.886719 310.621094 181.429688 311.351562 182.148438 C 311.898438 182.710938 312.351562 183.339844 312.714844 184.035156 C 313.078125 184.730469 313.335938 185.464844 313.484375 186.238281 C 313.632812 187.007812 313.667969 187.785156 313.589844 188.566406 C 313.511719 189.347656 313.324219 190.101562 313.027344 190.828125 C 312.632812 191.769531 312.070312 192.59375 311.339844 193.304688 C 310.609375 194.015625 309.773438 194.554688 308.824219 194.921875 C 307.796875 195.308594 306.738281 195.5 305.644531 195.5 Z M 305.644531 194.054688 C 306.515625 194.066406 307.359375 193.910156 308.167969 193.585938 C 308.933594 193.28125 309.609375 192.839844 310.191406 192.261719 C 310.777344 191.683594 311.226562 191.011719 311.535156 190.25 C 311.78125 189.660156 311.941406 189.046875 312.007812 188.414062 C 312.074219 187.777344 312.050781 187.148438 311.929688 186.519531 C 311.8125 185.890625 311.605469 185.296875 311.308594 184.730469 C 311.011719 184.164062 310.640625 183.652344 310.195312 183.195312 C 309.613281 182.613281 308.9375 182.171875 308.167969 181.871094 C 307.359375 181.546875 306.515625 181.390625 305.644531 181.402344 C 304.765625 181.390625 303.917969 181.546875 303.097656 181.871094 C 302.332031 182.175781 301.648438 182.617188 301.054688 183.195312 C 300.476562 183.78125 300.023438 184.453125 299.699219 185.210938 C 299.359375 186.015625 299.195312 186.855469 299.214844 187.730469 C 299.207031 188.597656 299.367188 189.429688 299.699219 190.234375 C 300.011719 191 300.460938 191.671875 301.054688 192.246094 C 301.640625 192.835938 302.324219 193.277344 303.097656 193.574219 C 303.914062 193.910156 304.761719 194.074219 305.644531 194.054688 Z M 305.644531 194.054688 " fill-opacity="1" fill-rule="nonzero"/>
    <path fill="#ffffff" d="M 139.054688 181.679688 C 140.34375 182.789062 140.996094 184.386719 140.996094 186.449219 L 136.40625 186.449219 C 136.40625 185.578125 136.179688 184.886719 135.71875 184.386719 C 135.257812 183.882812 134.613281 183.628906 133.777344 183.628906 C 132.804688 183.628906 132.085938 183.933594 131.632812 184.550781 C 131.179688 185.167969 130.945312 186.007812 130.945312 187.101562 L 130.945312 188.496094 C 130.945312 189.570312 131.171875 190.429688 131.632812 191.027344 C 132.089844 191.628906 132.789062 191.949219 133.726562 191.949219 C 134.664062 191.949219 135.367188 191.714844 135.835938 191.226562 C 136.304688 190.738281 136.554688 190.066406 136.554688 189.195312 L 140.996094 189.195312 C 140.996094 191.242188 140.375 192.820312 139.121094 193.910156 C 137.863281 195 136.085938 195.539062 133.792969 195.539062 C 131.230469 195.539062 129.304688 194.886719 127.996094 193.574219 C 126.691406 192.265625 126.019531 190.335938 126.019531 187.765625 C 126.019531 185.199219 126.675781 183.265625 127.996094 181.957031 C 129.304688 180.648438 131.246094 179.992188 133.792969 179.992188 C 136.007812 180.003906 137.765625 180.558594 139.054688 181.679688 Z M 139.054688 181.679688 " fill-opacity="1" fill-rule="nonzero"/>
    <path fill="#ffffff" d="M 153.695312 195.285156 L 153.695312 189.589844 L 148.402344 189.589844 L 148.402344 195.285156 L 143.59375 195.285156 L 143.59375 180.269531 L 148.402344 180.269531 L 148.402344 185.746094 L 153.695312 185.746094 L 153.695312 180.269531 L 158.5 180.269531 L 158.5 195.285156 Z M 153.695312 195.285156 " fill-opacity="1" fill-rule="nonzero"/>
    <path fill="#ffffff" d="M 172.4375 195.285156 L 166.140625 187.992188 L 166.140625 195.285156 L 161.71875 195.285156 L 161.71875 180.269531 L 165.921875 180.269531 L 172.21875 187.675781 L 172.21875 180.269531 L 176.640625 180.269531 L 176.640625 195.285156 Z M 172.4375 195.285156 " fill-opacity="1" fill-rule="nonzero"/>
    <path fill="#ffffff" d="M 193.304688 181.984375 C 194.714844 183.3125 195.417969 185.242188 195.417969 187.777344 C 195.417969 190.308594 194.714844 192.242188 193.304688 193.550781 C 191.898438 194.859375 189.90625 195.53125 187.328125 195.53125 C 184.75 195.53125 182.753906 194.878906 181.347656 193.550781 C 179.941406 192.226562 179.253906 190.3125 179.253906 187.757812 C 179.253906 185.207031 179.957031 183.273438 181.347656 181.96875 C 182.738281 180.660156 184.742188 179.984375 187.328125 179.984375 C 189.890625 180.003906 191.882812 180.675781 193.304688 181.984375 Z M 184.964844 184.535156 C 184.429688 185.15625 184.160156 186.011719 184.160156 187.066406 L 184.160156 188.460938 C 184.160156 189.519531 184.429688 190.375 184.964844 190.992188 C 185.5 191.605469 186.289062 191.929688 187.308594 191.929688 C 188.347656 191.929688 189.136719 191.613281 189.671875 190.992188 C 190.207031 190.371094 190.492188 189.511719 190.492188 188.460938 L 190.492188 187.070312 C 190.492188 186.011719 190.226562 185.15625 189.671875 184.539062 C 189.117188 183.921875 188.332031 183.601562 187.308594 183.601562 C 186.289062 183.601562 185.5 183.914062 184.964844 184.535156 Z M 184.964844 184.535156 " fill-opacity="1" fill-rule="nonzero"/>
    <path fill="#ffffff" d="M 211.429688 181.984375 C 212.835938 183.3125 213.539062 185.242188 213.539062 187.777344 C 213.539062 190.308594 212.835938 192.242188 211.429688 193.550781 C 210.023438 194.859375 208.03125 195.53125 205.449219 195.53125 C 202.871094 195.53125 200.878906 194.878906 199.46875 193.550781 C 198.0625 192.226562 197.378906 190.3125 197.378906 187.757812 C 197.378906 185.207031 198.082031 183.273438 199.46875 181.96875 C 200.878906 180.65625 202.871094 179.984375 205.449219 179.984375 C 208.027344 179.984375 210.023438 180.675781 211.429688 181.984375 Z M 203.085938 184.535156 C 202.550781 185.15625 202.285156 186.011719 202.285156 187.066406 L 202.285156 188.460938 C 202.285156 189.519531 202.550781 190.375 203.085938 190.992188 C 203.625 191.605469 204.410156 191.929688 205.433594 191.929688 C 206.457031 191.929688 207.257812 191.613281 207.792969 190.992188 C 208.332031 190.371094 208.617188 189.511719 208.617188 188.460938 L 208.617188 187.070312 C 208.617188 186.011719 208.347656 185.15625 207.792969 184.539062 C 207.257812 183.917969 206.453125 183.601562 205.433594 183.601562 C 204.410156 183.601562 203.640625 183.914062 203.085938 184.535156 Z M 203.085938 184.535156 " fill-opacity="1" fill-rule="nonzero"/>
    <path fill="#ffffff" d="M 230.488281 187.777344 C 230.488281 192.78125 227.871094 195.28125 222.632812 195.28125 L 216.152344 195.28125 L 216.152344 180.269531 L 222.632812 180.269531 C 227.859375 180.269531 230.488281 182.773438 230.488281 187.777344 Z M 220.941406 191.6875 L 222.535156 191.6875 C 224.542969 191.6875 225.566406 190.597656 225.566406 188.429688 L 225.566406 187.117188 C 225.566406 184.949219 224.5625 183.859375 222.535156 183.859375 L 220.941406 183.859375 Z M 220.941406 191.6875 " fill-opacity="1" fill-rule="nonzero"/>
    <path fill="#ffffff" d="M 233.085938 180.269531 L 237.894531 180.269531 L 237.894531 191.453125 L 245.582031 191.453125 L 245.582031 195.296875 L 233.085938 195.296875 Z M 233.085938 180.269531 " fill-opacity="1" fill-rule="nonzero"/>
    <path fill="#ffffff" d="M 247.609375 180.269531 L 260.554688 180.269531 L 260.554688 183.882812 L 252.414062 183.882812 L 252.414062 185.945312 L 259.382812 185.945312 L 259.382812 189.386719 L 252.414062 189.386719 L 252.414062 191.6875 L 260.707031 191.6875 L 260.707031 195.285156 L 247.609375 195.285156 Z M 247.609375 180.269531 " fill-opacity="1" fill-rule="nonzero"/>
    <path fill="#ffffff" d="M 121.46875 178.828125 C 122.894531 179.734375 123.613281 181.058594 123.664062 182.824219 L 123.664062 183.125 L 118.453125 183.125 L 118.453125 183.023438 C 118.464844 182.519531 118.277344 182.097656 117.902344 181.765625 C 117.53125 181.429688 116.980469 181.261719 116.226562 181.261719 C 115.46875 181.261719 114.917969 181.375 114.535156 181.597656 C 114.132812 181.816406 113.949219 182.085938 113.949219 182.402344 C 113.949219 182.855469 114.214844 183.191406 114.75 183.410156 C 115.289062 183.628906 116.140625 183.863281 117.332031 184.082031 C 118.492188 184.3125 119.636719 184.609375 120.765625 184.972656 C 121.667969 185.292969 122.453125 185.800781 123.113281 186.5 C 123.785156 187.203125 124.121094 188.160156 124.136719 189.371094 C 124.136719 191.417969 123.449219 192.949219 122.058594 193.9375 C 120.671875 194.929688 118.828125 195.414062 116.515625 195.414062 C 113.816406 195.414062 111.726562 194.960938 110.21875 194.054688 C 108.710938 193.148438 107.964844 191.554688 107.964844 189.234375 L 113.222656 189.234375 C 113.222656 190.109375 113.453125 190.695312 113.894531 190.984375 C 114.335938 191.269531 115.050781 191.417969 116.003906 191.417969 C 116.707031 191.417969 117.292969 191.351562 117.746094 191.199219 C 118.199219 191.050781 118.433594 190.746094 118.433594 190.28125 C 118.433594 189.859375 118.183594 189.542969 117.664062 189.339844 C 116.851562 189.050781 116.019531 188.828125 115.167969 188.667969 C 113.988281 188.429688 112.828125 188.113281 111.6875 187.730469 C 110.742188 187.394531 109.9375 186.851562 109.277344 186.101562 C 108.585938 185.34375 108.253906 184.320312 108.253906 183.027344 C 108.253906 181.128906 108.992188 179.738281 110.449219 178.832031 C 111.90625 177.925781 113.765625 177.488281 116.007812 177.488281 C 118.234375 177.484375 120.042969 177.9375 121.46875 178.828125 Z M 121.46875 178.828125 " fill-opacity="1" fill-rule="nonzero"/>
    <path fill="#c9c9c9" d="M 278.769531 183.773438 C 278.070312 182.582031 277.105469 181.675781 275.878906 181.050781 C 274.636719 180.402344 273.207031 180.074219 271.589844 180.074219 L 265.351562 180.074219 L 265.351562 186.960938 L 263.03125 186.960938 L 263.03125 188.257812 L 265.351562 188.257812 L 265.351562 195.433594 L 271.589844 195.433594 C 273.207031 195.433594 274.636719 195.105469 275.878906 194.457031 C 277.105469 193.832031 278.070312 192.925781 278.769531 191.738281 C 279.457031 190.574219 279.800781 189.246094 279.800781 187.753906 C 279.800781 186.261719 279.457031 184.933594 278.769531 183.773438 Z M 277.367188 191.011719 C 276.800781 191.976562 276.019531 192.714844 275.023438 193.226562 C 274.019531 193.765625 272.84375 194.035156 271.5 194.035156 L 266.972656 194.035156 L 266.972656 188.257812 L 271.523438 188.257812 L 271.523438 186.960938 L 266.972656 186.960938 L 266.972656 181.480469 L 271.503906 181.480469 C 272.847656 181.480469 274.023438 181.75 275.027344 182.285156 C 276.023438 182.800781 276.804688 183.539062 277.371094 184.503906 C 277.925781 185.445312 278.203125 186.53125 278.203125 187.761719 C 278.203125 188.988281 277.925781 190.074219 277.367188 191.011719 Z M 277.367188 191.011719 " fill-opacity="1" fill-rule="nonzero"/>
</svg>
