<?xml version="1.0" encoding="utf-8"?>
<!-- Generator: Adobe Illustrator 25.4.1, SVG Export Plug-In . SVG Version: 6.00 Build 0)  -->
<svg version="1.1" id="Layer_1" xmlns="http://www.w3.org/2000/svg" xmlns:xlink="http://www.w3.org/1999/xlink" x="0px" y="0px"
	 viewBox="0 0 555 73.4" style="enable-background:new 0 0 555 73.4;" xml:space="preserve">
<style type="text/css">
	.st0{fill:#FFFFFF;}
	.st1{fill:none;stroke:#F15A24;stroke-width:3;stroke-miterlimit:10;}
	.st2{fill:none;stroke:#F15A24;stroke-width:3.0002;stroke-miterlimit:10.0004;}
	.st3{fill:none;stroke:#F15A24;stroke-width:3;stroke-miterlimit:9.9998;}
	.st4{display:none;}
	.st5{display:inline;fill:none;stroke:#F15A24;stroke-width:3;stroke-miterlimit:10;}
</style>
<g>
	<path class="st0" d="M33.9,73.4c-3.2-0.1-6.1-0.4-8.7-0.8s-5.1-1.1-7.4-2.1c-2.4-0.9-4.4-2.1-6-3.6c-1.6-1.4-3-3.3-4.1-5.5
		s-1.7-4.8-2-7.8c0-0.5,0.3-0.8,0.8-0.9c0.2,0.1,0.4,0.1,0.8,0.1c2.3,0,5.7-0.1,10.3-0.2s8.1-0.2,10.3-0.2c0.6,0,1,0.2,1.4,0.6
		s0.6,0.8,0.8,1.4s0.5,1.1,0.7,1.6s0.8,1,1.5,1.4C33,57.8,33.9,58,35,58c1.3,0,2.5-0.4,3.5-1.1s1.5-1.8,1.5-3.1
		c0-0.8-0.4-1.6-1.3-2.3c-0.9-0.7-2-1.3-3.5-1.7s-2.8-0.8-4.1-1.1c-1.3-0.3-2.6-0.6-4-0.8s-2.2-0.4-2.4-0.4
		c-6.6-1.8-11.4-4-14.3-6.7C7.5,38.1,6,34.5,6,29.8c0-3.3,0.6-6.2,1.8-8.8s2.8-4.7,4.7-6.4s4.2-3,6.9-4.1s5.3-1.9,8-2.3
		s5.5-0.7,8.4-0.7c7.7,0,13.8,1.4,18.4,4.3c1.7,1.7,2.9,2.9,3.7,3.8s1.5,1.9,2.3,3c0.7,1.1,1.2,2.3,1.5,3.4s0.5,2.5,0.6,4.1
		l-1.5,1.5c-5.6,0.2-11.9,0.3-18.9,0.3c-0.9,0-1.6-0.1-2.1-0.3c-0.5-0.2-0.9-0.4-1.1-0.7c-0.2-0.3-0.4-0.6-0.5-0.9
		c-0.2-0.3-0.3-0.6-0.5-0.9s-0.5-0.5-0.9-0.7c-0.5-0.2-1.1-0.3-1.9-0.3c-0.2,0-0.6,0-1,0.1c-0.5,0.1-1,0.2-1.7,0.4
		c-0.6,0.2-1.2,0.5-1.7,0.8c-0.5,0.4-0.7,0.8-0.7,1.3c0,0.6,0.3,1.1,0.9,1.6s1.3,0.8,1.9,1.1c0.7,0.2,1.5,0.5,2.5,0.7
		c1,0.3,1.6,0.4,1.9,0.5c6,1.5,9.5,2.4,10.7,2.8c6,1.9,10.2,4.4,12.7,7.4c2.3,2.8,3.4,6.4,3.4,10.7c0,2.6-0.3,5-1,7.1
		s-1.6,3.9-2.6,5.4c-1.1,1.5-2.5,2.8-4.1,3.9s-3.3,2.1-5,2.7c-1.7,0.7-3.6,1.3-5.7,1.7s-4.1,0.8-5.9,1C37.9,73.1,36,73.3,33.9,73.4z
		"/>
	<path class="st0" d="M94.7,70.6c-4.6,0-8.7-0.8-12.3-2.3s-6.6-3.7-8.9-6.4c-2.3-2.7-4.1-5.9-5.3-9.6s-1.8-7.6-1.8-12v-0.6
		c0-0.2,0.1-0.7,0.1-1.4c0.1-0.8,0.1-1.2,0.1-1.5c0-0.2,0.1-0.7,0.1-1.3s0.1-1.1,0.2-1.4c0.1-0.3,0.1-0.7,0.2-1.3s0.2-1,0.3-1.4
		s0.3-0.8,0.4-1.3c0.2-0.5,0.3-1,0.5-1.5s0.4-0.9,0.7-1.4v0.1c1.3-2.6,2.8-4.9,4.8-6.8c1.9-1.9,4-3.4,6.3-4.5s4.6-1.8,7.1-2.3
		c2.4-0.5,4.9-0.7,7.6-0.7c3.4,0,6.5,0.3,9.2,1s5,1.6,6.8,2.7s3.3,2.5,4.6,4.1s2.3,3.2,2.9,4.9c0.7,1.7,1.1,3.5,1.4,5.5v3.5
		c-0.1,0.4-0.3,0.7-0.6,0.9s-0.7,0.3-1.1,0.4c-0.4,0-0.9,0.1-1.6,0.1H99v-3.5c-0.1-0.9-0.5-1.8-1.2-2.5c-0.7-0.8-1.5-1.1-2.4-1.1
		c-0.8,0-1.6,0.2-2.2,0.5c-0.6,0.4-1.1,0.8-1.5,1.4S91,32.2,90.8,33s-0.4,1.6-0.5,2.5s-0.1,1.7-0.2,2.6c0,0.9,0,1.7,0,2.5
		c0,0.5,0,0.9,0,1.2v4.6c0,0.7,0,1.3,0.1,2c0.1,0.6,0.2,1.5,0.5,2.5s0.7,1.8,1.4,2.5c0.7,0.6,1.5,0.9,2.5,0.9s1.8-0.4,2.3-1.3
		s0.9-1.9,1.3-3.2c0.3-1.2,0.7-2.1,1.2-2.5c1.1,0,2.7,0,4.9,0s3.8,0,4.9,0c0.8,0,1.9,0,3.4,0s2.6,0,3.4,0h3c0.9,0,1.4,0.5,1.5,1.6
		v1.6c-0.6,5.4-2.6,9.8-6,13.2c-3.4,3.3-7.7,5.5-12.8,6.4v0.2C99.8,70.4,97.5,70.6,94.7,70.6z"/>
	<path class="st0" d="M178.5,16.2v50.4c0,0.6,0,1-0.1,1.4s-0.2,0.7-0.3,1c-0.2,0.3-0.5,0.5-0.8,0.5h-20.9v-0.9
		c-0.1-0.1-0.3-0.2-0.6-0.4c-0.4-0.2-0.6-0.4-0.7-0.5V51.1c0-0.6,0-0.9-0.1-1s-0.5-0.1-1.2-0.1H151c-0.7,0-1.4,0.1-2.3,0.2v17.7
		c-0.1,0.5-0.3,0.8-0.6,0.9s-0.8,0.2-1.4,0.2h-1.9c-1.3,0-3.3,0-6,0.1s-4.8,0.1-6.3,0.1H127c-1.2,0-1.8-0.7-1.8-2l0.2-51.7
		c0-0.1,0-0.3,0.1-0.3c0.1-0.1,0.2-0.2,0.5-0.4c0.2-0.2,0.4-0.3,0.4-0.3h22.1v17.6h7.1V14h20.9c0.7,0,1.1,0.2,1.4,0.5
		C178.3,14.8,178.5,15.4,178.5,16.2z"/>
	<path class="st0" d="M240.8,14.5c0.3,0.1,0.6,0.6,0.8,1.4s0.3,1.9,0.3,3.1c0,1.3,0,2.5,0,3.6s-0.1,2.3-0.1,3.5s-0.1,2-0.1,2.3
		c-0.1,1.1-0.1,2.6-0.1,4.6v4.3c0,1.9,0,4.5,0.1,7.9c0.1,3.3,0.1,5.8,0.1,7.4v14.9c-0.1,0.9-0.9,1.4-2.3,1.4h-23
		c-0.5-0.1-1.1-1.3-1.9-3.4c-0.5-1.4-1.4-3.8-2.6-7.1c-1.2-3.3-2.3-6.2-3.1-8.7c-0.9-2.5-1.7-4.9-2.4-7.3v-0.2v0.2
		c-0.1,1.8-0.2,4.5-0.2,8.1s-0.2,6.2-0.2,8v8.4c0,0.8-0.1,1.4-0.3,1.7c-0.2,0.3-0.7,0.6-1.5,0.8h-16.9l-1.8-1.8
		c0.1-4.5,0.2-11.6,0.3-21.3s0.2-16.8,0.3-21.5v-8.9c0.3-1,0.6-1.5,1-1.5v0.2c1.9,0,4.8-0.1,8.8-0.2c4-0.1,7-0.2,9-0.2h6.9h0.1
		c0.5,0.2,0.8,0.4,0.8,0.7v0.3c1,2.7,2,5.4,3,8.2s2.2,6.3,3.6,10.3s2.4,6.8,2.9,8.3v-6c0.5-9.6,0.8-16.5,0.8-20.5
		c0-0.4,0.3-0.7,0.9-0.8s1.5-0.2,2.8-0.2H240.8z"/>
	<path class="st0" d="M424.2,14c3.7,0,7.1,0.2,10.1,0.7s5.9,1.4,8.6,2.6c2.7,1.3,5,2.9,6.9,4.9c1.8,2,3.3,4.6,4.4,7.9
		c1.1,3.2,1.6,7,1.6,11.2c0,3.1-0.4,6-1.1,8.7s-1.8,5-3,7c-1.3,1.9-2.8,3.7-4.4,5.2s-3.5,2.8-5.4,3.7c-1.9,1-3.9,1.7-5.8,2.2
		s-3.9,0.8-5.8,0.9H402V14.7c0.1,0,0.2,0,0.5,0c0.2,0,0.4,0,0.5,0c1.2,0,3-0.1,5.4-0.4s4.2-0.4,5.4-0.4L424.2,14L424.2,14L424.2,14z
		 M424.7,56.3c1.4,0,2.6-0.2,3.7-0.7s1.9-1.1,2.6-1.9c0.6-0.8,1.2-1.7,1.6-2.7c0.4-0.9,0.7-2,0.9-3.3s0.3-2.4,0.4-3.3s0.1-2,0.1-3.2
		v-3c0-0.2-0.1-1.1-0.2-2.8s-0.4-3.1-0.9-4.3c-0.4-0.8-0.9-1.6-1.5-2.2s-1.1-1.1-1.6-1.4s-1.1-0.6-1.8-0.8c-0.7-0.2-1.3-0.3-1.9-0.3
		c-0.6-0.1-1.3-0.1-2.1-0.1v0.9h-1.2v29h1.9V56.3z"/>
	<path class="st0" d="M461.9,69.3c-0.1-0.1-0.2-0.2-0.4-0.4c-0.2-0.1-0.4-0.4-0.6-0.8V50.4c0-2.3,0.1-5.9,0.3-10.7
		c0.2-4.8,0.3-8.5,0.3-11c0-0.5-0.1-1.7-0.2-3.5s-0.2-3.2-0.2-4.2c0-3.9,0.5-6.2,1.4-7.1c5.7,0.1,9.9,0.2,12.7,0.2h3.9
		c0.9,0,1.6,0,2.1,0.1c0.1-0.1,0.2-0.1,0.4-0.1c0.1,0,0.3,0,0.7,0.1s0.8,0.1,1,0.1c0.7,0.1,1.3,0.7,1.7,1.7v0.6c0,0.3,0,0.7,0,1.3
		s0,1,0,1.3V21c0,0.1-0.2,0.4-0.5,0.7s-0.5,0.6-0.5,0.8v29.9h17.4c0.4,0,0.8,0,1,0s0.4,0.2,0.7,0.4c0.2,0.2,0.3,0.5,0.3,1v13.7
		c-0.2,1.1-1.5,1.6-3.9,1.6h-37.6L461.9,69.3L461.9,69.3z"/>
	<path class="st0" d="M507.2,18c0-1.6,0.1-2.6,0.2-2.9c0.2-0.4,0.6-0.6,1.2-0.6h1c0.4,0,0.7,0,0.9,0.1h2.1c2.8,0,6.9-0.1,12.5-0.2
		c5.6-0.1,9.8-0.2,12.6-0.2h10.9c0.7,0.1,1.1,0.4,1.1,1.1V29c0,0.2-0.1,0.3-0.1,0.4s-0.1,0.2-0.2,0.2s-0.2,0.1-0.4,0.3
		c-0.2,0.2-0.4,0.3-0.5,0.3h-19v5.1h1.8c1.6,0,4-0.1,7.3-0.2s5.8-0.2,7.5-0.2c0.8,0,1.3,0.2,1.6,0.5s0.4,0.7,0.4,1.3
		c0,0.1,0,0.4-0.1,0.7s-0.1,0.6-0.1,0.7v1.6c0,0.1,0,0.3,0,0.7c0,0.3,0,0.6,0,0.9v1.1c0,0.6,0,1.2,0.1,1.8s0.1,1.1,0.1,1.6v1.1
		c-0.1,0.3-0.2,0.5-0.3,0.7c-0.1,0.1-0.2,0.2-0.4,0.2v-0.1c-1,0-2.8,0.1-5.2,0.2c-2.5,0.1-4.5,0.2-5.9,0.2h-6.6v5.2c0.2,0,0.5,0,1,0
		c0.4,0,0.8,0,1,0c1.2,0,3,0,5.5-0.1s4.1-0.1,5.2-0.1h5.2c1.4,0,2.3,0.2,2.7,0.5c0.1,0.2,0.2,0.3,0.3,0.5v13.1c0,0.6-0.1,1-0.3,1.3
		s-0.6,0.5-1.2,0.5h-40.6l-1.2-1.1L507.2,18L507.2,18z"/>
</g>
<g>
	<g>
		<path class="st1" d="M382.3,56.1c-0.9-2.8-2.8-4.8-3.3-5.3c-0.8-0.8-1.5-1.3-1.9-1.6c-4-3.1-4-8.4-6.8-11.9
			c-1.4-1.8-4.2-3.9-10-4.4c-0.1,0-0.1,0-0.2,0s-0.1,0-0.2,0c-5.8,0.6-8.6,2.6-10,4.4c-2.8,3.5-2.8,8.8-6.8,11.9
			c-0.4,0.3-1,0.7-1.9,1.6c-0.5,0.5-2.4,2.5-3.3,5.3c-1,3.1-0.9,7.9,2.2,11c2.2,2.1,4.9,2.5,5.3,2.5c4.1,0.5,5.9-2.4,12.2-2.8
			c0.5,0,1-0.1,2.3,0c1.3,0,1.8,0,2.3,0c6.3,0.4,8.1,3.3,12.2,2.8c0.4,0,3.2-0.4,5.3-2.5C383.2,64,383.2,59.1,382.3,56.1z"/>
		<g>
			
				<ellipse transform="matrix(0.9339 -0.3576 0.3576 0.9339 8.8319 121.9639)" class="st2" cx="334.2" cy="37.1" rx="7.7" ry="11.4"/>
			
				<ellipse transform="matrix(0.3576 -0.9339 0.9339 0.3576 213.4481 384.4979)" class="st2" cx="386.2" cy="37.1" rx="11.4" ry="7.7"/>
		</g>
		<g>
			<ellipse transform="matrix(0.9909 -0.1345 0.1345 0.9909 0.604 47.1406)" class="st3" cx="349.2" cy="19.1" rx="7.7" ry="11.4"/>
			
				<ellipse transform="matrix(0.1345 -0.9909 0.9909 0.1345 302.4221 384.2962)" class="st3" cx="371.2" cy="19" rx="11.4" ry="7.7"/>
		</g>
	</g>
	<g class="st4">
		<path class="st5" d="M333.2,30.5c-0.1-1.6-0.6-4.4-2.6-6.8c-1.6-1.8-3.9-3.2-4.3-2.8c-0.3,0.3,0.6,1.6,1.5,3.8
			c1,2.5,1.5,4.7,1.7,6.4C330.7,30.9,332,30.7,333.2,30.5z"/>
		<path class="st5" d="M349,12.5c0.4-1.6,0.9-4.4-0.2-7.3c-0.9-2.2-2.6-4.3-3.2-4.1c-0.4,0.2,0,1.7,0.2,4.1c0.2,2.7-0.2,5-0.5,6.6
			C346.5,12,347.7,12.2,349,12.5z"/>
		<path class="st5" d="M387.1,30.5c0.1-1.6,0.6-4.4,2.6-6.8c1.6-1.8,3.9-3.2,4.3-2.8c0.3,0.3-0.6,1.6-1.5,3.8
			c-1,2.5-1.5,4.7-1.7,6.4C389.7,30.9,388.4,30.7,387.1,30.5z"/>
		<path class="st5" d="M371.4,12.5c-0.4-1.6-0.9-4.4,0.2-7.3c0.9-2.2,2.6-4.3,3.2-4.1c0.4,0.2,0,1.7-0.2,4.1c-0.2,2.7,0.2,5,0.5,6.6
			C373.9,12,372.7,12.2,371.4,12.5z"/>
	</g>
	<g>
		<g>
			<path class="st1" d="M306.9,56.5c-0.9-2.8-2.8-4.8-3.3-5.3c-0.8-0.8-1.5-1.3-1.9-1.6c-4-3.1-4-8.4-6.8-11.9
				c-1.4-1.8-4.2-3.9-10-4.4c-0.1,0-0.1,0-0.2,0s-0.1,0-0.2,0c-5.8,0.6-8.6,2.6-10,4.4c-2.8,3.5-2.8,8.8-6.8,11.9
				c-0.4,0.3-1,0.7-1.9,1.6c-0.5,0.5-2.4,2.5-3.3,5.3c-1,3.1-0.9,7.9,2.2,11c2.2,2.1,4.9,2.5,5.3,2.5c4.1,0.5,5.9-2.4,12.2-2.8
				c0.5,0,1-0.1,2.3,0c1.3,0,1.8,0,2.3,0c6.3,0.4,8.1,3.3,12.2,2.8c0.4,0,3.2-0.4,5.3-2.5C307.8,64.4,307.8,59.6,306.9,56.5z"/>
			<g>
				
					<ellipse transform="matrix(0.9339 -0.3576 0.3576 0.9339 3.7044 95.0277)" class="st2" cx="258.8" cy="37.5" rx="7.7" ry="11.4"/>
				
					<ellipse transform="matrix(0.3576 -0.9339 0.9339 0.3576 164.65 314.3093)" class="st2" cx="310.8" cy="37.5" rx="11.4" ry="7.7"/>
			</g>
			<g>
				
					<ellipse transform="matrix(0.9909 -0.1345 0.1345 0.9909 -0.1348 37.003)" class="st3" cx="273.8" cy="19.5" rx="7.7" ry="11.4"/>
				
					<ellipse transform="matrix(0.1345 -0.9909 0.9909 0.1345 236.5743 310.0118)" class="st3" cx="295.8" cy="19.6" rx="11.4" ry="7.7"/>
			</g>
		</g>
		<g class="st4">
			<path class="st5" d="M257.8,30.9c-0.1-1.6-0.6-4.4-2.6-6.8c-1.6-1.8-3.9-3.2-4.3-2.8c-0.3,0.3,0.6,1.6,1.5,3.8
				c1,2.5,1.5,4.7,1.7,6.4C255.3,31.3,256.6,31.1,257.8,30.9z"/>
			<path class="st5" d="M273.6,12.9c0.4-1.6,0.9-4.4-0.2-7.3c-0.9-2.2-2.6-4.3-3.2-4.1c-0.4,0.2,0,1.7,0.2,4.1
				c0.2,2.7-0.2,5-0.5,6.6C271.1,12.4,272.3,12.6,273.6,12.9z"/>
			<path class="st5" d="M311.7,30.9c0.1-1.6,0.6-4.4,2.6-6.8c1.6-1.8,3.9-3.2,4.3-2.8c0.3,0.3-0.6,1.6-1.5,3.8
				c-1,2.5-1.5,4.7-1.7,6.4C314.2,31.3,313,31.1,311.7,30.9z"/>
			<path class="st5" d="M296,12.9c-0.4-1.6-0.9-4.4,0.2-7.3c0.9-2.2,2.6-4.3,3.2-4.1c0.4,0.2,0,1.7-0.2,4.1c-0.2,2.7,0.2,5,0.5,6.6
				C298.5,12.4,297.2,12.6,296,12.9z"/>
		</g>
	</g>
</g>
</svg>
