<?xml version="1.0" standalone="no"?>
<!DOCTYPE svg PUBLIC "-//W3C//DTD SVG 20010904//EN"
 "http://www.w3.org/TR/2001/REC-SVG-20010904/DTD/svg10.dtd">
<svg version="1.0" xmlns="http://www.w3.org/2000/svg"
 width="858.000000pt" height="980.000000pt" viewBox="0 0 858.000000 980.000000"
 preserveAspectRatio="xMidYMid meet">

<g transform="translate(0.000000,980.000000) scale(0.100000,-0.100000)"
fill="#000000" stroke="none">
<path d="M3190 8828 c-602 -533 -1096 -971 -1097 -976 -1 -4 492 -443 1095
-975 l1097 -968 3 657 2 657 138 -7 c1055 -52 1996 -660 2472 -1596 232 -458
332 -903 317 -1419 -11 -388 -88 -736 -241 -1091 -199 -461 -562 -907 -986
-1210 -400 -287 -876 -468 -1380 -526 -197 -22 -567 -15 -756 15 -639 100
-1178 374 -1635 830 -387 387 -635 821 -769 1347 -111 431 -119 908 -24 1349
22 102 79 298 114 389 17 43 28 81 26 84 -7 6 -1268 463 -1271 460 -10 -11
-91 -250 -124 -364 -330 -1146 -171 -2382 437 -3394 1090 -1815 3316 -2564
5287 -1779 155 62 436 202 595 296 550 329 1029 788 1385 1328 849 1289 935
2952 224 4324 -651 1256 -1875 2109 -3279 2285 -111 14 -412 36 -497 36 l-33
0 -2 608 -3 608 -1095 -968z"/>
<path d="M4033 5056 c-211 -56 -397 -189 -517 -370 -157 -237 -184 -572 -67
-831 119 -261 369 -456 647 -505 90 -16 295 -8 379 15 86 23 250 107 322 165
329 264 419 740 211 1111 -86 152 -211 269 -373 349 -139 68 -194 81 -365 86
-130 4 -155 2 -237 -20z"/>
</g>
</svg>
