<svg height='100px' width='100px'  fill="#34d399" xmlns="http://www.w3.org/2000/svg" xmlns:xlink="http://www.w3.org/1999/xlink" viewBox="0 0 17 14" version="1.1" x="0px" y="0px"><title>reset</title><desc>Created with Sketch.</desc><g stroke="none" stroke-width="1" fill="none" fill-rule="evenodd"><path d="M2.09819908,6 L0.762199076,6 C0.158199076,6 -0.0938009244,6.583 0.0311990756,7 L2.45119908,11.435 C2.74319908,11.814 3.24019908,11.813 3.61119908,11.286 L6.03119908,7 C6.15619908,6.48 5.90519908,6 5.30019908,6 L4.11819908,6 C4.55719908,3.564 6.59319908,2 9.03119908,2 C11.7881991,2 14.0311991,4.243 14.0311991,7 C14.0311991,9.757 12.0311991,12 9.03119908,12 L9.03119908,14 C13.0311991,14 16.0311991,10.86 16.0311991,7 C16.0311991,3.14 12.8901991,0 9.03119908,0 C5.50119908,0 2.57219908,2.51 2.09819908,6" fill="#34d399"></path></g></svg>